<?xml version="1.0" standalone="no"?>
<!DOCTYPE svg PUBLIC "-//W3C//DTD SVG 20010904//EN"
 "http://www.w3.org/TR/2001/REC-SVG-20010904/DTD/svg10.dtd">
<svg version="1.0" xmlns="http://www.w3.org/2000/svg"
 width="509.000000pt" height="490.000000pt" viewBox="0 0 509.000000 490.000000"
 preserveAspectRatio="xMidYMid meet">

<g transform="translate(0.000000,490.000000) scale(0.100000,-0.100000)"
fill="#000000" stroke="none">
<path d="M2510 4233 c-48 -3 -140 -19 -204 -35 -38 -9 -39 -10 -15 -22 13 -6
33 -26 44 -44 22 -36 28 -36 168 -13 37 6 47 5 47 -6 0 -8 -4 -12 -8 -9 -9 5
-132 -10 -164 -20 -12 -4 -18 -16 -18 -37 0 -18 -7 -45 -15 -61 -17 -32 -29
-31 90 -5 28 6 102 14 165 17 l115 7 3 53 c3 48 1 52 -20 53 -22 1 -22 1 2 8
22 6 25 13 28 57 l3 51 -47 7 c-46 6 -83 6 -174 -1z m160 -118 c0 -2 -13 -5
-28 -7 -17 -2 -29 1 -29 7 0 6 12 9 29 7 15 -2 28 -5 28 -7z"/>
<path d="M2836 4173 c-4 -21 -9 -45 -12 -54 -3 -12 8 -18 46 -27 l51 -12 30
35 c17 19 37 35 44 35 8 0 16 4 20 10 6 10 -113 50 -150 50 -18 0 -24 -7 -29
-37z"/>
<path d="M2185 4121 c-43 -18 -59 -50 -56 -113 2 -40 44 -49 74 -17 l22 24 3
-23 c4 -26 30 -29 39 -4 4 9 16 24 27 33 18 15 19 21 9 53 -6 20 -7 34 -2 30
5 -3 9 2 9 10 0 17 -15 21 -25 7 -3 -6 -18 -6 -38 0 -37 10 -36 10 -62 0z m87
-42 c5 -16 14 -26 19 -23 11 6 12 -9 2 -20 -4 -3 -13 4 -19 16 l-13 23 -8 -22
c-8 -20 -74 -73 -92 -73 -14 0 -29 53 -21 75 24 65 112 81 132 24z m-12 -78
c0 -6 -4 -13 -10 -16 -5 -3 -10 1 -10 9 0 9 5 16 10 16 6 0 10 -4 10 -9z"/>
<path d="M2171 4086 c-12 -14 -5 -26 16 -26 15 0 18 26 4 34 -5 3 -14 0 -20
-8z"/>
<path d="M2220 4085 c0 -8 7 -15 15 -15 8 0 15 7 15 15 0 8 -7 15 -15 15 -8 0
-15 -7 -15 -15z"/>
<path d="M2150 4030 c0 -11 7 -20 15 -20 8 0 15 9 15 20 0 11 -7 20 -15 20 -8
0 -15 -9 -15 -20z"/>
<path d="M2063 4103 l-32 -16 21 -41 c20 -37 88 -156 94 -164 1 -2 15 3 30 11
l27 14 -39 19 c-68 33 -104 118 -74 175 6 10 9 19 8 18 -2 0 -17 -7 -35 -16z"/>
<path d="M2973 4084 c-8 -8 -12 -36 -11 -71 l1 -58 7 60 7 60 2 -50 c2 -27 5
-43 8 -34 2 10 18 19 35 21 28 5 29 4 13 -9 -11 -7 -13 -13 -6 -13 7 0 10 -4
7 -9 -9 -14 22 -21 46 -11 13 5 17 9 10 9 -7 1 -11 5 -7 10 3 5 1 12 -4 15 -5
4 -12 -2 -14 -11 -4 -14 -5 -13 -6 4 0 12 5 24 12 26 10 4 10 6 0 6 -7 1 -13
12 -13 25 0 19 7 26 31 31 17 4 33 5 35 2 3 -2 -10 -7 -28 -11 -26 -5 -30 -9
-18 -16 8 -5 24 -10 35 -11 17 -1 16 -2 -5 -9 l-25 -8 25 -2 25 -2 -25 -8
c-23 -7 -23 -8 -3 -9 12 -1 24 -9 26 -18 3 -10 6 5 8 32 l2 50 7 -60 7 -60 1
61 c2 73 -3 77 -95 79 -57 0 -60 0 -35 -12 l27 -13 -30 6 c-16 3 -32 9 -35 14
-3 4 -11 2 -17 -6z m67 -34 c-11 -7 -11 -10 -2 -10 7 0 10 -4 7 -10 -3 -5 -17
-10 -31 -10 -31 0 -32 27 -1 33 38 7 42 7 27 -3z"/>
<path d="M2816 4068 c-18 -90 -21 -84 45 -103 34 -9 63 -15 65 -12 3 2 0 16
-5 31 -6 14 -8 39 -5 55 6 31 5 32 -63 46 -28 6 -33 3 -37 -17z"/>
<path d="M3195 4056 c11 -56 -2 -102 -38 -136 -18 -16 -40 -33 -50 -36 -14 -4
-6 -14 40 -46 31 -22 82 -60 111 -84 l54 -44 34 32 c19 18 34 38 34 44 0 10
-111 105 -163 139 -15 10 -26 20 -23 22 7 7 87 -50 148 -106 l55 -50 36 37
c21 21 37 42 37 48 0 19 -166 152 -248 197 l-33 19 6 -36z"/>
<path d="M1916 4015 c-17 -13 -17 -16 16 -69 19 -31 38 -53 42 -49 3 3 6 -2 6
-13 0 -10 10 -36 23 -57 l23 -38 22 24 21 23 -57 81 c-31 45 -61 89 -67 97 -9
13 -12 13 -29 1z"/>
<path d="M1763 3995 c-35 -24 -37 -65 -8 -131 25 -55 135 -248 226 -394 142
-226 208 -401 229 -604 6 -60 18 -122 25 -137 37 -71 175 -150 303 -175 67
-13 86 -13 154 0 83 16 174 58 226 106 32 28 32 30 32 122 1 194 38 291 193
497 117 156 153 219 167 295 12 57 5 93 -20 101 -30 9 -44 -3 -109 -96 -220
-311 -484 -395 -778 -245 -157 79 -290 230 -468 529 -81 136 -122 167 -172
132z"/>
<path d="M3044 3948 c9 -5 23 -5 32 0 12 6 7 9 -16 9 -23 0 -28 -3 -16 -9z"/>
<path d="M2564 3911 c-191 -48 -290 -243 -211 -415 65 -140 225 -210 371 -160
69 24 150 102 175 170 41 108 23 216 -50 305 -63 76 -195 123 -285 100z"/>
<path d="M1683 3793 c-59 -72 -99 -133 -142 -220 -55 -110 -55 -111 1 -133
l48 -18 42 85 c23 47 66 120 96 161 l54 76 -22 43 c-12 23 -25 45 -30 48 -4 3
-26 -16 -47 -42z"/>
<path d="M3490 3742 c-30 -26 -70 -59 -89 -73 l-33 -26 39 -59 c83 -121 147
-286 160 -405 8 -79 11 -81 72 -73 l52 7 -6 46 c-4 25 -11 68 -16 95 -5 27 -8
51 -5 53 5 5 22 -73 32 -146 l7 -53 36 6 c20 3 44 6 54 6 22 0 23 40 1 146
-20 101 -57 210 -101 299 -34 71 -133 226 -143 224 -3 0 -30 -21 -60 -47z m18
-90 c48 -69 122 -209 122 -231 0 -9 -18 21 -40 67 -22 46 -60 113 -85 148 -25
36 -45 67 -45 69 0 12 10 1 48 -53z"/>
<path d="M3156 3727 c3 -10 9 -15 12 -12 3 3 0 11 -7 18 -10 9 -11 8 -5 -6z"/>
<path d="M1745 3675 c-40 -50 -135 -221 -135 -246 0 -9 18 -22 48 -32 61 -22
58 -22 71 15 10 27 80 152 113 198 8 12 3 27 -18 63 -16 26 -32 47 -35 47 -4
0 -23 -20 -44 -45z"/>
<path d="M3185 3690 c4 -6 11 -8 16 -5 14 9 11 15 -7 15 -8 0 -12 -5 -9 -10z"/>
<path d="M2305 3460 c-3 -5 -2 -10 4 -10 5 0 13 5 16 10 3 6 2 10 -4 10 -5 0
-13 -4 -16 -10z"/>
<path d="M2920 3444 c8 -8 23 -20 34 -26 19 -10 18 -8 -3 16 -26 27 -53 37
-31 10z"/>
<path d="M2331 3426 c2 -2 15 -9 29 -16 23 -12 24 -12 11 3 -7 10 -20 17 -29
17 -8 0 -13 -2 -11 -4z"/>
<path d="M2850 3385 c-19 -19 -53 -45 -77 -56 -24 -11 -43 -22 -43 -24 0 -13
151 42 185 68 16 13 17 17 6 31 -20 24 -33 20 -71 -19z"/>
<path d="M1436 3268 c-34 -173 -31 -328 9 -504 l16 -70 44 43 c44 42 45 44 36
83 -5 22 -5 38 -1 35 4 -3 11 -21 15 -41 6 -34 8 -36 37 -32 18 3 46 2 63 -2
l31 -7 -14 61 c-18 83 -18 335 1 404 8 29 11 54 8 56 -3 1 -28 9 -54 16 -53
14 -66 8 -68 -35 0 -11 -5 -29 -10 -40 -8 -16 -8 -14 -5 11 3 18 8 43 11 56 6
22 2 26 -33 36 -67 20 -68 20 -86 -70z m100 -230 c-1 -100 -4 -154 -8 -128 -9
59 -9 149 -1 233 3 37 7 67 8 67 0 0 1 -78 1 -172z"/>
<path d="M3317 3303 c-14 -13 -7 -25 8 -13 8 7 24 10 35 7 11 -3 18 -1 14 4
-6 10 -48 12 -57 2z"/>
<path d="M3340 3271 c0 -12 5 -21 10 -21 6 0 10 6 10 14 0 8 -4 18 -10 21 -5
3 -10 -3 -10 -14z"/>
<path d="M3370 3252 c-15 -17 -4 -30 12 -14 16 16 41 15 36 0 -3 -7 5 -20 16
-29 l21 -17 -29 -25 c-16 -14 -26 -31 -23 -38 5 -12 6 -12 6 0 1 7 12 22 26
33 28 22 32 43 10 52 -8 3 -15 16 -15 30 0 19 -5 24 -24 22 -13 0 -29 -7 -36
-14z"/>
<path d="M3288 3235 c-28 -24 -36 -45 -18 -45 6 0 10 -7 10 -15 0 -8 4 -15 10
-15 5 0 7 7 4 15 -4 8 -3 26 0 40 6 22 10 24 34 19 15 -4 25 -5 22 -3 -31 27
-36 27 -62 4z"/>
<path d="M1934 3195 c-4 -8 -14 -15 -23 -16 -9 0 -11 -3 -4 -5 7 -3 9 -12 6
-20 -3 -7 -10 -11 -17 -7 -6 3 -5 0 2 -8 11 -11 14 -12 21 -1 7 11 9 10 14 -2
6 -14 1 -18 -19 -15 -10 1 -24 -24 -24 -44 0 -10 4 -16 10 -12 5 3 6 13 3 23
-6 15 -5 15 14 -1 15 -13 23 -15 28 -7 4 6 4 14 1 17 -3 4 -6 1 -6 -6 0 -7 -5
-9 -10 -6 -8 5 -7 11 1 21 6 7 14 12 18 10 4 -3 7 6 7 19 0 15 -5 21 -13 18
-19 -7 -16 8 5 23 14 11 14 13 2 14 -13 0 -13 1 0 10 10 7 11 10 2 10 -7 0
-15 -7 -18 -15z"/>
<path d="M3114 3179 c77 -248 -35 -518 -262 -633 -90 -45 -156 -59 -266 -54
-84 4 -114 10 -173 35 -166 70 -279 208 -318 387 -17 75 -17 108 0 221 6 35 5
37 -6 20 -9 -13 -13 -59 -14 -130 0 -90 4 -122 23 -177 57 -165 174 -281 352
-349 49 -19 261 -19 320 0 208 68 360 256 377 469 6 82 -11 217 -29 229 -8 4
-9 -2 -4 -18z"/>
<path d="M3052 3094 c-47 -94 -63 -161 -65 -282 -2 -130 2 -130 64 -5 41 82
43 91 47 192 2 58 0 117 -6 131 -9 24 -11 22 -40 -36z"/>
<path d="M3311 3134 c0 -11 3 -14 6 -6 3 7 2 16 -1 19 -3 4 -6 -2 -5 -13z"/>
<path d="M3337 3133 c-3 -5 8 -8 23 -8 15 0 26 3 23 8 -2 4 -13 7 -23 7 -10 0
-21 -3 -23 -7z"/>
<path d="M2123 3005 c3 -74 11 -115 28 -160 l24 -60 3 44 c4 55 -25 217 -44
251 -14 23 -14 16 -11 -75z"/>
<path d="M3508 3083 c7 -3 16 -2 19 1 4 3 -2 6 -13 5 -11 0 -14 -3 -6 -6z"/>
<path d="M1732 3055 c0 -16 2 -22 5 -12 2 9 2 23 0 30 -3 6 -5 -1 -5 -18z"/>
<path d="M3576 2958 c-13 -144 -71 -324 -133 -418 -13 -19 -23 -38 -23 -42 0
-5 18 -8 41 -8 22 0 49 -5 60 -11 18 -9 24 -2 65 86 56 121 92 253 100 373 l7
92 -55 0 -55 0 -7 -72z"/>
<path d="M3700 2966 c0 -122 -50 -307 -116 -434 -30 -56 -35 -92 -14 -92 5 0
15 -19 23 -42 l14 -43 35 55 c94 149 156 341 173 543 l7 77 -61 0 -61 0 0 -64z"/>
<path d="M1730 3000 c0 -5 5 -10 10 -10 6 0 10 5 10 10 0 6 -4 10 -10 10 -5 0
-10 -4 -10 -10z"/>
<path d="M1767 2991 c-4 -17 -3 -21 5 -13 5 5 8 16 6 23 -3 8 -7 3 -11 -10z"/>
<path d="M3382 2980 c0 -14 2 -19 5 -12 2 6 2 18 0 25 -3 6 -5 1 -5 -13z"/>
<path d="M3501 2884 c0 -11 3 -14 6 -6 3 7 2 16 -1 19 -3 4 -6 -2 -5 -13z"/>
<path d="M3306 2708 c3 -5 10 -6 15 -3 13 9 11 12 -6 12 -8 0 -12 -4 -9 -9z"/>
<path d="M1580 2703 c-62 -26 -70 -131 -11 -162 58 -32 141 14 141 78 0 57
-76 107 -130 84z m60 -24 c0 -5 -4 -9 -10 -9 -5 0 -10 7 -10 16 0 8 5 12 10 9
6 -3 10 -10 10 -16z m-30 1 c0 -5 -5 -10 -11 -10 -5 0 -7 5 -4 10 3 6 8 10 11
10 2 0 4 -4 4 -10z m-40 -35 c0 -16 -6 -25 -15 -25 -15 0 -21 31 -8 43 13 14
23 6 23 -18z m120 6 c7 -14 7 -22 -1 -27 -12 -7 -29 12 -29 34 0 19 18 14 30
-7z m-80 -11 c0 -11 -7 -20 -15 -20 -8 0 -15 9 -15 20 0 11 7 20 15 20 8 0 15
-9 15 -20z m43 5 c7 -16 -8 -29 -23 -20 -15 9 -12 35 4 35 8 0 16 -7 19 -15z
m-82 -47 c0 -7 2 -21 4 -31 3 -18 3 -18 -16 -1 -10 9 -19 23 -19 31 0 17 30
17 31 1z m39 -3 c0 -8 -7 -15 -15 -15 -8 0 -15 7 -15 15 0 8 7 15 15 15 8 0
15 -7 15 -15z m44 0 c-4 -8 -12 -15 -20 -15 -8 0 -14 7 -14 15 0 8 9 15 20 15
13 0 18 -5 14 -15z m39 -5 c-7 -25 -19 -34 -28 -20 -10 16 2 40 19 40 9 0 12
-7 9 -20z m-83 -36 c0 -8 -4 -12 -10 -9 -5 3 -10 10 -10 16 0 5 5 9 10 9 6 0
10 -7 10 -16z m30 7 c0 -6 -4 -13 -10 -16 -5 -3 -10 1 -10 9 0 9 5 16 10 16 6
0 10 -4 10 -9z"/>
<path d="M2136 2587 c3 -10 9 -15 12 -12 3 3 0 11 -7 18 -10 9 -11 8 -5 -6z"/>
<path d="M1770 2550 c0 -5 -18 -28 -39 -49 l-40 -40 51 -68 c85 -116 212 -234
300 -279 27 -14 28 -14 54 38 l26 52 -23 16 c-110 71 -241 203 -295 297 -26
43 -34 51 -34 33z"/>
<path d="M3161 2514 c0 -11 3 -14 6 -6 3 7 2 16 -1 19 -3 4 -6 -2 -5 -13z"/>
<path d="M3190 2515 c0 -8 5 -15 10 -15 6 0 10 7 10 15 0 8 -4 15 -10 15 -5 0
-10 -7 -10 -15z"/>
<path d="M1910 2496 c0 -2 11 -6 25 -8 13 -3 22 -1 19 3 -5 9 -44 13 -44 5z"/>
<path d="M1582 2420 c30 -49 119 -167 165 -217 81 -88 248 -213 263 -196 4 4
16 24 28 44 l22 36 -73 51 c-94 66 -179 149 -250 243 l-57 76 -59 -1 -60 -1
21 -35z"/>
<path d="M1945 2440 c-3 -5 -1 -10 4 -10 6 0 11 5 11 10 0 6 -2 10 -4 10 -3 0
-8 -4 -11 -10z"/>
<path d="M3289 2433 c-13 -16 -12 -17 4 -4 9 7 17 15 17 17 0 8 -8 3 -21 -13z"/>
<path d="M3516 2436 c6 -15 4 -17 -7 -10 -8 5 -27 9 -42 10 -25 2 -26 1 -10
-12 17 -13 16 -13 -7 -10 -14 2 -24 9 -22 16 1 6 -2 8 -8 5 -16 -10 18 -45 42
-45 21 0 22 -4 8 -31 -9 -16 -7 -19 10 -19 12 0 19 4 16 9 -3 5 1 11 9 15 8 3
12 12 9 21 -4 8 -1 22 6 31 10 12 11 17 1 27 -10 9 -11 8 -5 -7z m-16 -10 c0
-3 -4 -8 -10 -11 -5 -3 -10 -1 -10 4 0 6 5 11 10 11 6 0 10 -2 10 -4z"/>
<path d="M2488 2383 c7 -3 16 -2 19 1 4 3 -2 6 -13 5 -11 0 -14 -3 -6 -6z"/>
<path d="M2728 2383 c7 -3 16 -2 19 1 4 3 -2 6 -13 5 -11 0 -14 -3 -6 -6z"/>
<path d="M2035 2350 c10 -11 20 -20 23 -20 3 0 -3 9 -13 20 -10 11 -20 20 -23
20 -3 0 3 -9 13 -20z"/>
<path d="M2623 2315 c0 -33 2 -45 4 -27 2 18 2 45 0 60 -2 15 -4 0 -4 -33z"/>
<path d="M3199 2343 c-13 -16 -12 -17 4 -4 16 13 21 21 13 21 -2 0 -10 -8 -17
-17z"/>
<path d="M3220 2288 c-76 -62 -262 -168 -297 -168 -6 0 -23 -4 -37 -10 l-25
-9 15 -53 c9 -29 18 -55 20 -57 8 -9 144 44 224 87 75 41 209 137 224 161 3 5
-3 30 -15 55 -11 25 -17 51 -14 56 14 23 -15 4 -95 -62z"/>
<path d="M3440 2328 c0 -5 7 -8 15 -8 8 0 15 -4 15 -9 0 -6 12 -6 30 -1 42 12
28 -6 -16 -20 -44 -15 -68 -7 -61 20 4 17 0 20 -24 20 -26 0 -29 -4 -29 -30 0
-40 29 -42 31 -2 1 22 2 23 6 5 6 -29 35 -37 81 -22 50 16 66 29 52 43 -12 12
-100 15 -100 4z m-53 -40 c-3 -7 -5 -2 -5 12 0 14 2 19 5 13 2 -7 2 -19 0 -25z"/>
<path d="M2508 2263 c6 -2 18 -2 25 0 6 3 1 5 -13 5 -14 0 -19 -2 -12 -5z"/>
<path d="M3330 2208 c-108 -92 -231 -163 -360 -209 -36 -12 -66 -23 -68 -24
-3 -2 18 -105 22 -105 1 0 35 11 74 24 90 31 199 84 274 133 63 42 208 162
208 173 0 4 -13 7 -29 8 -16 0 -42 7 -58 15 -27 14 -30 13 -63 -15z"/>
<path d="M2320 2180 c8 -5 20 -10 25 -10 6 0 3 5 -5 10 -8 5 -19 10 -25 10 -5
0 -3 -5 5 -10z"/>
<path d="M2910 2180 c-8 -5 -10 -10 -5 -10 6 0 17 5 25 10 8 5 11 10 5 10 -5
0 -17 -5 -25 -10z"/>
<path d="M2178 2106 l-27 -54 65 -26 c35 -14 66 -26 69 -26 2 0 12 14 20 31
10 18 32 38 55 48 l39 17 -52 14 c-29 7 -70 21 -91 31 -22 11 -42 19 -46 19
-3 0 -18 -24 -32 -54z"/>
<path d="M2448 2143 c7 -3 16 -2 19 1 4 3 -2 6 -13 5 -11 0 -14 -3 -6 -6z"/>
<path d="M2788 2143 c7 -3 16 -2 19 1 4 3 -2 6 -13 5 -11 0 -14 -3 -6 -6z"/>
<path d="M2618 2123 c7 -3 16 -2 19 1 4 3 -2 6 -13 5 -11 0 -14 -3 -6 -6z"/>
<path d="M2487 2050 c13 -14 26 -42 29 -62 l6 -37 107 -4 106 -3 -109 -2 -109
-2 -31 -36 c-22 -26 -43 -38 -71 -43 -71 -13 151 -35 271 -28 124 8 135 12
129 43 -3 13 -7 35 -10 49 -4 20 -12 25 -38 26 l-32 1 30 7 c32 7 32 9 20 86
l-5 30 -158 0 -158 0 23 -25z"/>
<path d="M2122 1995 l-22 -46 53 -23 c98 -44 261 -87 202 -54 -35 19 -56 48
-62 82 -5 31 -11 36 -67 56 -33 13 -66 24 -71 27 -6 2 -21 -17 -33 -42z"/>
<path d="M2371 1984 c0 -11 3 -14 6 -6 3 7 2 16 -1 19 -3 4 -6 -2 -5 -13z"/>
<path d="M2320 1971 c0 -11 30 -36 30 -25 0 5 7 0 15 -10 8 -11 15 -16 15 -10
0 15 -16 35 -26 33 -21 -4 -28 2 -14 11 13 8 12 10 -2 10 -10 0 -18 -4 -18 -9z"/>
<path d="M2436 1972 c-3 -5 1 -9 9 -9 8 0 12 4 9 9 -3 4 -7 8 -9 8 -2 0 -6 -4
-9 -8z"/>
<path d="M2868 1973 c7 -3 16 -2 19 1 4 3 -2 6 -13 5 -11 0 -14 -3 -6 -6z"/>
<path d="M2438 1933 c7 -3 16 -2 19 1 4 3 -2 6 -13 5 -11 0 -14 -3 -6 -6z"/>
<path d="M3184 1730 c-54 -27 -74 -70 -74 -161 0 -131 53 -186 172 -177 63 5
104 27 125 69 19 35 17 183 -3 220 -32 62 -143 87 -220 49z m124 -155 c2 -57
0 -72 -14 -82 -44 -32 -74 -2 -74 76 0 65 12 83 55 79 30 -3 30 -3 33 -73z"/>
<path d="M1780 1696 l0 -45 43 -3 42 -3 3 -122 3 -123 54 0 55 0 0 125 0 125
45 0 45 0 0 45 0 45 -145 0 -145 0 0 -44z"/>
<path d="M2100 1570 l0 -170 125 0 125 0 0 45 0 45 -70 0 c-56 0 -70 3 -70 15
0 12 13 15 55 15 l55 0 0 44 c0 49 -8 56 -71 56 -28 0 -39 4 -39 15 0 12 14
15 70 15 l70 0 0 45 0 45 -125 0 -125 0 0 -170z"/>
<path d="M2390 1570 l0 -170 51 0 52 0 -6 73 c-4 39 -9 83 -12 97 -5 22 -4 22
4 5 5 -11 19 -41 30 -67 19 -46 22 -48 59 -48 41 0 47 8 82 104 6 16 13 27 16
24 2 -3 0 -17 -5 -32 -6 -14 -13 -55 -17 -91 l-7 -66 59 3 59 3 0 165 0 165
-53 3 -52 3 -35 -73 c-19 -41 -37 -77 -41 -81 -4 -4 -24 29 -45 73 l-38 80
-50 0 -51 0 0 -170z"/>
<path d="M2800 1571 l0 -169 45 -4 c62 -4 65 -2 65 47 l0 43 56 4 c45 4 61 10
85 35 57 56 46 157 -20 196 -22 13 -53 17 -130 17 l-101 0 0 -169z m169 61
c13 -24 -4 -42 -36 -42 -19 0 -23 5 -23 30 0 25 4 30 25 30 13 0 29 -8 34 -18z"/>
<path d="M2644 1326 c-60 -27 -74 -57 -74 -166 0 -85 3 -101 22 -125 53 -68
186 -75 248 -13 31 30 47 97 36 143 -6 24 -9 25 -86 25 l-80 0 0 -39 c0 -38
19 -59 41 -45 5 3 9 -2 9 -10 0 -21 -46 -32 -66 -16 -11 10 -14 30 -12 84 3
70 3 71 32 74 21 3 34 -2 45 -17 14 -18 21 -19 51 -11 63 18 68 24 46 64 -31
59 -137 84 -212 52z"/>
<path d="M1480 1160 l0 -170 55 0 55 0 0 170 0 170 -55 0 -55 0 0 -170z"/>
<path d="M1637 1323 c-4 -3 -7 -80 -7 -170 l0 -163 49 0 c46 0 50 2 55 28 3
15 2 55 -2 90 -5 34 -7 62 -5 62 2 0 11 -17 19 -37 9 -20 31 -61 50 -90 33
-52 34 -53 84 -53 l50 0 0 170 0 170 -50 0 -50 0 0 -49 c0 -27 4 -60 9 -73 26
-71 18 -77 -17 -13 -82 146 -71 135 -128 135 -28 0 -54 -3 -57 -7z"/>
<path d="M1964 1316 c-3 -8 -4 -27 -2 -43 3 -25 7 -28 45 -31 l42 -3 3 -122 3
-122 52 -3 52 -3 3 123 3 123 45 5 45 5 0 40 0 40 -143 3 c-117 2 -143 0 -148
-12z"/>
<path d="M2285 1317 c-3 -7 -4 -82 -3 -167 l3 -155 128 -3 127 -3 0 45 0 45
-72 3 c-86 4 -97 21 -18 28 l55 5 0 45 0 45 -58 3 c-86 4 -70 26 22 30 l72 3
-3 42 -3 42 -123 3 c-94 2 -124 0 -127 -11z"/>
<path d="M2910 1161 l0 -171 55 0 55 0 0 51 c0 63 16 62 48 -4 l24 -47 59 0
c32 0 59 3 59 7 0 4 -12 31 -27 60 -27 51 -27 52 -8 73 15 17 20 36 20 81 0
51 -4 62 -28 86 -26 27 -32 28 -142 31 l-115 4 0 -171z m171 63 c11 -14 10
-18 -6 -30 -28 -21 -50 -13 -53 19 -3 23 0 27 21 27 14 0 31 -7 38 -16z"/>
<path d="M3327 1297 c-8 -19 -18 -45 -21 -58 -4 -13 -11 -33 -16 -44 -5 -11
-21 -56 -36 -100 -15 -44 -29 -86 -31 -92 -4 -10 10 -13 52 -13 48 0 58 3 62
20 4 17 14 20 55 20 41 0 51 -3 55 -20 5 -17 14 -20 64 -20 l58 0 -14 43 c-7
23 -33 98 -58 167 l-44 125 -56 3 c-56 3 -57 3 -70 -31z m77 -129 c7 -44 6
-48 -14 -48 -16 0 -20 5 -16 18 2 9 8 32 11 50 9 41 11 39 19 -20z"/>
<path d="M3590 1161 l0 -171 121 0 120 0 -3 43 -3 42 -62 3 -62 3 -3 122 -3
122 -52 3 -53 3 0 -170z"/>
</g>
</svg>
