<?xml version="1.0" encoding="utf-8"?>
<!-- Generator: Adobe Illustrator 25.3.1, SVG Export Plug-In . SVG Version: 6.00 Build 0)  -->
<svg version="1.1" id="Camada_1" xmlns="http://www.w3.org/2000/svg" xmlns:xlink="http://www.w3.org/1999/xlink" x="0px" y="0px"
	 viewBox="0 0 38.9 41.7" style="enable-background:new 0 0 38.9 41.7;" xml:space="preserve">
<path id="icone_" class="st0" d="M35.6,17.5H22.8V4.7c0-0.7-0.6-1.3-1.3-1.3h-4.1c-0.7,0-1.3,0.6-1.3,1.3v12.8H3.3
	c-0.7,0-1.3,0.6-1.3,1.3v4.1c0,0.7,0.6,1.3,1.3,1.3h12.8V37c0,0.7,0.6,1.3,1.3,1.3h4.1c0.7,0,1.3-0.6,1.3-1.3V24.2h12.8
	c0.7,0,1.3-0.6,1.3-1.3v-4.1C36.9,18.1,36.3,17.5,35.6,17.5z"/>
</svg>
