<?xml version="1.0" encoding="utf-8"?>
<!-- Generator: Adobe Illustrator 27.1.1, SVG Export Plug-In . SVG Version: 6.00 Build 0)  -->
<svg version="1.1" id="Camada_1" xmlns="http://www.w3.org/2000/svg" xmlns:xlink="http://www.w3.org/1999/xlink" x="0px" y="0px"
	 viewBox="0 0 129 123.6" style="enable-background:new 0 0 129 123.6;" xml:space="preserve">
<g>
	<path d="M40.9,34c3.5,9.7,12.7,16.6,23.6,16.6c13.8,0,25-11.2,25-25s-11.2-25-25-25c-12.7,0-23.2,9.5-24.8,21.7
		C24.9,30,14.5,44.2,11.6,60.7l10.6,1.8C24.2,50.7,31.1,40.5,40.9,34z M64.5,11.3c7.9,0,14.3,6.4,14.3,14.3s-6.4,14.3-14.3,14.3
		s-14.3-6.4-14.3-14.3S56.6,11.3,64.5,11.3z"/>
	<path d="M45.4,108.3c3-4.1,4.8-9.2,4.8-14.7c0-13.8-11.2-25-25-25s-25,11.2-25,25s11.2,25,25,25c4.2,0,8.1-1,11.6-2.8
		c8.4,5.1,17.9,7.8,27.8,7.8c4.7,0,9.4-0.6,13.9-1.8l-2.8-10.4C65.6,114.1,54.7,112.9,45.4,108.3z M10.8,93.6
		c0-7.9,6.4-14.3,14.3-14.3s14.3,6.4,14.3,14.3s-6.4,14.3-14.3,14.3S10.8,101.5,10.8,93.6z"/>
	<path d="M118.1,73c0.1-1,0.1-2.1,0.1-3.1c0-16.1-7.1-31.2-19.5-41.4l-6.8,8.3c9.7,8,15.3,19.6,15.6,32c-1.2-0.2-2.3-0.3-3.5-0.3
		c-13.8,0-25,11.2-25,25s11.2,25,25,25s25-11.2,25-25C128.9,85.1,124.6,77.5,118.1,73z M103.9,107.9c-7.9,0-14.3-6.4-14.3-14.3
		s6.4-14.3,14.3-14.3s14.3,6.4,14.3,14.3S111.8,107.9,103.9,107.9z"/>
</g>
</svg>
