<?xml version="1.0" encoding="utf-8"?>
<!-- Generator: Adobe Illustrator 27.1.1, SVG Export Plug-In . SVG Version: 6.00 Build 0)  -->
<svg version="1.1" id="Camada_1" xmlns="http://www.w3.org/2000/svg" xmlns:xlink="http://www.w3.org/1999/xlink" x="0px" y="0px"
	 viewBox="0 0 29.1 27.5" style="enable-background:new 0 0 29.1 27.5;" xml:space="preserve">
<g>
	<path d="M23.8,21.5h-0.6V15c0-4.7-3.8-8.5-8.5-8.5S6.2,10.3,6.2,15v6.5H5.5c-0.8,0-1.4,0.6-1.4,1.4v3.2c0,0.8,0.6,1.4,1.4,1.4h18.2
		c0.8,0,1.4-0.6,1.4-1.4v-3.3C25.1,22.1,24.5,21.5,23.8,21.5z M8.1,15c0-3.6,2.9-6.5,6.5-6.5s6.5,2.9,6.5,6.5v6.5h-13V15z
		 M23.1,25.5h-17v-2h17V25.5z"/>
	<path d="M28.6,13.5h-3c-0.3,0-0.5,0.2-0.5,0.5v1c0,0.3,0.2,0.5,0.5,0.5h3c0.3,0,0.5-0.2,0.5-0.5v-1C29.1,13.7,28.9,13.5,28.6,13.5z
		"/>
	<path d="M4.1,14c0-0.3-0.2-0.5-0.5-0.5h-3c-0.3,0-0.5,0.2-0.5,0.5v1c0,0.3,0.2,0.5,0.5,0.5h3c0.3,0,0.5-0.2,0.5-0.5V14z"/>
	<path d="M14.2,4h1c0.3,0,0.5-0.2,0.5-0.5v-3c0-0.3-0.2-0.5-0.5-0.5h-1c-0.3,0-0.5,0.2-0.5,0.5v3C13.6,3.7,13.9,4,14.2,4z"/>
	<path d="M6.1,7.4c0.2,0.2,0.5,0.2,0.7,0l0.7-0.7c0.2-0.2,0.2-0.5,0-0.7l-2-2.1C5.3,3.7,5,3.7,4.8,3.9L4,4.5C3.8,4.7,3.8,5.1,4,5.3
		L6.1,7.4z"/>
	<path d="M22.4,7.4c0.2,0.2,0.5,0.2,0.7,0l2.1-2.1c0.2-0.2,0.2-0.5,0-0.7l-0.7-0.7c-0.2-0.2-0.5-0.2-0.7,0L21.7,6
		c-0.2,0.2-0.2,0.5,0,0.7L22.4,7.4z"/>
	<path d="M10.1,15h2c0-1.4,1.1-2.5,2.5-2.5v-2C12.2,10.5,10.1,12.5,10.1,15z"/>
</g>
</svg>
