<?xml version="1.0" encoding="utf-8"?>
<!-- Generator: Adobe Illustrator 27.1.1, SVG Export Plug-In . SVG Version: 6.00 Build 0)  -->
<svg version="1.1" id="Camada_1" xmlns="http://www.w3.org/2000/svg" xmlns:xlink="http://www.w3.org/1999/xlink" x="0px" y="0px"
	 viewBox="0 0 145.5 127.5" style="enable-background:new 0 0 145.5 127.5;" xml:space="preserve">
<path d="M142.9,99L89.1,9.1c-2.6-4.4-6.8-7.4-11.8-8.6S67.2,0.1,62.9,2.7c-2.6,1.6-4.8,3.8-6.4,6.4l0,0L2.6,99
	c-5.3,9.1-2.1,20.8,7,26c2.8,1.6,6,2.5,9.4,2.5h107.7c5.1-0.1,9.9-2.1,13.4-5.7c3.6-3.6,5.5-8.4,5.4-13.5
	C145.5,105.2,144.6,102,142.9,99z M131,113.1c-1.2,1.2-2.8,1.9-4.4,1.9H19c-1.1,0-2.2-0.3-3.1-0.8c-3-1.7-4.1-5.6-2.4-8.6l53.8-89.8
	c0.5-0.9,1.3-1.6,2.1-2.1c3-1.8,6.9-0.9,8.7,2.1l53.8,89.7c0.5,0.9,0.8,2,0.9,3.1C132.8,110.3,132.2,111.9,131,113.1z M79.1,45.1
	v25.4c0,3.5-2.8,6.4-6.4,6.4s-6.4-2.8-6.4-6.4V45.1c0-3.5,2.8-6.4,6.4-6.4S79.1,41.6,79.1,45.1z M78.6,93.5c0.3,0.8,0.5,1.6,0.5,2.4
	s-0.2,1.7-0.5,2.4c-0.3,0.8-0.8,1.5-1.3,2.1c-1.2,1.2-2.8,1.8-4.5,1.8s-3.3-0.6-4.5-1.8c-1.2-1.2-1.8-2.8-1.8-4.5
	c0-0.8,0.2-1.7,0.5-2.4c0.3-0.8,0.8-1.5,1.3-2.1c2.3-2.4,6.6-2.4,9,0C77.9,92.1,78.3,92.8,78.6,93.5z"/>
</svg>
