<?xml version="1.0" encoding="utf-8"?>
<!-- Generator: Adobe Illustrator 27.2.0, SVG Export Plug-In . SVG Version: 6.00 Build 0)  -->
<svg version="1.1" id="Camada_1" xmlns="http://www.w3.org/2000/svg" xmlns:xlink="http://www.w3.org/1999/xlink" x="0px" y="0px"
	 viewBox="0 0 101.4 100.3" style="enable-background:new 0 0 101.4 100.3;" xml:space="preserve">
<path d="M85.5,99.6c-0.4,0-0.9,0-1.3-0.1l-0.1,0C69.8,97.9,55.8,93,43.7,85.2c-11.2-7.1-20.9-16.8-28-28C7.9,45.1,3,31.1,1.4,16.7
	C1.1,12.7,2.2,9,4.7,6c2.5-3,6-4.8,9.9-5.2c0.4,0,0.9-0.1,1.3-0.1H29C36.3,0.7,42.5,6,43.5,13.2c0.5,3.8,1.4,7.5,2.8,11.1
	c2,5.3,0.7,11.3-3.3,15.3L40.6,42c4.8,7.2,10.9,13.3,18.1,18.1l2.3-2.3c4-4,10.1-5.3,15.4-3.3c3.5,1.3,7.3,2.2,11,2.7
	c7.3,1,12.7,7.3,12.6,14.7V85C100,93,93.5,99.5,85.5,99.6C85.5,99.6,85.5,99.6,85.5,99.6z M85.2,88c0.1,0,0.2,0,0.2,0
	c1.6,0,3-1.3,3-3l0-13.3c0-1.5-1.1-2.8-2.6-3c-4.6-0.6-9.1-1.7-13.5-3.4c-1.1-0.4-2.3-0.1-3.1,0.7l-8.7,8.7l-3.8-2.2
	C44.9,65.7,35,55.9,28.3,44l-2.2-3.8l8.7-8.7c0.8-0.8,1.1-2,0.6-3.1c-1.6-4.4-2.8-9-3.4-13.6c-0.2-1.4-1.5-2.5-2.9-2.5c0,0,0,0,0,0
	l-13.2,0c-0.1,0-0.2,0-0.3,0c-1.6,0.1-2.8,1.6-2.7,3.2c1.3,12.5,5.7,24.7,12.5,35.3c6.3,9.8,14.7,18.3,24.5,24.5
	C60.6,82.3,72.8,86.6,85.2,88z"/>
</svg>
