<?xml version="1.0" encoding="utf-8"?>
<!-- Generator: Adobe Illustrator 27.2.0, SVG Export Plug-In . SVG Version: 6.00 Build 0)  -->
<svg version="1.1" id="Camada_1" xmlns="http://www.w3.org/2000/svg" xmlns:xlink="http://www.w3.org/1999/xlink" x="0px" y="0px"
	 viewBox="0 0 102.2 94.7" style="enable-background:new 0 0 102.2 94.7;" xml:space="preserve">
<path d="M79.9,94.7c-1.9,0-3.7-0.7-5-2.1L59.1,76.8H20.6C9.2,76.8,0,67.6,0,56.2V20.6C0,9.2,9.2,0,20.6,0h61
	c11.4,0,20.6,9.2,20.6,20.6v35.6c0,9.5-6.5,17.5-15.3,19.9v11.4c0,2.9-1.7,5.5-4.4,6.6C81.7,94.5,80.8,94.7,79.9,94.7z M20.6,10.7
	c-5.5,0-9.9,4.4-9.9,9.9v35.6c0,5.5,4.4,9.9,9.9,9.9h42.9l12.7,12.7V66.1h5.4c5.5,0,9.9-4.4,9.9-9.9V20.6c0-5.5-4.4-9.9-9.9-9.9
	H20.6z M71.5,20.3H25.7v10.7h45.8V20.3z M51.1,40.7H25.7v10.7h25.4V40.7z"/>
</svg>
