<?xml version="1.0" encoding="utf-8"?>
<!-- Generator: Adobe Illustrator 27.1.1, SVG Export Plug-In . SVG Version: 6.00 Build 0)  -->
<svg version="1.1" id="Camada_1" xmlns="http://www.w3.org/2000/svg" xmlns:xlink="http://www.w3.org/1999/xlink" x="0px" y="0px"
	 viewBox="0 0 120 120.1" style="enable-background:new 0 0 120 120.1;" xml:space="preserve">
<g>
	<path d="M71.9,50.8c0.8,0.8,1.9,1.3,3,1.3s2.2-0.5,3-1.3c9.9-10.2,9.9-26.8,0-37c-1.6-1.4-3.9-1.4-5.5,0c-1.8,1.6-2,4.3-0.5,6.1
		l0,0c6.6,6.8,6.6,17.9,0,24.7C70.2,46.4,70.2,49.1,71.9,50.8z"/>
	<path d="M83.8,7.7C97,21.3,97,43.4,83.8,57c-1.6,1.7-1.6,4.4,0,6.1c0.8,0.8,1.9,1.3,3,1.3s2.2-0.4,3-1.3c16.5-17,16.5-44.6,0-61.7
		c-1.6-1.4-3.9-1.4-5.5,0C82.5,3.1,82.3,5.8,83.8,7.7L83.8,7.7z"/>
	<path d="M42,50.8c0.8,0.8,1.8,1.3,3,1.3c1.1,0,2.2-0.5,3-1.3c1.6-1.7,1.6-4.4,0-6.1l0,0c-6.6-6.8-6.6-17.9,0-24.7
		c1.4-1.6,1.4-4,0-5.7c-1.5-1.8-4.2-2-6-0.5C32.1,24.1,32.1,40.6,42,50.8z"/>
	<path d="M33,64.4c1.1,0,2.2-0.5,3-1.3c1.6-1.7,1.6-4.4,0-6.1l0,0C22.8,43.4,22.8,21.3,36,7.7c0.2-0.1,0.3-0.3,0.5-0.5
		C38,5.4,37.8,2.6,36,1.1c-1.8-1.6-4.4-1.4-6,0.5c-16.5,17-16.5,44.6,0,61.7C30.8,64,31.9,64.4,33,64.4z"/>
	<path d="M55.7,39.8v36.1c0,2.4,1.9,4.4,4.2,4.4c2.3,0,4.2-2,4.2-4.4V39.8c2.6-1.5,4.2-4.4,4.2-7.5c0-4.8-3.8-8.7-8.5-8.7
		s-8.5,3.9-8.5,8.7C51.5,35.4,53.1,38.3,55.7,39.8z"/>
	<path d="M115.5,35.8c-2.5,0-4.4,2-4.4,4.5v48.6c0,2.5-2,4.5-4.4,4.5H13.2c-2.5,0-4.4-2-4.4-4.5V40.3c0-2.5-2-4.5-4.4-4.5
		c-2.5,0-4.4,2-4.4,4.5v48.6v17.8c0,7.4,6,13.4,13.3,13.4h93.4c7.4,0,13.3-6,13.3-13.4V88.9V40.3C120,37.8,118,35.8,115.5,35.8z
		 M106.6,111.2H13.2c-2.5,0-4.4-2-4.4-4.5v-5.3c1.4,0.5,2.9,0.8,4.4,0.8h93.4c1.6,0,3.1-0.3,4.4-0.8v5.3
		C111.1,109.2,109.1,111.2,106.6,111.2z"/>
</g>
</svg>
