<?xml version="1.0" encoding="utf-8"?>
<!-- Generator: Adobe Illustrator 27.1.1, SVG Export Plug-In . SVG Version: 6.00 Build 0)  -->
<svg version="1.1" id="Camada_1" xmlns="http://www.w3.org/2000/svg" xmlns:xlink="http://www.w3.org/1999/xlink" x="0px" y="0px"
	 viewBox="0 0 121 100" style="enable-background:new 0 0 121 100;" xml:space="preserve">
<path d="M114.8,12H99V5.2C99,2.9,97.1,1,94.8,1h-8.1c-2.3,0-4.2,1.9-4.2,4.2V12h-44V5.2c0-2.3-1.9-4.2-4.2-4.2h-8.1
	C23.9,1,22,2.9,22,5.2V12H6.2C2.8,12,0,14.8,0,18.2v75.6c0,3.4,2.8,6.2,6.2,6.2h108.6c3.4,0,6.2-2.8,6.2-6.2V18.2
	C121,14.8,118.2,12,114.8,12z M110,89H11V23h15.2h8.1h52.4h8.1H110V89z M65.5,50l17,2.9L53.6,83.5l6.9-22l-19.6-2.4l28.9-30.6
	L65.5,50z"/>
</svg>
