<?xml version="1.0" encoding="utf-8"?>
<!-- Generator: Adobe Illustrator 27.2.0, SVG Export Plug-In . SVG Version: 6.00 Build 0)  -->
<svg version="1.1" id="Camada_1" xmlns="http://www.w3.org/2000/svg" xmlns:xlink="http://www.w3.org/1999/xlink" x="0px" y="0px"
	 viewBox="0 0 24 24" style="enable-background:new 0 0 24 24;" xml:space="preserve">
<g>
	<path d="M12.5,16.8h-0.9c-0.4,0-0.8-0.4-0.8-0.8V6.8c0-0.4,0.4-0.8,0.8-0.8h0.9c0.4,0,0.8,0.4,0.8,0.8V16
		C13.3,16.5,12.9,16.8,12.5,16.8z"/>
	<path d="M8.9,16.8H8c-0.4,0-0.8-0.4-0.8-0.8v-4.5c0-0.4,0.4-0.8,0.8-0.8h0.9c0.4,0,0.8,0.4,0.8,0.8V16C9.7,16.5,9.3,16.8,8.9,16.8z
		"/>
	<path d="M16,16.8h-0.9c-0.4,0-0.8-0.4-0.8-0.8V9.1c0-0.4,0.4-0.8,0.8-0.8H16c0.4,0,0.8,0.4,0.8,0.8V16C16.8,16.5,16.5,16.8,16,16.8
		z"/>
	<g>
		<path d="M22,12h1.5c0.3,0,0.5-0.2,0.5-0.5c-0.1-2.7-1.1-5.1-2.7-7.1c-0.2-0.2-0.6-0.2-0.8,0l-1.1,1.1c-0.2,0.2-0.2,0.5,0,0.7
			c1.2,1.5,2,3.4,2.1,5.4C21.5,11.8,21.7,12,22,12z"/>
		<path d="M21.8,13.2c-0.3,0-0.5,0.2-0.5,0.4c-0.8,4.5-4.7,7.9-9.3,7.9s-8.6-3.4-9.3-7.9c0-0.2-0.2-0.4-0.5-0.4H0.6
			c-0.3,0-0.6,0.3-0.5,0.6C1,19.6,6,24,12,24s11-4.4,11.9-10.2c0-0.3-0.2-0.6-0.5-0.6H21.8z"/>
		<path d="M12,2.5c2.2,0,4.3,0.8,5.9,2.1c0.2,0.2,0.5,0.2,0.7,0l1.1-1.1c0.2-0.2,0.2-0.6,0-0.8C17.5,1,14.9,0,12,0
			C5.6,0,0.3,5.1,0,11.5C0,11.8,0.2,12,0.5,12H2c0.3,0,0.5-0.2,0.5-0.5C2.8,6.5,6.9,2.5,12,2.5z"/>
	</g>
</g>
</svg>
