<?xml version="1.0" encoding="utf-8"?>
<!-- Generator: Adobe Illustrator 27.1.1, SVG Export Plug-In . SVG Version: 6.00 Build 0)  -->
<svg version="1.1" id="Camada_1" xmlns="http://www.w3.org/2000/svg" xmlns:xlink="http://www.w3.org/1999/xlink" x="0px" y="0px"
	 viewBox="0 0 140.3 103.6" style="enable-background:new 0 0 140.3 103.6;" xml:space="preserve">
<path d="M114.4,50.7c-2.2,0-4.4,0.4-6.6,0.9l-11-45.8c-0.4-2.2-2.2-3.5-4.4-3.5H79.2c-2.6,0-4.4,1.8-4.4,4.4c0,2.6,1.8,4.4,4.4,4.4
	h9.7l5.3,22H48c-0.4-3.5,0.9-7.5,3.5-10.1c1.3-1.3,1.8-3.1,0.9-4.8c-0.4-1.8-2.2-2.6-4-2.6H30.8c-2.6,0-4.4,1.8-4.4,4.4
	c0,2.6,1.8,4.4,4.4,4.4h9.7c-1.3,4-1.8,7.9-0.9,11.9L33,51.7c-2.2-0.4-4.4-0.9-6.6-0.9C11.9,50.8,0,62.7,0,77.2s11.9,26.4,26.4,26.4
	c13.2,0,23.8-9.7,26-22H66l0,0l0,0c0.4,0,1.3,0,1.8-0.4l0,0l0,0c0.4-0.4,0.9-0.9,1.3-1.3l0,0l27.7-35.7l2.6,11
	c-7,4.8-11.9,12.8-11.9,22c0,14.5,11.9,26.4,26.4,26.4c14.5,0,26.4-11.9,26.4-26.4S129,50.7,114.4,50.7z M44.4,47.2l14.1,25.5h-6.2
	C51,65.2,47,59.1,40.9,55.1L44.4,47.2z M37.4,63.5c3.1,2.2,5.3,5.7,6.2,9.2H33L37.4,63.5z M26.4,94.7c-9.7,0-17.6-7.9-17.6-17.6
	s7.9-17.6,17.6-17.6c0.9,0,1.8,0,3.1,0.4l-7,15.4c-0.4,1.3-0.4,3.1,0.4,4.4c0.9,1.3,2.2,1.8,3.5,1.8h17.2
	C41.4,89,34.7,94.7,26.4,94.7z M66.4,69.2L51.9,41.9H88L66.4,69.2z M114.4,94.7c-9.7,0-17.6-7.9-17.6-17.6c0-4.8,2.2-9.2,5.3-12.3
	l1.8,7.5c0,0.9,0.4,1.8,1.3,2.2l6.2,5.7c0.9,0.9,1.8,1.3,3.1,1.3s2.2-0.4,3.1-1.3c1.8-1.8,1.8-4.4,0-6.2l-5.3-4.8l-2.2-8.8
	c1.3-0.4,3.1-0.4,4.4-0.4c9.7,0,17.6,7.9,17.6,17.6S124.1,94.7,114.4,94.7z"/>
</svg>
