<?xml version="1.0" encoding="utf-8"?>
<!-- Generator: Adobe Illustrator 27.1.1, SVG Export Plug-In . SVG Version: 6.00 Build 0)  -->
<svg version="1.1" id="Camada_1" xmlns="http://www.w3.org/2000/svg" xmlns:xlink="http://www.w3.org/1999/xlink" x="0px" y="0px"
	 viewBox="0 0 113.2 129.2" style="enable-background:new 0 0 113.2 129.2;" xml:space="preserve">
<g>
	<path d="M56.6,0L0,21.4v20.3c0,69.4,39.5,81.1,56.6,87.5c17.1-6.4,56.6-18.1,56.6-87.5V21.4L56.6,0z M101.9,41.7
		c0,56.9-27.6,68.9-45.3,75.5c-17.8-6.6-45.3-18.7-45.3-75.5V29.2L56.6,12l45.3,17.1V41.7z"/>
	<path d="M40.6,44.9v9.6h-4.7c-2.7,0-4.9,2.2-4.9,4.9v28.7c0,2.7,2.2,4.9,4.9,4.9h41.5c2.7,0,4.9-2.2,4.9-4.9V59.3
		c0-2.7-2.2-4.9-4.9-4.9h-4.8v-9.6c0-8.8-7.2-16-16-16S40.6,36,40.6,44.9z M59.8,72.6v7.5c0,1.8-1.4,3.2-3.2,3.2s-3.2-1.4-3.2-3.2
		v-7.5c-1.3-1-2.1-2.5-2.1-4.2c0-2.9,2.4-5.3,5.3-5.3s5.3,2.4,5.3,5.3C61.9,70.1,61.1,71.6,59.8,72.6z M66.2,44.9v9.6H47v-9.6
		c0-5.3,4.3-9.6,9.6-9.6S66.2,39.6,66.2,44.9z"/>
</g>
</svg>
