<?xml version="1.0" encoding="utf-8"?>
<!-- Generator: Adobe Illustrator 27.1.1, SVG Export Plug-In . SVG Version: 6.00 Build 0)  -->
<svg version="1.1" id="Camada_1" xmlns="http://www.w3.org/2000/svg" xmlns:xlink="http://www.w3.org/1999/xlink" x="0px" y="0px"
	 viewBox="0 0 114.4 110.7" style="enable-background:new 0 0 114.4 110.7;" xml:space="preserve">
<g>
	<path d="M77.6,110.7V4.2c0-2.3-1.9-4.2-4.2-4.2H4.2C1.9,0,0,1.9,0,4.2v106.5H77.6z M51.1,105.8H26.5V79.2c0-2.9,2.3-5.2,5.2-5.2
		h14.1c2.9,0,5.2,2.3,5.2,5.2v26.6H51.1z M43.3,21.7c0-0.7,0.6-1.3,1.3-1.3H60c0.7,0,1.3,0.6,1.3,1.3v8.9c0,0.7-0.6,1.3-1.3,1.3
		H44.6c-0.7,0-1.3-0.6-1.3-1.3V21.7z M43.3,42.9c0-0.7,0.6-1.3,1.3-1.3H60c0.7,0,1.3,0.6,1.3,1.3v8.9c0,0.7-0.6,1.3-1.3,1.3H44.6
		c-0.7,0-1.3-0.6-1.3-1.3V42.9z M16.3,21.7c0-0.7,0.6-1.3,1.3-1.3H33c0.7,0,1.3,0.6,1.3,1.3v8.9c0,0.7-0.6,1.3-1.3,1.3H17.6
		c-0.7,0-1.3-0.6-1.3-1.3V21.7z M16.3,42.9c0-0.7,0.6-1.3,1.3-1.3H33c0.7,0,1.3,0.6,1.3,1.3v8.9c0,0.7-0.6,1.3-1.3,1.3H17.6
		c-0.7,0-1.3-0.6-1.3-1.3V42.9z"/>
	<path d="M114.4,110.7V45c0-2.3-1.9-4.2-4.2-4.2H88c-2.3,0-4.2,1.9-4.2,4.2v65.7H114.4z"/>
</g>
</svg>
