<?xml version="1.0" encoding="utf-8"?>
<!-- Generator: Adobe Illustrator 27.1.1, SVG Export Plug-In . SVG Version: 6.00 Build 0)  -->
<svg version="1.1" id="Camada_1" xmlns="http://www.w3.org/2000/svg" xmlns:xlink="http://www.w3.org/1999/xlink" x="0px" y="0px"
	 viewBox="0 0 138 138.5" style="enable-background:new 0 0 138 138.5;" xml:space="preserve">
<g>
	<path d="M131.7,13.1h-12.5V6.8c0-3.5-2.8-6.3-6.3-6.3s-6.3,2.8-6.3,6.3v6.3H31.4V6.8c0-3.5-2.8-6.3-6.3-6.3s-6.3,2.8-6.3,6.3v6.3
		H6.3c-3.5,0-6.3,2.8-6.3,6.3v112.8c0,3.5,2.8,6.3,6.3,6.3h125.4c3.5,0,6.3-2.8,6.3-6.3V19.4C137.9,15.9,135.1,13.1,131.7,13.1z
		 M125.4,25.6v6.3H12.6v-6.3H125.4z M12.6,125.9V44.4h112.8v81.5H12.6z"/>
	<path d="M106.6,60.9h-9.4c-3.5,0-6.3,2.8-6.3,6.3v9.4c0,3.5,2.8,6.3,6.3,6.3h9.4c3.5,0,6.3-2.8,6.3-6.3v-9.4
		C112.9,63.7,110.1,60.9,106.6,60.9z"/>
	<path d="M73.7,60.9h-9.4c-3.5,0-6.3,2.8-6.3,6.3v9.4c0,3.5,2.8,6.3,6.3,6.3h9.4c3.5,0,6.3-2.8,6.3-6.3v-9.4
		C80,63.7,77.2,60.9,73.7,60.9z"/>
	<path d="M40.8,60.9h-9.4c-3.5,0-6.3,2.8-6.3,6.3v9.4c0,3.5,2.8,6.3,6.3,6.3h9.4c3.5,0,6.3-2.8,6.3-6.3v-9.4
		C47.1,63.7,44.3,60.9,40.8,60.9z"/>
	<path d="M73.7,93.8h-9.4c-3.5,0-6.3,2.8-6.3,6.3v9.4c0,3.5,2.8,6.3,6.3,6.3h9.4c3.5,0,6.3-2.8,6.3-6.3v-9.4
		C80,96.6,77.2,93.8,73.7,93.8z"/>
	<path d="M40.8,93.8h-9.4c-3.5,0-6.3,2.8-6.3,6.3v9.4c0,3.5,2.8,6.3,6.3,6.3h9.4c3.5,0,6.3-2.8,6.3-6.3v-9.4
		C47.1,96.6,44.3,93.8,40.8,93.8z"/>
</g>
</svg>
