<?xml version="1.0" encoding="utf-8"?>
<!-- Generator: Adobe Illustrator 27.1.1, SVG Export Plug-In . SVG Version: 6.00 Build 0)  -->
<svg version="1.1" id="mdi-car-light-high" xmlns="http://www.w3.org/2000/svg" xmlns:xlink="http://www.w3.org/1999/xlink" x="0px"
	 y="0px" viewBox="0 0 20 14.4" style="enable-background:new 0 0 20 14.4;" xml:space="preserve">
<path d="M11,0c-4,0-4,14.4,0,14.4s9-2.7,9-7.2S15,0,11,0 M11.1,12.4C10.7,12,10,10.2,10,7.2s0.7-4.8,1.1-5.2C14,2.1,18,3.9,18,7.2
	S14,12.3,11.1,12.4 M0,0.2h7.5C7.3,0.6,7,1,6.9,1.6C6.8,1.8,6.8,2,6.7,2.2H0V0.2 M6,6.2H0v-2h6.2C6.1,4.8,6.1,5.5,6,6.2 M6.7,12.2
	c0.2,0.8,0.5,1.4,0.9,2H0.1v-2H6.7 M6.2,10.2H0v-2h6C6.1,8.9,6.1,9.6,6.2,10.2z"/>
</svg>
