<?xml version="1.0" encoding="utf-8"?>
<!-- Generator: Adobe Illustrator 27.2.0, SVG Export Plug-In . SVG Version: 6.00 Build 0)  -->
<svg version="1.1" id="Camada_1" xmlns="http://www.w3.org/2000/svg" xmlns:xlink="http://www.w3.org/1999/xlink" x="0px" y="0px"
	 viewBox="0 0 76.9 110.5" style="enable-background:new 0 0 76.9 110.5;" xml:space="preserve">
<path d="M0,38.4V27.9C0,25.7,1.7,24,3.8,24h4.3C11.4,10.3,23.7,0,38.4,0C57.7,0,73,17.5,69.1,37.5c-2.4,12.4-12.6,22.3-25,24.5
	c-10.6,1.8-20.4-1.6-27.2-8.2c-2.1-2.1-0.6-5.7,2.3-5.7h4.7c0.7,0,1.4,0.2,1.9,0.6c3.5,2.6,7.9,4.2,12.6,4.2
	c13.5,0,24.1-12.4,21.1-26.4c-1.8-8.6-9.1-15.3-17.8-16.6c-11.8-1.8-22.1,6.2-24.4,17c-0.2,1.1-1.2,2-2.3,2H9.6v4.8h19.5
	c2.7,0,4.8,2.2,4.8,4.8c0,2.7-2.2,4.8-4.8,4.8H4.8C2.2,43.2,0,41.1,0,38.4z M63.9,110.5H13c-7.2,0-13-5.8-13-13
	c0-16.7,13.6-30.3,30.3-30.3h16.4c16.7,0,30.3,13.6,30.3,30.3C76.9,104.7,71.1,110.5,63.9,110.5z M30.3,76.9
	c-11.4,0-20.6,9.3-20.6,20.6c0,1.9,1.5,3.4,3.4,3.4h50.9c1.9,0,3.4-1.5,3.4-3.4c0-11.4-9.3-20.6-20.6-20.6H30.3z"/>
</svg>
