<?xml version="1.0" encoding="utf-8"?>
<!-- Generator: Adobe Illustrator 27.2.0, SVG Export Plug-In . SVG Version: 6.00 Build 0)  -->
<svg version="1.1" id="Camada_1" xmlns="http://www.w3.org/2000/svg" xmlns:xlink="http://www.w3.org/1999/xlink" x="0px" y="0px"
	 viewBox="0 0 50 56" style="enable-background:new 0 0 50 56;" xml:space="preserve">
<path d="M0,1.6v39.3c0,0.3,0.1,0.5,0.3,0.7l13.5,13.5c0.7,0.7,1.8,0.2,1.8-0.7V15.1c0-0.3-0.1-0.5-0.3-0.7L1.7,0.9
	C1.1,0.2,0,0.7,0,1.6z"/>
<path d="M49.7,14.4L36.2,0.9c-0.7-0.7-1.8-0.2-1.8,0.7V31c6.7,0.4,12.1,6,12.1,12.8c0,2.7-0.9,5.3-2.3,7.3l4,4
	c0.7,0.7,1.8,0.2,1.8-0.7V15.1C50,14.8,49.9,14.5,49.7,14.4z"/>
<path d="M20.6,43.8c0-6.9,5.4-12.4,12.1-12.8V1.6c0-0.9-1.1-1.4-1.8-0.7L17.5,14.4c-0.2,0.2-0.3,0.5-0.3,0.7v39.3
	c0,0.9,1.1,1.4,1.8,0.7l4-4C21.5,49,20.6,46.5,20.6,43.8z"/>
<path d="M33.6,32.3c-6.3,0-11.5,5.1-11.5,11.5c0,6.3,5.1,11.5,11.5,11.5c6.3,0,11.5-5.1,11.5-11.5C45,37.4,39.9,32.3,33.6,32.3z
	 M33.6,50.8c-3.9,0-7-3.1-7-7h-0.9l1.8-2.7l1.7,2.7h-0.9c0,2.9,2.3,5.2,5.2,5.2c1.6,0,3.1-0.8,4.1-1.9l1.2,1.2
	C37.6,49.8,35.7,50.8,33.6,50.8z M39.6,46.5l-1.7-2.7h0.9c0-2.9-2.3-5.2-5.2-5.2c-1.6,0-3.1,0.8-4.1,1.9l-1.2-1.2
	c1.3-1.5,3.2-2.5,5.3-2.5c3.9,0,7,3.1,7,7h0.9L39.6,46.5z"/>
</svg>
