<?xml version="1.0" encoding="utf-8"?>
<!-- Generator: Adobe Illustrator 27.1.1, SVG Export Plug-In . SVG Version: 6.00 Build 0)  -->
<svg version="1.1" id="Camada_1" xmlns="http://www.w3.org/2000/svg" xmlns:xlink="http://www.w3.org/1999/xlink" x="0px" y="0px"
	 viewBox="0 0 107 121.5" style="enable-background:new 0 0 107 121.5;" xml:space="preserve">
<style type="text/css">
	.st0{fill-rule:evenodd;clip-rule:evenodd;}
</style>
<g>
	<rect x="48.3" y="43.1" class="st0" width="9.3" height="9.3"/>
	<path class="st0" d="M39,43.1h-1.6c-2.1,0-4,0.8-5.5,2.3s-2.3,3.4-2.3,5.5v1.6h9.3L39,43.1L39,43.1z"/>
	<rect x="48.3" y="80.3" class="st0" width="9.3" height="9.3"/>
	<path class="st0" d="M29.7,81.9c0,2.1,0.8,4,2.3,5.5c1.5,1.5,3.4,2.3,5.5,2.3h1.6v-9.3h-9.3v1.5H29.7z"/>
	<path class="st0" d="M29.7,71h32.6c2.6,0,4.7,2.1,4.7,4.7v14h1.6c2.1,0,4-0.8,5.5-2.3s2.3-3.4,2.3-5.5V61.7H29.7V71z"/>
	<path class="st0" d="M101.5,27.4L80,5.9c-3.5-3.5-8.3-5.5-13.3-5.5H18.8C8.4,0.4,0,8.8,0,19.2v83.3c0,10.4,8.4,18.8,18.8,18.8
		l69.3,0.2c10.4,0,18.9-8.4,18.9-18.8v-62C107,35.7,105,30.9,101.5,27.4z M85.5,81.9c0,4.5-1.8,8.9-5,12.1s-7.5,5-12.1,5h-31
		c-4.5,0-8.9-1.8-12.1-5c-3.2-3.2-5-7.5-5-12.1v-31c0-4.5,1.8-8.9,5-12.1c3.2-3.2,7.5-5,12.1-5h31c4.5,0,8.9,1.8,12.1,5
		c3.2,3.2,5,7.5,5,12.1V81.9z"/>
	<path class="st0" d="M68.4,43.1h-1.6v9.3h9.3v-1.6c0-2.1-0.8-4-2.3-5.5C72.5,43.9,70.5,43.1,68.4,43.1z"/>
</g>
</svg>
