<svg xmlns="http://www.w3.org/2000/svg" viewBox="0 0 23.33 26"><defs><style>.cls-1{fill-rule:evenodd;}</style></defs><g id="Camada_2" data-name="Camada 2"><g id="Camada_1-2" data-name="Camada 1"><g id="Icon"><path class="cls-1" d="M0,6.33V19.67A6.34,6.34,0,0,0,6.33,26H17a6.33,6.33,0,0,0,6.33-6.33V8.9A6.33,6.33,0,0,0,21,4L17.75,1.39A6.32,6.32,0,0,0,13.8,0H6.33A6.32,6.32,0,0,0,0,6.33Zm2,0A4.34,4.34,0,0,1,6.33,2H13.8a4.29,4.29,0,0,1,2.7,1l3.21,2.56A4.36,4.36,0,0,1,21.33,8.9V19.67A4.33,4.33,0,0,1,17,24H6.33A4.33,4.33,0,0,1,2,19.67Z"/><path class="cls-1" d="M4.67,17.67V11A3.67,3.67,0,0,1,8.33,7.33H15A3.69,3.69,0,0,1,18.67,11v6.67A3.67,3.67,0,0,1,15,21.33H8.33a3.65,3.65,0,0,1-3.66-3.66Zm12-4.34h-10v2h7a1,1,0,0,1,1,1v3H15a1.67,1.67,0,0,0,1.18-.48,1.7,1.7,0,0,0,.49-1.18V13.33Zm-6,4v2h2v-2Zm-4,0v.34a1.64,1.64,0,0,0,1.66,1.66h.34v-2Zm2-8H8.33a1.7,1.7,0,0,0-1.18.49A1.67,1.67,0,0,0,6.67,11v.33h2Zm2,2h2v-2h-2Zm4-2v2h2V11A1.67,1.67,0,0,0,15,9.33Z"/></g></g></g></svg>