<?xml version="1.0" encoding="utf-8"?>
<!-- Generator: Adobe Illustrator 26.2.1, SVG Export Plug-In . SVG Version: 6.00 Build 0)  -->
<svg version="1.1" id="Camada_1" xmlns="http://www.w3.org/2000/svg" xmlns:xlink="http://www.w3.org/1999/xlink" x="0px" y="0px"
	 viewBox="0 0 25.2 24.4" style="enable-background:new 0 0 25.2 24.4;" xml:space="preserve">
<style type="text/css">
	.st0{fill:#383838;}
</style>
<g>
	<g id="Icone_Relógio">
		<path id="Caminho_78" class="st0" d="M12.6,0.2c-6.6,0-12,5.4-12,12s5.4,12,12,12s12-5.4,12-12C24.6,5.6,19.2,0.2,12.6,0.2
			 M12.6,21.8c-5.3,0-9.6-4.3-9.6-9.6s4.3-9.6,9.6-9.6s9.6,4.3,9.6,9.6C22.2,17.5,17.9,21.8,12.6,21.8 M13.8,12.9l3,3l-1.7,1.7
			l-3.4-3.4c-0.2-0.2-0.3-0.5-0.3-0.8V5h2.4L13.8,12.9z"/>
	</g>
</g>
</svg>
