<?xml version="1.0" encoding="utf-8"?>
<!-- Generator: Adobe Illustrator 27.1.1, SVG Export Plug-In . SVG Version: 6.00 Build 0)  -->
<svg version="1.1" id="Camada_1" xmlns="http://www.w3.org/2000/svg" xmlns:xlink="http://www.w3.org/1999/xlink" x="0px" y="0px"
	 viewBox="0 0 122.4 123.6" style="enable-background:new 0 0 122.4 123.6;" xml:space="preserve">
<path d="M86.4,37.2C82.9,16.7,65,1.1,43.5,1.1C19.5,1.1,0,20.6,0,44.6c0,21.5,15.6,39.3,36.1,42.9c3.6,20.5,21.3,36.1,42.8,36.1
	c24,0,43.5-19.5,43.5-43.5C122.4,58.5,106.8,40.7,86.4,37.2z M78.9,112.6c-15.2,0-28.1-10.5-31.6-24.7c21-1.8,37.8-18.5,39.6-39.6
	c14.2,3.6,24.7,16.4,24.7,31.6C111.5,98.1,96.9,112.6,78.9,112.6z"/>
</svg>
