<?xml version="1.0" encoding="utf-8"?>
<!-- Generator: Adobe Illustrator 27.1.1, SVG Export Plug-In . SVG Version: 6.00 Build 0)  -->
<svg version="1.1" id="Camada_1" xmlns="http://www.w3.org/2000/svg" xmlns:xlink="http://www.w3.org/1999/xlink" x="0px" y="0px"
	 viewBox="0 0 140 142" style="enable-background:new 0 0 140 142;" xml:space="preserve">
<path d="M111.2,0.8H28.8C12.9,0.8,0,13.7,0,29.6v48.6C0,94.1,12.9,107,28.8,107h58.6c1,0,1.9,0.8,1.9,1.9v23.9
	c0,3.7,2.2,7.1,5.7,8.5c1.1,0.5,2.3,0.7,3.5,0.7c2.4,0,4.7-0.9,6.5-2.7l26.6-26.6c5.4-5.4,8.4-12.7,8.4-20.3V29.6
	C140,13.7,127.1,0.8,111.2,0.8z M130.3,92.3c0,5.1-2,9.9-5.6,13.5l-25.8,25.8v-22.8c0-6.3-5.2-11.5-11.5-11.5H28.8
	c-10.5,0-19.1-8.6-19.1-19.1V29.6c0-10.5,8.6-19.1,19.1-19.1h82.4c10.5,0,19.1,8.6,19.1,19.1V92.3z M111,34.6c0,2.7-2.2,4.8-4.8,4.8
	H33.8c-2.7,0-4.8-2.2-4.8-4.8s2.2-4.8,4.8-4.8h72.4C108.9,29.8,111,31.9,111,34.6z M111,53.9c0,2.7-2.2,4.8-4.8,4.8H33.8
	c-2.7,0-4.8-2.2-4.8-4.8s2.2-4.8,4.8-4.8h72.4C108.9,49.1,111,51.2,111,53.9z M111,73.2c0,2.7-2.2,4.8-4.8,4.8H33.8
	c-2.7,0-4.8-2.2-4.8-4.8s2.2-4.8,4.8-4.8h72.4C108.9,68.4,111,70.6,111,73.2z"/>
</svg>
