<?xml version="1.0" encoding="utf-8"?>
<!-- Generator: Adobe Illustrator 27.1.1, SVG Export Plug-In . SVG Version: 6.00 Build 0)  -->
<svg version="1.1" id="Camada_1" xmlns="http://www.w3.org/2000/svg" xmlns:xlink="http://www.w3.org/1999/xlink" x="0px" y="0px"
	 viewBox="0 0 127.8 102.8" style="enable-background:new 0 0 127.8 102.8;" xml:space="preserve">
<g>
	<path d="M116.3,21.2H95.9v-8.1c0-6.8-5.5-12.3-12.3-12.3H44.2c-6.8,0-12.3,5.5-12.3,12.3v8.1H11.5c-6.4,0-11.6,5.2-11.6,11.6v17.5
		c0,6.4,5.2,11.7,11.6,11.7H58v-9.3c0-1.3,1.1-2.4,2.4-2.4h6.9c1.3,0,2.4,1.1,2.4,2.4V62h46.5c6.4,0,11.6-5.2,11.6-11.6V32.9
		C127.9,26.4,122.7,21.2,116.3,21.2z M37.7,21.2v-8.1c0-3.6,2.9-6.5,6.5-6.5h39.4c3.6,0,6.5,2.9,6.5,6.5v8.1
		C90.1,21.2,37.7,21.2,37.7,21.2z"/>
	<path d="M116.3,67.8H69.7v3.4c0,1.3-1.1,2.4-2.4,2.4h-6.9c-1.3,0-2.4-1.1-2.4-2.4v-3.4H11.5C7,67.8,3,66.1-0.1,63.3V91
		c0,6.4,5.2,11.6,11.6,11.6h104.7c6.4,0,11.6-5.2,11.6-11.6V63.2C124.8,66,120.8,67.8,116.3,67.8z"/>
</g>
</svg>
