<?xml version="1.0" encoding="utf-8"?>
<!-- Generator: Adobe Illustrator 27.2.0, SVG Export Plug-In . SVG Version: 6.00 Build 0)  -->
<svg version="1.1" id="Camada_1" xmlns="http://www.w3.org/2000/svg" xmlns:xlink="http://www.w3.org/1999/xlink" x="0px" y="0px"
	 viewBox="0 0 20 24" style="enable-background:new 0 0 20 24;" xml:space="preserve">
<path d="M18.4,0H1.6C0.7,0,0,0.7,0,1.7v20.7C0,23.3,0.7,24,1.6,24H12c0.6,0,1.2-0.2,1.6-0.7l5.7-5.8c0.4-0.4,0.7-1,0.7-1.6V1.7
	C20,0.7,19.3,0,18.4,0z M18,15.8h-4.6c-0.1,0-0.2,0-0.3,0c-0.3,0.1-0.5,0.2-0.7,0.4c-0.1,0.1-0.2,0.3-0.3,0.5
	C12,16.9,12,17.1,12,17.3V22H2V2h16V15.8z M5,5.6h10v2H5V5.6z M5,10.7h10v2H5V10.7z M5,15.8h6v2H5V15.8z"/>
</svg>
