<?xml version="1.0" encoding="utf-8"?>
<!-- Generator: Adobe Illustrator 27.1.1, SVG Export Plug-In . SVG Version: 6.00 Build 0)  -->
<svg version="1.1" id="Camada_1" xmlns="http://www.w3.org/2000/svg" xmlns:xlink="http://www.w3.org/1999/xlink" x="0px" y="0px"
	 viewBox="0 0 117.2 118.8" style="enable-background:new 0 0 117.2 118.8;" xml:space="preserve">
<g>
	<path d="M115.6,64.8L99,48.2c3.4-4.9,5.4-10.9,5.4-17.4c0-17-13.8-30.7-30.7-30.7c-8.1,0-15.4,3.1-20.9,8.2H8.9
		C4,8.3,0,12.3,0,17.2v92.7c0,4.9,4,8.9,8.9,8.9h76.7c4.9,0,8.9-4,8.9-8.9V59.4l13.2,13.2c2.2,2.2,5.7,2.2,7.9,0
		C117.8,70.5,117.8,66.9,115.6,64.8z M73.7,11.2c10.8,0,19.6,8.8,19.6,19.6s-8.8,19.6-19.6,19.6s-19.6-8.8-19.6-19.6
		C54.1,20,62.9,11.2,73.7,11.2z M11.9,106.9V20.1h33C43.7,23.4,43,27,43,30.8c0,17,13.8,30.7,30.7,30.7c3.1,0,6.1-0.5,8.9-1.3v46.7
		H11.9z"/>
	<rect x="20.6" y="83.8" width="44.7" height="11.2"/>
	<rect x="20.6" y="67.1" width="44.7" height="11.2"/>
</g>
</svg>
