<?xml version="1.0" encoding="utf-8"?>
<!-- Generator: Adobe Illustrator 27.1.1, SVG Export Plug-In . SVG Version: 6.00 Build 0)  -->
<svg version="1.1" id="Camada_1" xmlns="http://www.w3.org/2000/svg" xmlns:xlink="http://www.w3.org/1999/xlink" x="0px" y="0px"
	 viewBox="0 0 104.5 118.8" style="enable-background:new 0 0 104.5 118.8;" xml:space="preserve">
<g>
	<path d="M79.4,48.4L56,25.1c-1.7-1.7-4-2.7-6.5-2.7H6.7c-3.7,0-6.7,3-6.7,6.7v83c0,3.7,3,6.7,6.7,6.7h68.6c3.7,0,6.7-3,6.7-6.7
		V54.9C82,52.5,81.1,50.2,79.4,48.4z M8.1,110.7V30.5h41.1v18.8c0,0.8,0.2,1.6,0.5,2.3c0.3,0.7,0.7,1.3,1.3,1.9
		c0.8,0.8,1.8,1.4,3,1.6c0.4,0.1,0.8,0.1,1.2,0.1H74v55.5H8.1z"/>
	<path d="M104.4,6.7c0-3.7-3-6.7-6.7-6.7H29.1c-3.7,0-6.7,3-6.7,6.7v6.1h8.1h30.8c1.4,0,2.7,0.5,3.6,1.5L91,40.4
		c1,1,1.5,2.3,1.5,3.6v44.3v8.1h5.3c3.7,0,6.7-3,6.7-6.7L104.4,6.7z"/>
</g>
</svg>
