<?xml version="1.0" encoding="utf-8"?>
<!-- Generator: Adobe Illustrator 26.3.1, SVG Export Plug-In . SVG Version: 6.00 Build 0)  -->
<svg version="1.1" id="Camada_1" xmlns="http://www.w3.org/2000/svg" xmlns:xlink="http://www.w3.org/1999/xlink" x="0px" y="0px"
	 viewBox="0 0 170 170" style="enable-background:new 0 0 170 170;" xml:space="preserve">
<path d="M41.3,110.8V71.1c0-2.3,1.9-4.2,4.2-4.2h3.9c2.3,0,4.2,1.9,4.2,4.2v39.7c0,2.3-1.9,4.2-4.2,4.2h-3.9
	C43.2,114.9,41.3,113.1,41.3,110.8z M70.5,114.9h3.9c2.3,0,4.2-1.9,4.2-4.2V71.1c0-2.3-1.9-4.2-4.2-4.2h-3.9c-2.3,0-4.2,1.9-4.2,4.2
	v39.7C66.3,113.1,68.2,114.9,70.5,114.9z M95.6,114.9h3.9c2.3,0,4.2-1.9,4.2-4.2V71.1c0-2.3-1.9-4.2-4.2-4.2h-3.9
	c-2.3,0-4.2,1.9-4.2,4.2v39.7C91.4,113.1,93.3,114.9,95.6,114.9z M120.6,114.9h3.9c2.3,0,4.2-1.9,4.2-4.2V71.1
	c0-2.3-1.9-4.2-4.2-4.2h-3.9c-2.3,0-4.2,1.9-4.2,4.2v39.7C116.4,113.1,118.3,114.9,120.6,114.9z M153.9,59.4v62.8h4.2
	c2.3,0,4.2,1.9,4.2,4.2v3.9c0,2.3-1.9,4.2-4.2,4.2H12c-2.3,0-4.2-1.9-4.2-4.2v-3.9c0-2.3,1.9-4.2,4.2-4.2h4.2V59.4H12
	c-2.3,0-4.2-1.9-4.2-4.2v-3.9c0-2.3,1.9-4.2,4.2-4.2h29.3v-5.3c0-2.3,1.9-4.2,4.2-4.2h3.9c2.3,0,4.2,1.9,4.2,4.2v5.3h62.8v-5.3
	c0-2.3,1.9-4.2,4.2-4.2h3.9c2.3,0,4.2,1.9,4.2,4.2v5.3H158c2.3,0,4.2,1.9,4.2,4.2v3.9c0,2.3-1.9,4.2-4.2,4.2H153.9z M141.4,59.4
	H28.6v62.8h112.7V59.4z"/>
</svg>
