<?xml version="1.0" encoding="utf-8"?>
<!-- Generator: Adobe Illustrator 27.1.1, SVG Export Plug-In . SVG Version: 6.00 Build 0)  -->
<svg version="1.1" id="Camada_1" xmlns="http://www.w3.org/2000/svg" xmlns:xlink="http://www.w3.org/1999/xlink" x="0px" y="0px"
	 viewBox="0 0 109 125.6" style="enable-background:new 0 0 109 125.6;" xml:space="preserve">
<path d="M109,8.2c0-4.1-3.3-7.4-7.4-7.4h-76c-4.1,0-7.4,3.3-7.4,7.4v10.7H7.4c-4.1,0-7.4,3.3-7.4,7.4v91.9c0,4.1,3.3,7.4,7.4,7.4h76
	c4.1,0,7.4-3.3,7.4-7.4v-10.7h10.7c4.1,0,7.4-3.3,7.4-7.4L109,8.2z M9,116.8V28h45.5v20.8c0,0.9,0.2,1.8,0.5,2.5
	c0.3,0.8,0.8,1.5,1.4,2.1c0.9,0.9,2,1.5,3.3,1.8c0.4,0.1,0.9,0.1,1.3,0.1h20.8v61.5H9z M90.9,98.6V55c0-2.7-1.1-5.3-3-7.2L62,22
	c-1.9-1.9-4.5-3-7.2-3H27.1V9.8H100v88.8H90.9z"/>
</svg>
