<?xml version="1.0" encoding="utf-8"?>
<!-- Generator: Adobe Illustrator 27.1.1, SVG Export Plug-In . SVG Version: 6.00 Build 0)  -->
<svg version="1.1" id="Camada_1" xmlns="http://www.w3.org/2000/svg" xmlns:xlink="http://www.w3.org/1999/xlink" x="0px" y="0px"
	 viewBox="0 0 114 115" style="enable-background:new 0 0 114 115;" xml:space="preserve">
<style type="text/css">
	.st0{fill-rule:evenodd;clip-rule:evenodd;}
</style>
<g>
	<path class="st0" d="M45.6,69.4H5.7c-3.2,0-5.7-2.6-5.7-5.7v-57C0,3.5,2.6,1,5.7,1h39.9c3.2,0,5.7,2.6,5.7,5.7v57
		C51.3,66.9,48.7,69.4,45.6,69.4z"/>
	<path class="st0" d="M108.3,115H68.4c-3.2,0-5.7-2.6-5.7-5.7v-57c0-3.2,2.6-5.7,5.7-5.7h39.9c3.2,0,5.7,2.6,5.7,5.7v57
		C114,112.5,111.5,115,108.3,115z"/>
	<path class="st0" d="M108.3,35.2H68.4c-3.2,0-5.7-2.6-5.7-5.7V6.7c0-3.2,2.6-5.7,5.7-5.7h39.9c3.2,0,5.7,2.6,5.7,5.7v22.8
		C114,32.6,111.5,35.2,108.3,35.2z"/>
	<path class="st0" d="M45.6,115H5.7c-3.2,0-5.7-2.6-5.7-5.7V86.5c0-3.2,2.6-5.7,5.7-5.7h39.9c3.2,0,5.7,2.6,5.7,5.7v22.8
		C51.3,112.5,48.7,115,45.6,115z"/>
</g>
</svg>
