<?xml version="1.0" encoding="UTF-8" standalone="no"?>
<svg xmlns="http://www.w3.org/2000/svg" xml:space="preserve" viewBox="0 0 512 512">
  <path d="M256.385 3.834a29.667 29.667 0 0 0-4.608.299A29.667 29.667 0 0 0 226.332 33.5v237.334a29.667 29.667 0 0 0 .264 1.996l-72.059-50.353a29.667 29.667 0 0 0-41.531 7.12 29.667 29.667 0 0 0 7.119 41.237l118.668 83.66a29.667 29.667 0 0 0 17.207 5.34 29.667 29.667 0 0 0 17.799-5.934l118.67-89a29.667 29.667 0 0 0-35.6-47.464l-71.232 53.63a29.667 29.667 0 0 0 .029-.232V33.498a29.667 29.667 0 0 0-29.281-29.664ZM48.332 389.5a29.602 29.602 0 0 0-29.668 29.668v59.334a29.79 29.79 0 0 0 1.328 8.842 29.457 29.457 0 0 0 2.244 5.322 29.636 29.636 0 0 0 3.186 4.729 29.696 29.696 0 0 0 1.914 2.103c.67.67 1.371 1.31 2.103 1.914a29.636 29.636 0 0 0 4.729 3.186 29.526 29.526 0 0 0 5.322 2.242 29.546 29.546 0 0 0 5.8 1.178c1 .1 2.015.15 3.042.15h415.336a29.786 29.786 0 0 0 8.842-1.326 29.46 29.46 0 0 0 5.322-2.244 29.634 29.634 0 0 0 4.729-3.186 29.693 29.693 0 0 0 2.103-1.914c.67-.67 1.31-1.371 1.914-2.103a29.635 29.635 0 0 0 3.186-4.729 29.531 29.531 0 0 0 2.242-5.322 29.534 29.534 0 0 0 1.178-5.8c.1-1 .152-2.015.152-3.042v-59.334a29.602 29.602 0 0 0-29.668-29.668A29.602 29.602 0 0 0 434 419.168v29.666H77.998v-29.666A29.602 29.602 0 0 0 48.332 389.5Z"/>
</svg>
