<?xml version="1.0" encoding="utf-8"?>
<!-- Generator: Adobe Illustrator 27.1.1, SVG Export Plug-In . SVG Version: 6.00 Build 0)  -->
<svg version="1.1" id="Camada_1" xmlns="http://www.w3.org/2000/svg" xmlns:xlink="http://www.w3.org/1999/xlink" x="0px" y="0px"
	 viewBox="0 0 118 118.2" style="enable-background:new 0 0 118 118.2;" xml:space="preserve">
<path d="M118,14.8c0,8.1-6.6,14.8-14.8,14.8S88.4,23,88.4,14.8S95,0,103.2,0S118,6.7,118,14.8z M103.2,44.3
	c-8.1,0-14.8,6.6-14.8,14.8s6.6,14.8,14.8,14.8S118,67.2,118,59.1S111.4,44.3,103.2,44.3z M59,0.1c-8.1,0-14.8,6.6-14.8,14.8
	S50.9,29.6,59,29.6S73.8,23,73.8,14.8S67.1,0.1,59,0.1z M14.8,0.1C6.7,0.1,0,6.7,0,14.9s6.6,14.8,14.8,14.8s14.8-6.6,14.8-14.8
	S22.9,0.1,14.8,0.1z M59,44.3c-8.1,0-14.8,6.6-14.8,14.8S50.8,73.9,59,73.9s14.8-6.6,14.8-14.8S67.1,44.3,59,44.3z M103.2,88.6
	c-8.1,0-14.8,6.6-14.8,14.8s6.6,14.8,14.8,14.8s14.8-6.7,14.8-14.9S111.4,88.6,103.2,88.6z"/>
</svg>
