<?xml version="1.0" encoding="utf-8"?>
<!-- Generator: Adobe Illustrator 27.1.1, SVG Export Plug-In . SVG Version: 6.00 Build 0)  -->
<svg version="1.1" id="Camada_1" xmlns="http://www.w3.org/2000/svg" xmlns:xlink="http://www.w3.org/1999/xlink" x="0px" y="0px"
	 viewBox="0 0 26.3 26.1" style="enable-background:new 0 0 26.3 26.1;" xml:space="preserve">
<g id="car-in-use_3_">
	<path d="M16.5,0C12.9,0,10,2.9,10,6.5s2.9,6.5,6.5,6.5S23,10.1,23,6.5S20.1,0,16.5,0z M13.8,10.5c0.6-0.9,1.6-1.6,2.8-1.6
		c1.2,0,2.2,0.6,2.8,1.6c-0.8,0.5-1.7,0.9-2.8,0.9S14.5,11.1,13.8,10.5z M15.7,5.7c0-0.5,0.4-0.8,0.8-0.8c0.5,0,0.8,0.4,0.8,0.8
		s-0.4,0.8-0.8,0.8C16.1,6.5,15.7,6.2,15.7,5.7z M20.5,9.4c-0.6-0.8-1.4-1.5-2.4-1.8C18.7,7.2,19,6.5,19,5.7c0-1.3-1.1-2.4-2.4-2.4
		s-2.4,1.1-2.4,2.4c0,0.8,0.4,1.4,0.9,1.9c-1,0.3-1.8,1-2.4,1.8c-0.6-0.8-0.9-1.8-0.9-2.8c0-2.7,2.2-4.9,4.9-4.9s4.9,2.2,4.9,4.9
		C21.4,7.6,21,8.6,20.5,9.4z"/>
	<g>
		<path d="M26.2,20.9L25.3,19c-0.1-0.2-0.3-0.4-0.6-0.5L18,17.1l-3.7-2c-0.6-0.4-1.7-0.5-2-0.5H7.6c-0.8,0-1.9,0.6-2.3,0.9
			c-0.6,0.3-1.7,1.3-2.2,1.6l-1.9,0.4c-0.4,0.1-0.6,0.4-0.6,0.8v2.3L0.2,23c-0.1,0.4,0.2,0.9,0.6,0.9l2.6,0.5h0.2
			C3.9,25.3,4.8,26,5.9,26s2-0.7,2.3-1.6h8.4c0.3,0.9,1.2,1.6,2.3,1.6s2-0.7,2.3-1.6h4.2c0.4,0,0.8-0.4,0.8-0.8v-2.4
			C26.3,21.1,26.2,21,26.2,20.9z M5.1,23.6c0-0.4,0.3-0.8,0.7-0.8c0,0,0,0,0.1,0c0,0,0,0,0.1,0c0.4,0,0.7,0.4,0.7,0.8
			s-0.4,0.8-0.8,0.8S5.1,24,5.1,23.6z M18.1,23.6c0-0.4,0.4-0.8,0.8-0.8l0,0l0,0c0.4,0,0.8,0.4,0.8,0.8s-0.4,0.8-0.8,0.8
			S18.1,24,18.1,23.6z M24.6,22.8h-3.4c-0.3-0.9-1.2-1.6-2.3-1.6c-1.1,0-2,0.7-2.3,1.6H8.2c-0.3-1-1.2-1.6-2.3-1.6s-2,0.7-2.3,1.6
			l-1.7-0.3l0.3-1.4h0.5c0.4,0,0.8-0.4,0.8-0.8s-0.4-0.8-0.8-0.8H2.3v-0.6l1.4-0.3c0.1,0,0.2-0.1,0.3-0.2c0.4-0.3,1.7-1.3,2.1-1.6
			c0.4-0.3,1.2-0.6,1.4-0.6h4.7c0.4,0,1,0.1,1.2,0.3l3.9,2c0.1,0,0.1,0.1,0.2,0.1l6.5,1.3l0.6,1.4V22.8z"/>
	</g>
</g>
</svg>
