<?xml version="1.0" encoding="utf-8"?>
<!-- Generator: Adobe Illustrator 27.2.0, SVG Export Plug-In . SVG Version: 6.00 Build 0)  -->
<svg version="1.1" id="Camada_1" xmlns="http://www.w3.org/2000/svg" xmlns:xlink="http://www.w3.org/1999/xlink" x="0px" y="0px"
	 viewBox="0 0 126.8 146" style="enable-background:new 0 0 126.8 146;" xml:space="preserve">
<g>
	<path d="M66.2,42.7c-6.5,0-11.8,5.3-11.8,11.8v0c0,6.5,5.3,11.8,11.8,11.8C72.7,66.3,78,61,78,54.5C78,48,72.7,42.7,66.2,42.7z"/>
	<path d="M104.4,0.6h-82C10.1,0.6,0,10.7,0,23v0v77.6C0,113,10.1,123,22.4,123l34.1,0v8.6H17.4c-2.9,0-5.3,2.4-5.3,5.3v3.1
		c0,2.9,2.4,5.3,5.3,5.3h92c2.9,0,5.3-2.4,5.3-5.3v-3.1c0-2.9-2.4-5.3-5.3-5.3H70.3V123l34.1,0c12.4,0,22.4-10.1,22.4-22.4V23
		C126.8,10.7,116.7,0.6,104.4,0.6z M113.1,100.6c0,3.6-2.2,6.7-5.3,8c-1,0.4-2.2,0.7-3.4,0.7h-82c-4.8,0-8.7-3.9-8.7-8.7V23
		c0-3.6,2.2-6.7,5.3-8c1-0.4,2.2-0.7,3.4-0.7h82c4.8,0,8.7,3.9,8.7,8.7V100.6z"/>
	<path d="M63.4,24.9c-20.4,0-36.9,16.5-36.9,36.9c0,20.4,16.5,36.9,36.9,36.9c20.4,0,36.9-16.5,36.9-36.9
		C100.3,41.4,83.8,24.9,63.4,24.9z M63.4,86.3c-13.5,0-24.5-11-24.5-24.5c0-13.5,11-24.5,24.5-24.5s24.5,11,24.5,24.5
		C87.9,75.3,76.9,86.3,63.4,86.3z"/>
</g>
</svg>
