<?xml version="1.0" encoding="utf-8"?>
<!-- Generator: Adobe Illustrator 27.2.0, SVG Export Plug-In . SVG Version: 6.00 Build 0)  -->
<svg version="1.1" id="Camada_1" xmlns="http://www.w3.org/2000/svg" xmlns:xlink="http://www.w3.org/1999/xlink" x="0px" y="0px"
	 viewBox="0 0 146 146" style="enable-background:new 0 0 146 146;" xml:space="preserve">
<path d="M92.1,145.3H53.9c-29.4,0-53.2-23.9-53.2-53.2V53.9c0-29.4,23.9-53.2,53.2-53.2h38.2c29.4,0,53.2,23.9,53.2,53.2v38.2
	C145.3,121.4,121.4,145.3,92.1,145.3z M53.9,17.5c-20.1,0-36.4,16.3-36.4,36.4v38.2c0,20.1,16.3,36.4,36.4,36.4h38.2
	c20.1,0,36.4-16.3,36.4-36.4V53.9c0-20.1-16.3-36.4-36.4-36.4H53.9z M49,50.2v45.6c0,4.9,5.3,8,9.6,5.5l38.9-22.8
	c4.2-2.5,4.2-8.5,0-11L58.6,44.7C54.4,42.2,49,45.3,49,50.2z"/>
</svg>
