<?xml version="1.0" encoding="UTF-8" standalone="no"?>
<svg xmlns="http://www.w3.org/2000/svg" xml:space="preserve" viewBox="0 0 512 512">
  <path d="M96.284 1.284c-3.352.046-6.466.434-8.522 1.2-7.014 2.677-14.283 9.69-17.726 17.215-11.732 25.76 16.577 52.795 41.827 39.788 10.584-5.483 16.578-15.558 16.578-27.672-.127-11.732-6.63-22.573-17.215-28.056-3.108-1.674-9.356-2.551-14.942-2.475zm112.18 67.461c-2.984.09-5.55.274-7.335.56-16.068 2.678-35.451 10.968-48.714 20.915l-7.395 5.355v103.803c0 82.762.382 103.676 1.657 102.91.765-.51 3.825-2.55 6.758-4.462 14.793-10.074 39.788-17.726 57.131-17.726 20.914.128 53.431 8.416 84.93 21.679 44.76 19 54.069 21.678 78.425 22.57 24.74 1.02 42.465-3.314 62.231-15.429l8.544-5.229V200.015c0-82.634-.382-103.546-1.53-102.781-.892.638-4.336 2.931-7.524 5.227-7.651 5.483-25.375 13.646-34.302 15.814-3.953 1.02-12.88 1.657-20.404 1.657-25.122-.382-45.91-6.759-83.91-26.27-28.183-14.41-43.995-20.53-60.19-23.464-6.695-1.147-19.417-1.722-28.371-1.453zM96.722 84.042a16.034 16.034 0 0 0-6.026 1.459c-2.168.893-5.357 3.7-7.015 5.994l-3.06 4.336v403.226l3.57 4.59c4.08 5.355 11.096 8.035 17.855 6.76 6.376-1.148 13.262-9.056 14.282-16.325.383-3.06.637-93.728.381-201.485-.382-195.619-.381-196.002-3.06-199.445-4.494-6.12-10.782-9.373-16.927-9.11z"/>
</svg>
