<?xml version="1.0" encoding="utf-8"?>
<!-- Generator: Adobe Illustrator 27.1.1, SVG Export Plug-In . SVG Version: 6.00 Build 0)  -->
<svg version="1.1" id="Camada_1" xmlns="http://www.w3.org/2000/svg" xmlns:xlink="http://www.w3.org/1999/xlink" x="0px" y="0px"
	 viewBox="0 0 86.6 122.8" style="enable-background:new 0 0 86.6 122.8;" xml:space="preserve">
<path d="M82.9,35.8L77.5,5.9C76.9,2.5,73.9,0,70.4,0H16.2c-3.5,0-6.5,2.5-7.1,5.9L3.7,35.8C1.6,36.3,0,38.1,0,40.3v21.1
	c0,2.2,1.6,4,3.7,4.5l5.4,29.9c0.6,3.4,3.6,5.9,7.1,5.9h22v16c0,2.8,2.3,5.1,5.1,5.1s5.1-2.3,5.1-5.1v-16h22c3.5,0,6.5-2.5,7.1-5.9
	l5.4-29.9c2.1-0.5,3.7-2.3,3.7-4.5V40.3C86.6,38,85,36.3,82.9,35.8z M81.9,35.6c0.2,0,0.4,0.1,0.6,0.1
	C82.3,35.6,82.1,35.6,81.9,35.6L81.9,35.6z M77.8,57.3h-69V44.4h68.9L77.8,57.3L77.8,57.3z M4.7,35.6L4.7,35.6
	c-0.2,0-0.4,0.1-0.6,0.1C4.3,35.6,4.5,35.6,4.7,35.6z M4.7,66.1c-0.1,0-0.2,0-0.2,0C4.6,66.1,4.6,66.1,4.7,66.1L4.7,66.1z
	 M81.9,66.1L81.9,66.1c0.1,0,0.1,0,0.2,0C82,66.1,82,66.1,81.9,66.1z"/>
</svg>
