<svg width="27" height="27" viewBox="0 0 27 27" xmlns="http://www.w3.org/2000/svg">
<path id="Vector" d="M13.5 0C13.3486 0.000918133 13.1977 0.0171134 13.0496 0.0483398L13.0474 0.0461426L1.83252 2.28955L1.83032 2.29175C1.31598 2.3894 0.851784 2.66335 0.517692 3.06643C0.183601 3.46951 0.00052631 3.97647 0 4.5V22.5C0.000111876 23.0242 0.183266 23.532 0.517838 23.9355C0.85241 24.3391 1.3174 24.6132 1.83252 24.7104L13.0474 26.9539C13.1963 26.9845 13.3479 27 13.5 27C14.0967 27 14.669 26.7629 15.091 26.341C15.5129 25.919 15.75 25.3467 15.75 24.75V2.25C15.75 1.65326 15.5129 1.08097 15.091 0.65901C14.669 0.237053 14.0967 0 13.5 0ZM18 2.25V5.625H20.25V7.875H18V10.125H20.25V12.375H18V14.625H20.25V16.875H18V19.125H20.25V21.375H18V24.75H24.75C25.9931 24.75 27 23.7431 27 22.5V4.5C27 3.25688 25.9931 2.25 24.75 2.25H18ZM22.5 5.625H23.625C24.246 5.625 24.75 6.129 24.75 6.75C24.75 7.371 24.246 7.875 23.625 7.875H22.5V5.625ZM3.58374 7.875H6.28638L7.68604 11.239C7.79966 11.5135 7.89052 11.8315 7.97827 12.1926H8.01562C8.06625 11.9755 8.16585 11.6458 8.31885 11.2126L9.8833 7.875H12.3442L9.4043 13.4495L12.4321 19.1228H9.8064L8.1145 15.4578C8.05038 15.3284 7.97535 15.0674 7.91235 14.7063H7.88818C7.84993 14.8795 7.77442 15.1409 7.65967 15.4885L5.95679 19.125H3.31787L6.44897 13.4934L3.58374 7.875ZM22.5 10.125H23.625C24.246 10.125 24.75 10.629 24.75 11.25C24.75 11.871 24.246 12.375 23.625 12.375H22.5V10.125ZM22.5 14.625H23.625C24.246 14.625 24.75 15.129 24.75 15.75C24.75 16.371 24.246 16.875 23.625 16.875H22.5V14.625ZM22.5 19.125H23.625C24.246 19.125 24.75 19.629 24.75 20.25C24.75 20.871 24.246 21.375 23.625 21.375H22.5V19.125Z" />
</svg>
