<?xml version="1.0" encoding="utf-8"?>
<!-- Generator: Adobe Illustrator 25.3.1, SVG Export Plug-In . SVG Version: 6.00 Build 0)  -->
<svg version="1.1" id="Camada_1" xmlns="http://www.w3.org/2000/svg" xmlns:xlink="http://www.w3.org/1999/xlink" x="0px" y="0px"
	 viewBox="0 0 36.3 42.6" style="enable-background:new 0 0 36.3 42.6;" xml:space="preserve">
<path id="Icone_Exportzr" d="M32.4,1.3h-22c-1.3,0-2.4,1.1-2.4,2.4v3.8h-4c-1.3,0-2.4,1.1-2.4,2.7v28.7c0,1.3,1.1,2.4,2.4,2.4h22
	c1.3,0,2.4-1.1,2.4-2.4v-3.8h4c1.3,0,2.4-1.1,2.4-2.4V3.7C34.8,2.4,33.7,1.3,32.4,1.3z M25.3,38.2H4.6V10.8h20.4v27.3H25.3z
	 M12.8,23.9h-4l6-7.3l6,7.3h-3.8v8.4h-4.2V23.9z"/>
</svg>
