<?xml version="1.0" encoding="utf-8"?>
<!-- Generator: Adobe Illustrator 27.1.1, SVG Export Plug-In . SVG Version: 6.00 Build 0)  -->
<svg version="1.1" id="Camada_1" xmlns="http://www.w3.org/2000/svg" xmlns:xlink="http://www.w3.org/1999/xlink" x="0px" y="0px"
	 viewBox="0 0 137.6 116.4" style="enable-background:new 0 0 137.6 116.4;" xml:space="preserve">
<path d="M137.6,18.4c0-9.3-7.6-16.9-16.9-16.9c-7.8,0-14.2,5.3-16.2,12.4H33.2C31.2,6.8,24.7,1.5,17,1.5C7.7,1.5,0.1,9.1,0.1,18.4
	c0,7.8,5.3,14.2,12.4,16.2v48.7c-7.1,2-12.4,8.5-12.4,16.2c0,9.3,7.6,16.9,16.9,16.9c8,0,14.6-5.6,16.4-13l48.7-7.8
	c2.2,6.8,8.5,11.8,16,11.8c9.3,0,16.9-7.6,16.9-16.9c0-5.7-2.9-10.7-7.2-13.8l16.1-41.8C131.7,33.5,137.6,26.6,137.6,18.4z
	 M120.7,10.5c4.4,0,7.9,3.5,7.9,7.9s-3.5,7.9-7.9,7.9s-7.9-3.5-7.9-7.9S116.3,10.5,120.7,10.5z M9,18.4c0-4.4,3.5-7.9,7.9-7.9
	s7.9,3.5,7.9,7.9s-3.5,7.9-7.9,7.9S9,22.7,9,18.4z M16.9,107.5c-4.4,0-7.9-3.5-7.9-7.9s3.5-7.9,7.9-7.9s7.9,3.5,7.9,7.9
	C24.8,103.9,21.3,107.5,16.9,107.5z M98.1,98.4c-4.4,0-7.9-3.5-7.9-7.9s3.5-7.9,7.9-7.9s7.9,3.5,7.9,7.9S102.5,98.4,98.1,98.4z
	 M98.1,73.6c-8,0-14.6,5.6-16.4,13L33,94.4c-1.7-5.4-6-9.6-11.5-11.1V34.6c5.7-1.6,10.1-6,11.7-11.7h71.3c1.4,5.1,5.2,9.3,10.1,11.2
	L99.3,73.7C98.9,73.7,98.5,73.6,98.1,73.6z"/>
</svg>
