<?xml version="1.0" encoding="utf-8"?>
<!-- Generator: Adobe Illustrator 26.0.3, SVG Export Plug-In . SVG Version: 6.00 Build 0)  -->
<svg version="1.1" id="Camada_1" xmlns="http://www.w3.org/2000/svg" xmlns:xlink="http://www.w3.org/1999/xlink" x="0px" y="0px"
	 viewBox="0 0 43.5 43.5" style="enable-background:new 0 0 43.5 43.5;" xml:space="preserve">
<path id="icon_fim" d="M21.7,1.9c-10.9,0-19.8,8.9-19.8,19.8s8.9,19.8,19.8,19.8s19.8-8.9,19.8-19.8S32.7,1.9,21.7,1.9z M29.7,26.5
	c0,1.7-1.4,3.2-3.2,3.2l0,0H17c-1.7,0-3.2-1.4-3.2-3.2V17c0-1.7,1.4-3.2,3.2-3.2c0,0,0,0,0,0h9.5c1.7,0,3.2,1.4,3.2,3.2V26.5z"/>
</svg>
