<?xml version="1.0" encoding="UTF-8" standalone="no"?>
<svg xmlns="http://www.w3.org/2000/svg" xml:space="preserve" viewBox="0 0 512 512">
  <path fill-rule="evenodd" d="M90.39 445.425c40.334 35.3 92.041 57.949 148.883 61.69l-.067-67.294c-38.353-3.473-73.334-18.673-101.302-41.994Zm331.286-.05-47.58-47.497c-27.985 23.303-62.982 38.504-101.335 41.943l.067 67.277c56.808-3.758 108.516-26.407 148.848-61.724zM4.893 272.852C8.668 329.678 31.318 381.369 66.651 421.7l47.513-47.58C90.81 346.12 75.594 311.139 72.12 272.786Zm502.214-.1-67.177.066c-3.473 38.37-18.723 73.368-42.078 101.352l47.547 47.463c35.317-40.332 57.966-92.04 61.708-148.882zM256.034 105.028c83.383 0 151.096 67.663 151.096 150.996 0 83.333-67.713 150.996-151.096 150.996-83.4 0-151.097-67.663-151.097-150.996 0-83.333 67.696-150.996 151.097-150.996zm-16.727 67.11h-.05c-27.784 0-50.333 22.548-50.333 50.331 0 27.784 22.549 50.333 50.332 50.333h33.555c9.261 0 16.777 7.516 16.777 16.777 0 9.261-7.516 16.777-16.777 16.777h-50.332c-9.261 0-16.777 7.516-16.777 16.778 0 9.26 7.516 16.777 16.777 16.777h16.828v16.777c0 9.261 7.516 16.778 16.777 16.778 9.261 0 16.777-7.517 16.777-16.778v-16.777c27.75-.034 50.282-22.566 50.282-50.332 0-27.783-22.566-50.332-50.332-50.332h-33.555c-9.26 0-16.777-7.516-16.777-16.778 0-9.26 7.516-16.777 16.777-16.777h50.332c9.261 0 16.778-7.516 16.778-16.777 0-9.261-7.517-16.778-16.778-16.778h-16.727v-16.777c0-9.261-7.516-16.777-16.777-16.777-9.261 0-16.777 7.516-16.777 16.777zM66.567 90.381c-35.316 40.35-57.949 92.075-61.674 148.916l67.244-.067c3.456-38.353 18.69-73.334 42.044-101.318Zm378.799-.067-47.497 47.598c23.354 27.984 38.605 62.982 42.061 101.352l67.177-.068c-3.759-56.824-26.408-108.532-61.741-148.882ZM239.172 4.885C182.347 8.643 130.64 31.31 90.29 66.66l47.631 47.547c27.985-23.32 62.965-38.52 101.318-41.977zm33.555 0 .067 67.344c38.353 3.456 73.334 18.64 101.335 41.96l47.514-47.597c-40.35-35.316-92.058-57.966-148.916-61.707Z" clip-rule="evenodd"/>
</svg>
