<?xml version="1.0" encoding="utf-8"?>
<!-- Generator: Adobe Illustrator 27.1.1, SVG Export Plug-In . SVG Version: 6.00 Build 0)  -->
<svg version="1.1" id="Camada_1" xmlns="http://www.w3.org/2000/svg" xmlns:xlink="http://www.w3.org/1999/xlink" x="0px" y="0px"
	 viewBox="0 0 101.2 123.5" style="enable-background:new 0 0 101.2 123.5;" xml:space="preserve">
<path d="M97.4,33.6H78.7V22.4c0-6.2-5-11.2-11.2-11.2H11.3V5.6C11.3,2.5,8.8,0,5.7,0S0.1,2.5,0.1,5.6v112.3c0,3.1,2.5,5.6,5.6,5.6
	s5.6-2.5,5.6-5.6V68.3c0-0.6,0.5-1,1-1h28.9c5.9,0,8.7,7.2,4.5,11.2l0,0c-4.3,4-1.4,11.2,4.5,11.2h42.3c4.8,0,8.7-3.9,8.7-8.7V37.3
	C101.1,35.3,99.5,33.6,97.4,33.6z"/>
</svg>
