<?xml version="1.0" encoding="utf-8"?>
<!-- Generator: Adobe Illustrator 27.1.1, SVG Export Plug-In . SVG Version: 6.00 Build 0)  -->
<svg version="1.1" id="Camada_1" xmlns="http://www.w3.org/2000/svg" xmlns:xlink="http://www.w3.org/1999/xlink" x="0px" y="0px"
	 viewBox="0 0 108.2 121.6" style="enable-background:new 0 0 108.2 121.6;" xml:space="preserve">
<path d="M69.3,19.9L68.1,3.6c-0.1-1.7-1.6-3-3.3-3H3.3C1.5,0.6,0,2.1,0,3.9v114.4c0,1.8,1.5,3.3,3.3,3.3h3.1c1.8,0,3.3-1.5,3.3-3.3
	v-50h43.6l1.3,13.2c0.2,1.7,1.6,3,3.3,3h47c1.8,0,3.3-1.5,3.3-3.3v-58c0-1.8-1.5-3.3-3.3-3.3C104.9,19.9,69.3,19.9,69.3,19.9z
	 M62,58.7H11.3V10.3h46.1L62,58.7z M73.9,64.7l-3.3-35.1h26.3v43.6H65.2l-0.5-4.8h6C72.6,68.3,74.1,66.7,73.9,64.7z"/>
</svg>
