<?xml version="1.0" encoding="UTF-8" standalone="no"?>
<svg xmlns="http://www.w3.org/2000/svg" xml:space="preserve" viewBox="0 0 512 512">
  <g transform="translate(-122.207 73.674)">
    <path fill="#fff" d="M378.21-68.338c-108.828 0-197.05 88.223-197.05 197.05 0 48.584 17.663 92.985 46.813 127.343L378.208 432.99l150.232-176.94c29.15-34.353 46.813-78.76 46.813-127.344.005-108.821-88.217-197.044-197.045-197.044Zm0 271.302c-44.758 0-81.037-36.28-81.037-81.037 0-44.757 36.279-81.037 81.036-81.037 44.758 0 81.037 36.28 81.037 81.037 0 44.758-36.28 81.037-81.037 81.037z"/>
    <circle cx="256" cy="204" r="171.961" transform="translate(122.207 -73.674)"/>
    <path fill="#fff" d="M296.27-3.432c-1.72.024-3.317.228-4.372.63-3.598 1.406-7.327 5.088-9.093 9.04-6.019 13.527 8.504 27.724 21.458 20.894 5.43-2.88 8.504-8.17 8.504-14.532-.065-6.16-3.401-11.853-8.831-14.733-1.595-.879-4.8-1.34-7.666-1.3zm57.55 35.425c-1.53.048-2.847.144-3.763.294-8.243 1.407-18.187 5.76-24.99 10.983l-3.794 2.813v54.51c0 43.46.196 54.443.85 54.04.392-.268 1.962-1.339 3.467-2.343 7.589-5.29 20.411-9.308 29.309-9.308 10.729.067 27.41 4.42 43.57 11.384 22.962 9.977 27.738 11.384 40.233 11.852 12.692.536 21.785-1.74 31.925-8.102l4.384-2.746v-54.443c0-43.394-.196-54.375-.785-53.973-.458.335-2.225 1.539-3.86 2.745-3.925 2.879-13.018 7.165-17.598 8.304-2.028.536-6.607.87-10.467.87-12.888-.2-23.553-3.55-43.047-13.795-14.459-7.567-22.57-10.78-30.879-12.322-3.434-.602-9.96-.904-14.554-.763zm-57.325 8.033a8.226 8.42 0 0 0-3.091.766c-1.113.47-2.749 1.943-3.6 3.148l-1.569 2.277v211.745l1.831 2.41c2.094 2.813 5.693 4.22 9.16 3.55 3.271-.603 6.804-4.755 7.327-8.572.197-1.607.327-49.22.196-105.806-.196-102.725-.196-102.926-1.57-104.734-2.306-3.214-5.532-4.922-8.684-4.784z"/>
  </g>
</svg>
