<?xml version="1.0" encoding="utf-8"?>
<!-- Generator: Adobe Illustrator 27.1.1, SVG Export Plug-In . SVG Version: 6.00 Build 0)  -->
<svg version="1.1" id="Camada_1" xmlns="http://www.w3.org/2000/svg" xmlns:xlink="http://www.w3.org/1999/xlink" x="0px" y="0px"
	 viewBox="0 0 24.7 27.5" style="enable-background:new 0 0 24.7 27.5;" xml:space="preserve">
<g>
	<path d="M21.8,9.4V4.7h-1.6l-1.3-1.3V1.5c0-0.8-0.7-1.5-1.5-1.5H1.7C0.9,0,0.2,0.7,0.2,1.5V26c0,0.8,0.7,1.5,1.5,1.5h15.6
		c0.8,0,1.5-0.7,1.5-1.5v-7.3h0.5c0.8,0,0.8,0.8,0.8,0.8v3.1c0,1.6,0.8,2.3,2.3,2.3s2.3-0.8,2.3-2.3c0-1.8,0-7,0-8.6
		S21.8,11,21.8,9.4z M17,25.6H2.2v-11h14.6v11H17z M17,12.6H2.2V2h14.6v10.6H17z M23.3,22.6c0,0.8-0.8,0.8-0.8,0.8s-0.8,0-0.8-0.8
		c0,0,0-3.1,0-3.9s-0.8-1.6-1.6-1.6c-0.4,0-1,0-1.3,0V7.8h1.3c0,0,0,1.3,0,2.3c0,1.6,3.1,3.1,3.1,4.7L23.3,22.6L23.3,22.6z"/>
	<path d="M6,10.3h7.7c0.5,0,0.9-0.4,0.9-0.9V5.2c0.1-0.5-0.3-0.9-0.9-0.9H6c-0.5,0-0.9,0.4-0.9,0.9v4.1C5,9.9,5.5,10.3,6,10.3z"/>
</g>
</svg>
