<?xml version="1.0" encoding="iso-8859-1"?>
<!-- Generator: Adobe Illustrator 16.0.0, SVG Export Plug-In . SVG Version: 6.00 Build 0)  -->
<!DOCTYPE svg PUBLIC "-//W3C//DTD SVG 1.1//EN" "http://www.w3.org/Graphics/SVG/1.1/DTD/svg11.dtd">
<svg version="1.1" id="Capa_1" xmlns="http://www.w3.org/2000/svg" xmlns:xlink="http://www.w3.org/1999/xlink" x="0px" y="0px"
	 width="792px" height="792px" viewBox="0 0 792 792" style="enable-background:new 0 0 792 792;" xml:space="preserve">
<g>
	<g id="Shape_30">
		<g>
			<path d="M475.704,244.208H190.642c-50.439,0-89.952,41.379-89.952,94.193v365.03c0,51.311,37.822,88.569,89.952,88.569h368.17
				c52.734,0,91.013-37.245,91.013-88.569V123.963h-174.12V244.208z M502.48,150.685h120.54v552.746
				c0,36.413-26.413,61.847-64.223,61.847H190.642c-37.769,0-63.163-24.857-63.163-61.847v-365.03
				c0-38.466,27.152-67.471,63.163-67.471h311.853V150.685H502.48z M436.755,0v105.253h254.556V0H436.755z M664.507,78.53H463.531
				V26.723h200.976V78.53z M365.097,697.498c73.577,0,133.438-59.713,133.438-133.13c0-69.443-111.038-189.084-123.681-202.493
				l-9.757-10.335l-9.758,10.335c-12.657,13.408-123.694,133.062-123.694,202.493C231.658,637.785,291.519,697.498,365.097,697.498z
				 M365.097,390.799c36.883,41.07,106.648,128.136,106.648,173.569c0,58.68-47.849,106.407-106.648,106.407
				c-58.814,0-106.662-47.728-106.662-106.407C258.435,518.936,328.214,431.869,365.097,390.799z"/>
		</g>
	</g>
</g>
<g>
</g>
<g>
</g>
<g>
</g>
<g>
</g>
<g>
</g>
<g>
</g>
<g>
</g>
<g>
</g>
<g>
</g>
<g>
</g>
<g>
</g>
<g>
</g>
<g>
</g>
<g>
</g>
<g>
</g>
</svg>
