<?xml version="1.0" encoding="utf-8"?>
<!-- Generator: Adobe Illustrator 27.1.1, SVG Export Plug-In . SVG Version: 6.00 Build 0)  -->
<svg version="1.1" id="Camada_1" xmlns="http://www.w3.org/2000/svg" xmlns:xlink="http://www.w3.org/1999/xlink" x="0px" y="0px"
	 viewBox="0 0 109.8 123.9" style="enable-background:new 0 0 109.8 123.9;" xml:space="preserve">
<path d="M95.9,42.9V22.1H89l-5.8-5.8V7.8c0-3.7-3-6.7-6.7-6.7H6.7C3,1.1,0,4.1,0,7.8v50.6h83.2V36H89c0,0,0,5.8,0,10.4
	c0,6.9,13.9,13.9,13.9,20.8v34.7c0,3.5-3.5,3.5-3.5,3.5s-3.5,0-3.5-3.5c0,0,0-13.9,0-17.4s-3.5-6.9-6.9-6.9c-1.6,0-4.3,0-5.8,0V67.3
	H0v49.9c0,3.7,3,6.7,6.7,6.7h69.8c3.7,0,6.7-3,6.7-6.7V84.5h2.3C89,84.5,89,88,89,88v13.9c0,6.9,3.5,10.4,10.4,10.4
	s10.4-3.5,10.4-10.4c0-8.1,0-31.2,0-38.2C109.8,56.8,95.9,49.9,95.9,42.9z M62,39.1c0,2.3-1.9,4.2-4.2,4.2H23.2
	c-2.3,0-4.2-1.9-4.2-4.2V20.8c0-2.3,1.9-4.2,4.2-4.2h34.6c2.3,0,4.2,1.9,4.2,4.2V39.1z"/>
</svg>
