<?xml version="1.0" encoding="UTF-8" standalone="no"?>
<svg xmlns="http://www.w3.org/2000/svg" xml:space="preserve" viewBox="0 0 512 512">
  <path d="M392.43 55.234v5.896l20.513 20.514L306.97 183.968l-92.958-83.072a10.662 10.662 0 0 0-13.809-.365L91.322 188.075a10.69 10.69 0 0 0-1.653 15.024c3.711 4.575 10.425 5.307 15.02 1.606l101.842-81.851 93.607 83.64a10.673 10.673 0 0 0 7.126 2.704c2.674 0 5.337-.996 7.4-2.988L428.029 96.75l22.8 22.77h5.897V55.233ZM6.175 100.45v356.317h499.648v-30.74H36.907V100.449Zm405.181 46.09c-11.73 0-21.337 9.617-21.337 21.348v237.99h69.348v-237.99c0-11.731-9.596-21.348-21.337-21.348zm-220.633 42.715c-11.726 0-21.332 9.596-21.332 21.347v195.276h69.317V210.601c0-11.751-9.575-21.347-21.327-21.347zm-110.34 42.695c-11.726 0-21.317 9.616-21.317 21.347v152.581h69.338v-152.58c0-11.732-9.597-21.348-21.348-21.348zm220.659 0c-11.73 0-21.348 9.616-21.348 21.347v152.581h69.339v-152.58c0-11.732-9.576-21.348-21.317-21.348z"/>
</svg>
