<?xml version="1.0" encoding="utf-8"?>
<!-- Generator: Adobe Illustrator 27.1.1, SVG Export Plug-In . SVG Version: 6.00 Build 0)  -->
<svg version="1.1" id="Camada_1" xmlns="http://www.w3.org/2000/svg" xmlns:xlink="http://www.w3.org/1999/xlink" x="0px" y="0px"
	 viewBox="0 0 24 24.3" style="enable-background:new 0 0 24 24.3;" xml:space="preserve">
<g id="sale-car_00000148658475239187819070000006275831267376377985_">
	<path d="M21,0.3h-9c-0.4,0-0.8,0.2-1.1,0.4l-3,3C7.8,3.8,7.7,4,7.6,4.1c-3.5,0.6-6.1,3.7-6.1,7.4V13c0,0.4,0.3,0.7,0.7,0.7
		c0.4,0,0.7-0.3,0.7-0.7v-1.5c0-2.9,2.1-5.3,4.8-5.9c0,0.1,0.1,0.1,0.1,0.2l3,3c0.3,0.3,0.7,0.4,1.1,0.4h9c0.8,0,1.5-0.7,1.5-1.5v-6
		C22.5,1,21.8,0.3,21,0.3z M21,7.8h-9l-3-3l3-3h9V7.8z"/>
	<path d="M23.9,19.6l-0.8-1.8c-0.1-0.2-0.3-0.4-0.5-0.4l-6.3-1.3l-3.4-1.9c-0.6-0.4-1.6-0.4-1.9-0.4H6.7c-0.7,0-1.8,0.5-2.1,0.8
		c-0.4,0.3-1.5,1.2-1.9,1.5L1,16.5c-0.3,0.1-0.6,0.4-0.6,0.7v2.1L0,21.5c-0.1,0.4,0.2,0.8,0.6,0.9L3,22.8h0.1
		c0.3,0.9,1.1,1.5,2.1,1.5s1.8-0.6,2.1-1.5h7.8c0.3,0.9,1.1,1.5,2.1,1.5s1.8-0.6,2.1-1.5h3.9c0.4,0,0.7-0.3,0.7-0.7v-2.2
		C24,19.8,24,19.7,23.9,19.6z M4.5,22c0-0.4,0.3-0.7,0.7-0.7c0,0,0,0,0.1,0c0,0,0,0,0.1,0c0.4,0,0.7,0.3,0.7,0.7
		c0,0.4-0.3,0.7-0.7,0.7C4.8,22.8,4.5,22.5,4.5,22z M16.5,22c0-0.4,0.3-0.7,0.7-0.7l0,0l0,0c0.4,0,0.7,0.3,0.7,0.7
		c0,0.4-0.3,0.7-0.7,0.7S16.5,22.5,16.5,22z M22.5,21.3h-3.1c-0.3-0.9-1.1-1.5-2.1-1.5s-1.8,0.6-2.1,1.5H7.4
		c-0.3-0.9-1.1-1.5-2.1-1.5s-1.8,0.6-2.1,1.5L1.7,21l0.2-1.2h0.4c0.4,0,0.7-0.3,0.7-0.7c0-0.4-0.3-0.7-0.7-0.7H1.9v-0.5l1.3-0.3
		c0.1,0,0.2-0.1,0.3-0.1C3.9,17.2,5,16.3,5.4,16s1.1-0.5,1.3-0.5H11c0.4,0,0.9,0.1,1.1,0.2l3.6,1.9c0.1,0,0.1,0.1,0.2,0.1l6,1.2
		l0.6,1.3C22.5,20.2,22.5,21.3,22.5,21.3z"/>
</g>
<path d="M19,6l-1.3-1.3L19,3.5c0.3-0.3,0.3-0.7,0-1s-0.7-0.3-1,0l-1.3,1.3l-1.3-1.3c-0.3-0.3-0.7-0.3-1,0s-0.3,0.7,0,1l1.3,1.3
	l-1.3,1.3c-0.3,0.3-0.3,0.7,0,1s0.7,0.3,1,0l1.3-1.3L18,7.1c0.3,0.3,0.7,0.3,1,0S19.3,6.3,19,6z"/>
</svg>
