<?xml version="1.0" encoding="utf-8"?>
<!-- Generator: Adobe Illustrator 26.3.1, SVG Export Plug-In . SVG Version: 6.00 Build 0)  -->
<svg version="1.1" id="Camada_1" xmlns="http://www.w3.org/2000/svg" xmlns:xlink="http://www.w3.org/1999/xlink" x="0px" y="0px"
	 viewBox="0 0 170 170" style="enable-background:new 0 0 170 170;" xml:space="preserve">
<g>
	<path id="XMLID_323_" d="M110.9,135c0.5,0.5,0.3,1.4-0.4,1.7c-42.3,13.5-88-8.3-102.1-49.1c-0.4-1.2-0.4-2.4,0-3.6
		c4.1-11.8,10.9-22.2,19.7-30.6c0.3-0.3,0.9-0.3,1.2,0L53,77c0.2,0.2,0.2,0.4,0.2,0.6c-6.1,23.9,16.2,46.1,39.9,40
		c0.3-0.1,0.5,0,0.7,0.2C95.7,119.8,107.2,131.3,110.9,135z"/>
	<path id="XMLID_325_" d="M132.6,125.7c13.2-9.3,23.5-22.4,28.9-38.1c0.4-1.2,0.4-2.4,0-3.6C150.6,52.2,119.9,30.9,85,30.9
		c-13.6,0-26.6,3.3-38,9.1L17.5,10.5c-2.1-2.1-5.6-2.1-7.8,0s-2.1,5.6,0,7.8L152.5,161c2.1,2.1,5.6,2.1,7.8,0c2.1-2.1,2.1-5.6,0-7.8
		L132.6,125.7z M85,52.8c18.2,0,32.9,14.8,32.9,32.9c0,7.1-2.3,13.7-6.1,19.1L65.9,59C71.3,55.1,77.9,52.8,85,52.8z"/>
</g>
</svg>
