<?xml version="1.0" encoding="utf-8"?>
<!-- Generator: Adobe Illustrator 27.2.0, SVG Export Plug-In . SVG Version: 6.00 Build 0)  -->
<svg version="1.1" id="Camada_1" xmlns="http://www.w3.org/2000/svg" xmlns:xlink="http://www.w3.org/1999/xlink" x="0px" y="0px"
	 viewBox="0 0 86.5 86.4" style="enable-background:new 0 0 86.5 86.4;" xml:space="preserve">
<g>
	<path d="M44.5,78.8C34.3,89,17.8,89,7.6,78.8s-10.2-26.7,0-36.9l9.4-9.4c10.2-10.2,26.7-10.2,36.9,0c2.1,2.1,2.1,5.5,0,7.6
		c-2.1,2.1-5.5,2.1-7.6,0c-5.9-5.9-15.6-5.9-21.5,0l-9.5,9.5c-5.9,5.9-5.9,15.6,0,21.5s15.6,5.9,21.5,0c2.1-2.1,5.5-2.1,7.6,0
		C46.6,73.3,46.5,76.7,44.5,78.8z"/>
	<path d="M78.8,44.4l-9.4,9.4C59.3,64,42.7,64,32.5,53.8c-2.1-2.1-2.1-5.5,0-7.6s5.5-2.1,7.6,0c5.9,5.9,15.6,5.9,21.5,0l9.4-9.4
		c5.9-5.9,5.9-15.6,0-21.5c-5.9-5.9-15.6-5.9-21.5,0c-2.1,2.1-5.5,2.1-7.6,0c-2.1-2.1-2.1-5.5,0-7.6c10.2-10.2,26.7-10.2,36.9,0
		S89,34.3,78.8,44.4z"/>
</g>
</svg>
