<?xml version="1.0" encoding="utf-8"?>
<!-- Generator: Adobe Illustrator 26.0.3, SVG Export Plug-In . SVG Version: 6.00 Build 0)  -->
<svg version="1.1" id="Camada_1" xmlns="http://www.w3.org/2000/svg" xmlns:xlink="http://www.w3.org/1999/xlink" x="0px" y="0px"
	 viewBox="0 0 170 170" style="enable-background:new 0 0 170 170;" xml:space="preserve">
<path d="M85,20.3c-36.2,0-65.5,29.3-65.5,65.5c0,36.2,29.3,65.5,65.5,65.5s65.5-29.3,65.5-65.5C150.5,49.6,121.2,20.3,85,20.3z
	 M77.7,41.2c0-2.7,2.2-4.9,4.9-4.9h4.9c2.7,0,4.9,2.2,4.9,4.9v42.1c0,2.7-2.2,4.9-4.9,4.9h-4.9c-2.7,0-4.9-2.2-4.9-4.9V41.2z
	 M79.3,134c-21.8-2.5-39.6-20-42.4-41.7C34.2,71.1,45,51.6,63,42.5c2.3-1.1,5,0.5,5,3.1v8.2c0,1.7-0.9,3.2-2.3,4.2
	C56.7,64.1,51,74.3,51,85.8c0,21,19.2,37.6,40.9,33.3c13.5-2.7,24.3-13.8,26.5-27.5c2.3-13.7-3.7-26.5-14.2-33.7
	c-1.4-1-2.3-2.5-2.3-4.2v-8.2c0-2.5,2.7-4.2,5-3.1c16.2,8.1,26.6,24.6,26.6,43.3C133.5,114.4,108.6,137.3,79.3,134z"/>
</svg>
