<?xml version="1.0" encoding="utf-8"?>
<!-- Generator: Adobe Illustrator 26.3.1, SVG Export Plug-In . SVG Version: 6.00 Build 0)  -->
<svg version="1.1" id="Camada_1" xmlns="http://www.w3.org/2000/svg" xmlns:xlink="http://www.w3.org/1999/xlink" x="0px" y="0px"
	 viewBox="0 0 170 170" style="enable-background:new 0 0 170 170;" xml:space="preserve">
<path d="M77.2,82.9V37.4c0-2.9,2.3-5.2,5.2-5.2h5.2c2.9,0,5.2,2.3,5.2,5.2v45.5c0,2.9-2.3,5.2-5.2,5.2h-5.2
	C79.5,88.1,77.2,85.8,77.2,82.9z M108.7,38.8c-2.4-1.2-5.4,0.6-5.4,3.3v8.8c0,1.8,1,3.5,2.5,4.5c11.4,7.8,17.8,21.5,15.3,36.3
	c-2.4,14.7-14,26.7-28.6,29.6C69,126,48.4,108.1,48.4,85.5c0-12.3,6.1-23.4,15.8-30.1c1.5-1,2.5-2.7,2.5-4.5v-8.8
	c0-2.7-2.9-4.5-5.4-3.3c-19.4,9.8-31.1,30.8-28.2,53.7c3,23.4,22.3,42.3,45.7,44.9c31.6,3.6,58.5-21.1,58.5-52
	C137.3,65.4,126.1,47.6,108.7,38.8z"/>
</svg>
