<?xml version="1.0" encoding="utf-8"?>
<!-- Generator: Adobe Illustrator 27.1.1, SVG Export Plug-In . SVG Version: 6.00 Build 0)  -->
<svg version="1.1" id="Camada_1" xmlns="http://www.w3.org/2000/svg" xmlns:xlink="http://www.w3.org/1999/xlink" x="0px" y="0px"
	 viewBox="0 0 93.2 100" style="enable-background:new 0 0 93.2 100;" xml:space="preserve">
<path d="M23.3,43.7v50.7c0,3.1-2.5,5.6-5.6,5.6H5.6C2.5,100,0,97.5,0,94.4V43.7c0-3.1,2.5-5.6,5.6-5.6h12.1
	C20.8,38.1,23.3,40.6,23.3,43.7z M52.6,50.5h-12c-3.1,0-5.6,2.5-5.6,5.6v38.3c0,3.1,2.5,5.6,5.6,5.6h12c3.1,0,5.6-2.5,5.6-5.6V56.1
	C58.2,53,55.7,50.5,52.6,50.5z M87.6,1H75.5c-3.1,0-5.6,2.5-5.6,5.6v87.8c0,3.1,2.5,5.6,5.6,5.6h12.1c3.1,0,5.6-2.5,5.6-5.6V6.6
	C93.2,3.5,90.7,1,87.6,1z"/>
</svg>
