<?xml version="1.0" encoding="utf-8"?>
<!-- Generator: Adobe Illustrator 27.2.0, SVG Export Plug-In . SVG Version: 6.00 Build 0)  -->
<svg version="1.1" id="Camada_1" xmlns="http://www.w3.org/2000/svg" xmlns:xlink="http://www.w3.org/1999/xlink" x="0px" y="0px"
	 viewBox="0 0 141.7 141.7" style="enable-background:new 0 0 141.7 141.7;" xml:space="preserve">
<g>
	<path d="M70.8,0.3C31.9,0.3,0.3,31.9,0.3,70.8s31.6,70.5,70.5,70.5s70.5-31.6,70.5-70.5S109.7,0.3,70.8,0.3z M80.4,99.3
		c0.1,4.3-3.2,7.8-7.5,7.9s-7.8-3.2-7.9-7.5c0-0.1,0-0.3,0-0.4V68.4c0.1-4.3,3.7-7.6,7.9-7.5c4.1,0.1,7.4,3.4,7.5,7.5V99.3z
		 M79.8,46.1c-0.4,0.9-0.9,1.8-1.6,2.5c-3.1,2.9-7.9,2.9-11,0c-0.7-0.7-1.2-1.6-1.6-2.5c-0.8-1.9-0.8-4,0-5.9
		c0.4-0.9,0.9-1.8,1.6-2.5c3-2.9,7.9-3,10.9,0c1.5,1.5,2.3,3.5,2.3,5.5C80.4,44.2,80.2,45.2,79.8,46.1z"/>
</g>
</svg>
