<?xml version="1.0" encoding="utf-8"?>
<!-- Generator: Adobe Illustrator 26.0.3, SVG Export Plug-In . SVG Version: 6.00 Build 0)  -->
<svg version="1.1" id="Camada_1" xmlns="http://www.w3.org/2000/svg" xmlns:xlink="http://www.w3.org/1999/xlink" x="0px" y="0px"
	 viewBox="0 0 43.5 43.5" style="enable-background:new 0 0 43.5 43.5;" xml:space="preserve">
<path id="icone_inicio" d="M21.7,1.9c-10.9,0-19.8,8.9-19.8,19.8s8.9,19.8,19.8,19.8s19.8-8.9,19.8-19.8S32.7,1.9,21.7,1.9z
	 M30.7,23.6l-11.1,7.6c-1.2,0.7-2.7,0.4-3.4-0.7c-0.3-0.4-0.4-1-0.4-1.5V14.5c-0.1-1.4,1-2.5,2.3-2.6c0.5,0,1,0.1,1.5,0.4l11.1,7.6
	c1,0.8,1.2,2.3,0.4,3.3C31,23.4,30.9,23.5,30.7,23.6L30.7,23.6z"/>
</svg>
