<?xml version="1.0" encoding="utf-8"?>
<!-- Generator: Adobe Illustrator 27.5.0, SVG Export Plug-In . SVG Version: 6.00 Build 0)  -->
<svg version="1.1" id="Camada_1" xmlns="http://www.w3.org/2000/svg" xmlns:xlink="http://www.w3.org/1999/xlink" x="0px" y="0px"
	 viewBox="0 0 114.8 127.5" style="enable-background:new 0 0 114.8 127.5;" xml:space="preserve">
<path d="M76.1,0.1C58.5,0.1,43.6,11.8,38.9,28H13.6c-2.8,0-5.3,2-5.8,4.8L3.5,57c-1.7,0.4-3,1.8-3,3.6v17.1c0,1.8,1.3,3.2,3,3.6
	l4.4,24.2c0.5,2.8,2.9,4.8,5.8,4.8h17.8v13c0,2.3,1.8,4.1,4.1,4.1c2.3,0,4.1-1.8,4.1-4.1v-13h17.8c2.8,0,5.3-2,5.8-4.8l4.4-24.2
	c1.7-0.4,3-1.8,3-3.6v-0.7c1.8,0.3,3.6,0.4,5.5,0.4c21.4,0,38.7-17.3,38.7-38.7C114.8,17.4,97.5,0.1,76.1,0.1z M15.8,36.5h21.7
	c0,0.8-0.1,1.5-0.1,2.3c0,6.5,1.6,12.6,4.5,18H12.1L15.8,36.5z M55.2,101.9H15.8l-3.7-20.4h46.8L55.2,101.9z M7.7,74.4V64h39.1
	c3.8,4.5,8.7,8.1,14.2,10.4H7.7z M70.5,59.1l5.1-16.2L61.2,41l21.3-22.5l-3.2,15.9l12.5,2.1L70.5,59.1z"/>
</svg>
