<?xml version="1.0" encoding="UTF-8" standalone="no"?>
<svg xmlns="http://www.w3.org/2000/svg" xml:space="preserve" viewBox="0 0 512 512">
  <path d="M455.512 85.29a51.607 51.607 0 0 0-37.127 15.318c-19.983 20.165-19.983 52.5.05 72.666 6.712 6.772 15.865 11.865 25.221 14.004 6.051 1.425 17.29 1.324 23.34-.204 36.865-9.319 51.66-53.062 27.863-82.597-8.135-10.134-20.592-17.162-33.406-18.791a51.47 51.47 0 0 0-5.941-.397zm-265.037 5.152c-97.41-.052-144.322.103-146.522.513-14.273 2.308-26.86 11.64-33.357 24.819-3.07 6.204-4.503 11.64-4.912 18.46-.358 6.154.359 11.077 2.507 17.538 5.014 15.23 18.88 27.382 34.944 30.613 3.683.77 17.7.82 148.619.717l144.527-.155 3.737-1.177c8.032-2.462 14.17-6.052 19.95-11.59 15.554-14.87 18.47-40.51 6.704-58.56-7.009-10.718-17.191-17.742-29.623-20.409-2.814-.615-26.143-.77-146.574-.77ZM456.563 204.5c-5.485 0-11.746.512-14.998 1.406-19.08 5.16-33.364 20.642-37.547 40.62-.817 3.934-.817 14.97 0 18.904 3.877 18.7 16.731 33.57 33.974 39.496 6.326 2.146 11.123 2.81 18.826 2.504 8.469-.307 13.009-1.38 20.15-4.752 14.081-6.642 24.335-19.314 28.212-34.795 1.632-6.387 1.632-17.422 0-23.809-5-19.926-20.356-34.743-40.405-38.984-1.913-.402-4.922-.589-8.212-.59zm-268.444 5.047-144.015.104-3.94 1.127c-16.832 4.82-28.7 16.82-33.254 33.537-1.586 5.897-1.586 17.228 0 23.074 4.451 16.46 17.138 29.076 33.817 33.742l4.912 1.332H333.67l4.553-1.18c13.864-3.538 25.171-12.614 31.054-24.972 2.865-6.051 4.043-10.87 4.4-17.793.461-9.487-1.023-16.408-5.474-24.92-6.19-11.897-18.52-20.924-32.129-23.385-3.325-.615-26.807-.717-147.955-.666zm270.465 114.174c-5.163-.088-12.565.446-15.96 1.324-11.956 2.952-23.657 11.047-30.27 20.871-16.127 23.975-9.87 56.195 14.04 72.127 15.466 10.282 34.543 11.504 51.381 3.207 18.366-9.01 29.76-28.557 28.54-49.07-.814-13.03-5.747-24.025-15.057-33.39-7.885-7.941-16.942-12.625-28.49-14.762-.992-.179-2.463-.278-4.184-.307zm-270.783 5.064-142.48.051-4.913 1.334c-8.953 2.513-15.756 6.563-21.998 13.127a45.72 45.72 0 0 0-12.586 33.996c1.075 20.922 15.35 38.152 36.018 43.434 3.274.872 11.92.924 148.006.924h144.527l4.606-1.18c16.115-4.102 28.393-15.948 33.304-32.203 1.28-4.205 1.432-5.283 1.432-13.026 0-7.743-.153-8.87-1.381-12.972-4.656-15.23-15.144-26.203-29.775-31.074-2.558-.82-6.344-1.744-8.442-2-2.302-.308-60.369-.462-146.318-.41z"/>
</svg>
