<?xml version="1.0" encoding="utf-8"?>
<!-- Generator: Adobe Illustrator 27.1.1, SVG Export Plug-In . SVG Version: 6.00 Build 0)  -->
<svg version="1.1" id="Camada_1" xmlns="http://www.w3.org/2000/svg" xmlns:xlink="http://www.w3.org/1999/xlink" x="0px" y="0px"
	 viewBox="0 0 124 89.5" style="enable-background:new 0 0 124 89.5;" xml:space="preserve">
<path d="M93.2,21H78.9l8.9-8.9c2.7-2.7,2.7-7,0-9.7s-7-2.7-9.7,0L58,22.6c-2.9,2.9-2.9,7.6,0,10.5l20.1,20.1c1.3,1.3,3.1,2,4.8,2
	c1.8,0,3.5-0.7,4.8-2c2.7-2.7,2.7-7,0-9.7l-8.9-8.9h14.3c9.9,0,17.8,10.1,17.1,22.2c-0.7,10.7-10,18.9-20.8,18.9H35.5
	c-9.8,0-18.7-6.6-20.7-16.2C12.2,46.4,22.3,34.7,35,34.7l0,0c3.8,0,6.8-3.1,6.8-6.8c0-3.8-3.1-6.8-6.8-6.8l0,0
	C14.6,21.1-1.6,39,1.1,59.8c2.2,17.3,17.7,29.7,35.1,29.7h52.3c18.9,0,35.6-15.5,35.5-34.4C124,36.3,110.2,21,93.2,21z"/>
</svg>
