<?xml version="1.0" encoding="utf-8"?>
<!-- Generator: Adobe Illustrator 27.1.1, SVG Export Plug-In . SVG Version: 6.00 Build 0)  -->
<svg version="1.1" id="Camada_1" xmlns="http://www.w3.org/2000/svg" xmlns:xlink="http://www.w3.org/1999/xlink" x="0px" y="0px"
	 viewBox="0 0 88.6 112" style="enable-background:new 0 0 88.6 112;" xml:space="preserve">
<path d="M72.1,1H16.5C7.3,1-0.1,8.4-0.1,17.4v78.2c0,9,7.5,16.4,16.6,16.4H72c9.2,0,16.6-7.4,16.6-16.4V17.4C88.7,8.4,81.2,1,72.1,1
	z M48.4,80.1H24c-2.6,0-4.6-2.1-4.6-4.6c0-2.6,2.1-4.6,4.6-4.6h24.3c2.6,0,4.6,2.1,4.6,4.6C53,78.1,50.9,80.1,48.4,80.1z M64.6,59.8
	H24c-2.6,0-4.6-2.1-4.6-4.6c0-2.6,2.1-4.6,4.6-4.6h40.6c2.6,0,4.6,2.1,4.6,4.6C69.2,57.8,67.1,59.8,64.6,59.8z M64.6,39.6H24
	c-2.6,0-4.6-2.1-4.6-4.6c0-2.6,2.1-4.6,4.6-4.6h40.6c2.6,0,4.6,2.1,4.6,4.6C69.2,37.5,67.1,39.6,64.6,39.6z"/>
</svg>
