<?xml version="1.0" encoding="utf-8"?>
<!-- Generator: Adobe Illustrator 27.2.0, SVG Export Plug-In . SVG Version: 6.00 Build 0)  -->
<svg version="1.1" id="Camada_1" xmlns="http://www.w3.org/2000/svg" xmlns:xlink="http://www.w3.org/1999/xlink" x="0px" y="0px"
	 viewBox="0 0 146.6 146" style="enable-background:new 0 0 146.6 146;" xml:space="preserve">
<path d="M145.7,79.6V66.4l-21.1-5.3c-1.3-5.8-3.6-11.1-6.6-16l11.2-18.7l-9.3-9.3l-18.7,11.2c-4.9-3-10.2-5.3-16-6.6L79.9,0.6H66.7
	l-5.3,21.1c-5.7,1.3-11.1,3.6-16,6.6L26.7,17.1l-9.3,9.3l11.2,18.7c-3,4.9-5.3,10.2-6.6,16L0.9,66.4v13.2L22,84.9
	c1.3,5.7,3.6,11.1,6.6,16l-11.2,18.7l9.3,9.3l18.7-11.2c4.9,3,10.2,5.3,16,6.6l5.3,21.1h13.2l5.3-21.1c5.7-1.3,11.1-3.6,16-6.6
	l18.7,11.2l9.3-9.3l-11.2-18.7c3-4.9,5.3-10.2,6.6-16L145.7,79.6z M40.4,73c0-18.2,14.7-32.9,32.9-32.9s32.9,14.7,32.9,32.9
	s-14.7,32.9-32.9,32.9S40.4,91.2,40.4,73z"/>
</svg>
