<?xml version="1.0" encoding="utf-8"?>
<!-- Generator: Adobe Illustrator 27.1.1, SVG Export Plug-In . SVG Version: 6.00 Build 0)  -->
<svg version="1.1" id="Camada_1" xmlns="http://www.w3.org/2000/svg" xmlns:xlink="http://www.w3.org/1999/xlink" x="0px" y="0px"
	 viewBox="0 0 102.8 105.7" style="enable-background:new 0 0 102.8 105.7;" xml:space="preserve">
<path d="M3.4,1.4l25.8,25.8c0.4,0.4,0.6,0.9,0.6,1.4v75.2c0,1.8-2.1,2.6-3.4,1.4L0.6,79.4C0.2,79,0,78.5,0,78V2.8
	C0.1,1,2.2,0.1,3.4,1.4z M102.2,27.2L76.4,1.4C75.2,0.2,73,1,73,2.8v40.1C86.5,45,96.8,56.7,96.8,70.7c0,8.5-4.2,16.3-9.2,22.7
	l11.8,11.8c1.2,1.2,3.4,0.4,3.4-1.4V28.6C102.7,28.1,102.5,27.6,102.2,27.2z M91.2,71.1c0,17.6-22.6,32.6-22.6,32.6S46,88.6,46,71.1
	c0-12.5,10.1-22.6,22.6-22.6S91.2,58.7,91.2,71.1z M76.1,71.1c0-4.2-3.4-7.5-7.5-7.5c-4.2,0-7.5,3.4-7.5,7.5c0,4.2,3.4,7.5,7.5,7.5
	C72.7,78.7,76.1,75.3,76.1,71.1z M40.4,70.7c0-14.8,11.4-26.9,25.9-28.1V2.8c0-1.8-2.1-2.6-3.4-1.4L37.1,27.2
	c-0.4,0.4-0.6,0.9-0.6,1.4v75.2c0,1.8,2.1,2.6,3.4,1.4l10.6-10.6C45.1,88,40.4,79.7,40.4,70.7z"/>
</svg>
