<?xml version="1.0" encoding="utf-8"?>
<!-- Generator: Adobe Illustrator 27.1.1, SVG Export Plug-In . SVG Version: 6.00 Build 0)  -->
<svg version="1.1" id="Camada_1" xmlns="http://www.w3.org/2000/svg" xmlns:xlink="http://www.w3.org/1999/xlink" x="0px" y="0px"
	 viewBox="0 0 135 135" style="enable-background:new 0 0 135 135;" xml:space="preserve">
<path d="M72.8,135c-1.3,0-2.5-0.4-3.6-1.3L56.6,123c-1.9-1.6-2.5-4.4-1.4-6.7l4.7-9.4l-7.6-10.6c-0.8-1.1-1.2-2.5-1-3.9l1.1-9.5
	l-4.5-2.3c-1.6-0.8-2.7-2.3-3-4.1l-1-6.6l-24.2-5.7c-0.7-0.2-1.4-0.5-2-0.9L2.2,51.9c-2.3-1.7-2.9-4.8-1.5-7.3l6.2-10.3
	c1-1.7,2.8-2.7,4.7-2.7h2.1l-1.4-12.5c-0.3-2.5,1.1-4.8,3.4-5.7L46.7,1c1.5-0.6,3.3-0.5,4.8,0.3s2.5,2.3,2.7,3.9l1.3,7.7h8.1L68,6
	c1.5-2.4,4.5-3.2,7.1-2l11.3,5.4c1.9,0.9,3.1,2.9,3.1,5v6.1l39.4,11.2c2,0.6,3.6,2.3,3.9,4.4l2.1,12.4c0.4,2.2-0.7,4.5-2.6,5.6
	l-12.5,7.6l4.2,7.9c0.8,1.6,0.9,3.5,0.1,5l-10.3,20.7c-0.5,1-1.3,1.8-2.3,2.4l-18.1,9.8l1.8,3.5c1.1,2.2,0.6,4.9-1.2,6.6l-17.4,15.9
	C75.5,134.5,74.2,135,72.8,135z M67.1,117.4l5.6,4.7l10.7-9.8l-2.3-4.5c-1.3-2.7-0.3-5.9,2.3-7.3l21.2-11.6l8.3-16.6l-5.3-9.9
	c-1.4-2.6-0.5-5.8,2-7.3l13.7-8.3l-0.9-5.3l-40-11.4c-2.4-0.7-4-2.9-4-5.4l0.1-6.8l-3.7-1.8l-3.3,5.3c-1,1.6-2.8,2.6-4.7,2.6H51
	c-2.7,0-5-1.9-5.4-4.6l-0.9-5.6L24,22.1l1.5,14.4c0.2,1.6-0.3,3.1-1.4,4.3c-1,1.2-2.5,1.8-4.1,1.8h-5.1l-2,3.3l10.5,7.7l26.8,6.3
	c2.2,0.5,3.9,2.3,4.2,4.6l1.1,7.5l5.4,2.7c2.1,1,3.3,3.3,3,5.6l-1.3,11.2l8.4,11.6c1.2,1.7,1.4,3.9,0.5,5.7L67.1,117.4z"/>
</svg>
