<?xml version="1.0" encoding="utf-8"?>
<!-- Generator: Adobe Illustrator 27.1.1, SVG Export Plug-In . SVG Version: 6.00 Build 0)  -->
<svg version="1.1" id="Camada_1" xmlns="http://www.w3.org/2000/svg" xmlns:xlink="http://www.w3.org/1999/xlink" x="0px" y="0px"
	 viewBox="0 0 131.8 139.3" style="enable-background:new 0 0 131.8 139.3;" xml:space="preserve">
<g>
	<g>
		<path d="M99.3,69.3c4.5,0,8.8,0.8,12.7,2.3c1.3-4.8,2-9.6,2-14.6c0-31.5-25.5-57-57-57S0,25.5,0,57c0,44.3,57,82.3,57,82.3
			s5.3-3.5,12.6-9.6c-4.9-6.3-7.8-14.3-7.8-22.9C61.8,86,78.6,69.3,99.3,69.3z M38,56.9c0-10.5,8.5-19,19-19s19,8.5,19,19
			s-8.5,19-19,19S38,67.4,38,56.9z"/>
	</g>
	<g>
		<path d="M99.3,74.3c-18,0-32.5,14.6-32.5,32.5c0,18,14.6,32.5,32.5,32.5s32.5-14.6,32.5-32.5C131.8,88.8,117.2,74.3,99.3,74.3z
			 M108.2,122.3l-13.6-13.6V88.2h9.3v16.7l10.9,10.9L108.2,122.3z"/>
	</g>
</g>
</svg>
