<?xml version="1.0" encoding="utf-8"?>
<svg version="1.1" xmlns="http://www.w3.org/2000/svg" xmlns:xlink="http://www.w3.org/1999/xlink" x="0px" y="0px" viewBox="0 0 92.7 112.4" style="enable-background:new 0 0 92.7 112.4;" xml:space="preserve">
  <path d="M46.6-0.2C21.2-0.2,0.5,20.5,0.5,45.9c0,35.8,46.1,66.5,46.1,66.5s46.1-30.7,46.1-66.5C92.7,20.5,72.1-0.2,46.6-0.2z
		 M46.6,98.4C33.2,87.8,11.9,66.5,11.9,45.9c0-19.2,15.6-34.7,34.7-34.7c19.2,0,34.7,15.6,34.7,34.7C81.4,66.5,60,87.8,46.6,98.4z
		 M62,45.9c0,8.5-6.9,15.4-15.4,15.4c-8.5,0-15.4-6.9-15.4-15.4c0-8.5,6.9-15.4,15.4-15.4C55.1,30.5,62,37.4,62,45.9z"/>
</svg>
