<?xml version="1.0" encoding="utf-8"?>
<!-- Generator: Adobe Illustrator 27.2.0, SVG Export Plug-In . SVG Version: 6.00 Build 0)  -->
<svg version="1.1" id="Camada_1" xmlns="http://www.w3.org/2000/svg" xmlns:xlink="http://www.w3.org/1999/xlink" x="0px" y="0px"
	 viewBox="0 0 109.2 113.3" style="enable-background:new 0 0 109.2 113.3;" xml:space="preserve">
<style type="text/css">
	.st0{fill:#383838;}
</style>
<path id="icone_atualização" class="st0" d="M55.1,106.7c-5.2,4.2-8.7,6.6-8.7,6.6S0.2,82.5,0.2,46.5C0.2,21,20.9,0.3,46.4,0.3
	S92.6,21,92.6,46.5c0,2.5-0.2,5-0.7,7.5c-3-0.8-6.1-1.3-9.2-1.3c-0.7,0-1.4,0.1-2.2,0.1c0.4-2.1,0.7-4.2,0.7-6.3
	c0-19.3-15.6-34.9-34.9-34.9s-34.8,15.7-34.8,35c0,20.7,21.4,42,34.9,52.7c1.1-0.9,2.4-1.9,3.6-3C51.1,100,52.8,103.6,55.1,106.7z
	 M46.3,31.2c-8.5,0-15.4,6.9-15.4,15.4S37.8,62,46.3,62s15.4-6.9,15.4-15.4C61.8,38.1,54.9,31.2,46.3,31.2L46.3,31.2L46.3,31.2z
	 M109.2,86.8c0,14.6-11.9,26.5-26.5,26.5s-26.5-11.9-26.5-26.5s11.9-26.5,26.5-26.5S109.2,72.2,109.2,86.8L109.2,86.8z M95.3,94.1
	l-8.9-8.9V71.7h-7.6v16.7l11.1,11.1L95.3,94.1z"/>
</svg>
