<?xml version="1.0" encoding="utf-8"?>
<!-- Generator: Adobe Illustrator 27.2.0, SVG Export Plug-In . SVG Version: 6.00 Build 0)  -->
<svg version="1.1" id="Camada_1" xmlns="http://www.w3.org/2000/svg" xmlns:xlink="http://www.w3.org/1999/xlink" x="0px" y="0px"
	 viewBox="0 0 110.5 106" style="enable-background:new 0 0 110.5 106;" xml:space="preserve">
<g>
	<path d="M101,0.8H9.5C4.3,0.8,0,5.1,0,10.3v14.7c0,5.2,4.3,9.5,9.5,9.5H14V63c0,22.8,18.5,41.3,41.3,41.3
		c22.8,0,41.3-18.5,41.3-41.3V34.6h4.4c5.2,0,9.5-4.3,9.5-9.5V10.3C110.5,5.1,106.2,0.8,101,0.8z M83.7,63
		c0,15.7-12.8,28.5-28.5,28.5h0c-15.7,0-28.5-12.8-28.5-28.5V34.6h56.9V63z M97.7,21.8h-1.1H14h-1.1v-8.1h84.8V21.8z"/>
	<path d="M55.2,86.5c13,0,23.5-10.5,23.5-23.5c0-13-10.5-23.5-23.5-23.5c-13,0-23.5,10.5-23.5,23.5C31.7,76,42.3,86.5,55.2,86.5z
		 M55.2,52.4c5.9,0,10.7,4.8,10.7,10.7s-4.8,10.7-10.7,10.7S44.6,68.9,44.6,63S49.4,52.4,55.2,52.4z"/>
</g>
</svg>
