<?xml version="1.0" encoding="utf-8"?>
<!-- Generator: Adobe Illustrator 27.2.0, SVG Export Plug-In . SVG Version: 6.00 Build 0)  -->
<svg version="1.1" id="Camada_1" xmlns="http://www.w3.org/2000/svg" xmlns:xlink="http://www.w3.org/1999/xlink" x="0px" y="0px"
	 viewBox="0 0 141.9 108" style="enable-background:new 0 0 141.9 108;" xml:space="preserve">
<path d="M70.9,106.6L70.9,106.6c-31.5-0.5-59.3-20-69.1-48.8c-0.4-1.2-0.6-2.5-0.6-3.8c0-1.3,0.2-2.6,0.6-3.8
	c9.9-28.7,37.6-48.3,69-48.8l0.1,0l0.1,0c31.4,0.5,59.2,20,69,48.8l0,0c0.4,1.2,0.6,2.5,0.6,3.8c0,1.3-0.2,2.6-0.6,3.8
	C130.2,86.5,102.4,106.1,70.9,106.6L70.9,106.6z M14.5,54c8.2,23.1,30.8,38.9,56.4,39.3c25.6-0.4,48.2-16.2,56.4-39.3
	c-8.2-23.1-30.8-38.9-56.4-39.3C45.3,15.1,22.7,30.9,14.5,54z M97.4,53.8C97.4,39,85.6,27,70.9,26.4C56.2,27,44.5,39,44.5,53.8
	c0,0.1,0,0.1,0,0.2c0,0.1,0,0.1,0,0.2c0,14.8,11.8,26.9,26.5,27.4C85.6,81.1,97.4,69,97.4,54.2c0-0.1,0-0.1,0-0.2
	C97.4,54,97.4,53.9,97.4,53.8z M75.4,65.8c-7.6,0-13.7-6.2-13.7-13.7s6.2-13.7,13.7-13.7S89.1,44.5,89.1,52S83,65.8,75.4,65.8z"/>
</svg>
