<?xml version="1.0" encoding="utf-8"?>
<!-- Generator: Adobe Illustrator 27.1.1, SVG Export Plug-In . SVG Version: 6.00 Build 0)  -->
<svg version="1.1" id="Camada_1" xmlns="http://www.w3.org/2000/svg" xmlns:xlink="http://www.w3.org/1999/xlink" x="0px" y="0px"
	 viewBox="0 0 100 106.6" style="enable-background:new 0 0 100 106.6;" xml:space="preserve">
<path d="M99.2,75c-1-1.3-2.6-1.8-4.1-1.4c-2.7,0.7-5.5,1.1-8.1,1.2c0,0,0,0-0.1,0c-0.7,0-1.3,0-2,0c-11.3,0-22-4.4-30-12.4
	s-12.4-18.6-12.4-30c0-6.4,1.4-12.6,4.1-18.3c1.2-2.5,2.7-4.9,4.3-7.1c1-1.3,1.1-3,0.3-4.4c-0.8-1.4-2.4-2.2-3.9-2
	c-3.3,0.3-6.7,1-10.2,2.1C14.9,9.7,0,30.1,0,53.4c0,29.3,23.8,53.2,53.2,53.2c15.6,0,30.4-6.8,40.5-18.7c2.3-2.8,4.3-5.7,5.9-8.5
	C100.3,77.9,100.1,76.2,99.2,75z"/>
</svg>
