<?xml version="1.0" encoding="utf-8"?>
<!-- Generator: Adobe Illustrator 27.1.1, SVG Export Plug-In . SVG Version: 6.00 Build 0)  -->
<svg version="1.1" id="Camada_1" xmlns="http://www.w3.org/2000/svg" xmlns:xlink="http://www.w3.org/1999/xlink" x="0px" y="0px"
	 viewBox="0 0 111 111" style="enable-background:new 0 0 111 111;" xml:space="preserve">
<g>
	<path d="M96.8,27H90v42.8C90,81,80.9,90,69.8,90H27v6.8c0,7.9,6.4,14.2,14.2,14.2h55.6c7.9,0,14.2-6.4,14.2-14.2V41.2
		C111,33.4,104.6,27,96.8,27z"/>
	<path d="M69.8,0H14.2C6.3,0,0,6.4,0,14.2v55.6C0,77.7,6.4,84,14.2,84h55.6C77.7,84,84,77.6,84,69.8V14.2C84,6.4,77.6,0,69.8,0z
		 M58.4,47.3L33.2,62.1c-4.1,2.4-9.2-0.6-9.2-5.3V27.2c0-4.7,5.1-7.7,9.2-5.3l25.2,14.8C62.5,39.1,62.5,44.9,58.4,47.3z"/>
</g>
</svg>
