<?xml version="1.0" encoding="utf-8"?>
<!-- Generator: Adobe Illustrator 27.1.1, SVG Export Plug-In . SVG Version: 6.00 Build 0)  -->
<svg version="1.1" id="Camada_1" xmlns="http://www.w3.org/2000/svg" xmlns:xlink="http://www.w3.org/1999/xlink" x="0px" y="0px"
	 viewBox="0 0 119.1 123" style="enable-background:new 0 0 119.1 123;" xml:space="preserve">
<g>
	<path d="M118.2,51.2c-4.8-11.5-13.2-20.4-23.4-25.7C85.7,9.8,69.1,0,50.8,0C22.8,0,0,22.8,0,50.8c0,37.7,45.8,68.7,47.7,70L51,123
		l3.2-2.3c1.1-0.8,25.2-18.6,39.3-38.7c10.8-5.2,19.7-14.4,24.7-26.4l0.9-2.2L118.2,51.2z M50.8,109.1c-10-7.5-39.5-31.8-39.5-58.3
		C11.3,29,29,11.2,50.9,11.2c9.4,0,18.2,3.3,25.2,9.1c-0.9-0.1-1.7-0.2-2.6-0.2c-19.3,0-36.9,12.2-44.8,31.1l-0.9,2.2l0.9,2.2
		c7.9,18.9,25.4,31.1,44.8,31.1c0.7,0,1.3-0.1,2-0.2C66.3,96.5,55.9,105,50.8,109.1z M73.4,75.3c-14,0-26.9-8.5-33.4-22
		c6.5-13.4,19.4-22,33.4-22s26.9,8.5,33.4,22C100.3,66.8,87.5,75.3,73.4,75.3z"/>
	<path d="M73.4,41.5c-6.5,0-11.8,5.3-11.8,11.8s5.3,11.8,11.8,11.8s11.8-5.3,11.8-11.8C85.3,46.8,80,41.5,73.4,41.5z"/>
</g>
</svg>
