<?xml version="1.0" encoding="utf-8"?>
<!-- Generator: Adobe Illustrator 27.1.1, SVG Export Plug-In . SVG Version: 6.00 Build 0)  -->
<svg version="1.1" id="Camada_1" xmlns="http://www.w3.org/2000/svg" xmlns:xlink="http://www.w3.org/1999/xlink" x="0px" y="0px"
	 viewBox="0 0 129 110.8" style="enable-background:new 0 0 129 110.8;" xml:space="preserve">
<g>
	<path d="M64.5,93.3c-22,0-42.1-13.6-51.9-34.8c3.6-7.8,8.7-14.6,14.7-20.1l-8.2-8.2C11.5,37.2,5.2,46.1,1,56.3l-0.9,2.2L1,60.7
		c11.2,26.9,36.2,44.2,63.6,44.2c8.5,0,16.8-1.7,24.5-4.8L80,91C74.9,92.5,69.8,93.3,64.5,93.3z"/>
	<path d="M69.9,81L42,53.1c-0.4,1.7-0.7,3.5-0.7,5.4c0,12.8,10.4,23.2,23.2,23.2C66.4,81.7,68.1,81.5,69.9,81z"/>
	<path d="M128.1,60.8l0.9-2.2l-0.9-2.2c-11.2-27-36.2-44.3-63.6-44.3c-10.1,0-19.9,2.4-28.8,6.8L19.2,2.3C16.9,0,13.3,0,11,2.3
		s-2.3,5.9,0,8.2l98.6,98.6c1.1,1.1,2.6,1.7,4.1,1.7s3-0.6,4.1-1.7c2.3-2.3,2.3-5.9,0-8.2l-11.3-11.2
		C115.7,82.2,123.2,72.4,128.1,60.8z M98.2,81.3L85.4,68.5c1.5-3,2.4-6.4,2.4-10c0-12.8-10.4-23.2-23.2-23.2c-3.6,0-6.9,0.9-10,2.4
		l-9.9-9.9c6.3-2.6,13-4,19.9-4c22,0,42.1,13.6,51.9,34.8C112.1,67.8,105.8,75.5,98.2,81.3z"/>
</g>
</svg>
