<?xml version="1.0" encoding="utf-8"?>
<!-- Generator: Adobe Illustrator 27.1.1, SVG Export Plug-In . SVG Version: 6.00 Build 0)  -->
<svg version="1.1" id="Camada_1" xmlns="http://www.w3.org/2000/svg" xmlns:xlink="http://www.w3.org/1999/xlink" x="0px" y="0px"
	 viewBox="0 0 103 118" style="enable-background:new 0 0 103 118;" xml:space="preserve">
<g>
	<path d="M89.5,56c0.9,0.8,2.3,0.6,3-0.3C99.8,46.5,103,37.3,103,28c0-9.2-3.2-18.4-10-27.1c-0.7-0.9-2.1-1.1-3-0.3l-4.7,4
		c-0.8,0.7-0.9,1.9-0.3,2.7c4.9,6.7,7.6,13.4,7.6,20.6s-2.7,14-8.1,21.1c-0.6,0.9-0.6,2.1,0.2,2.8L89.5,56z"/>
	<path d="M46.4,36.8l-29,78.8c-0.4,1.2,0.4,2.4,1.7,2.4h9.1c0.4,0,0.8-0.2,1.2-0.4L51.5,98l22.2,19.5c0.3,0.3,0.7,0.4,1.2,0.4H84
		c1.2,0,2.1-1.2,1.7-2.4l-29-78.8c3.1-1.5,5.1-5.1,5.1-8.7c0-5.7-4.6-10.3-10.3-10.3S41.2,22.4,41.2,28
		C41.2,31.6,43.3,35.2,46.4,36.8z M34,99.6l4.6-12.9l5.1,4.1L34,99.6z M69,99.6L42.8,76.4l8.7-24.2L69,99.6z"/>
	<path d="M74.6,43.7c0.9,0.7,2.2,0.6,2.9-0.3c3.2-4.4,4.9-9.9,4.9-15.4s-1.6-11-4.9-15.4c-0.7-0.9-2-1-2.9-0.3l-5,4.1
		c-0.8,0.7-1,1.9-0.4,2.8c1.6,2.1,2.9,5.2,2.9,8.8c0,3.7-1.3,6.7-2.9,8.8c-0.6,0.9-0.5,2.1,0.4,2.8L74.6,43.7z"/>
	<path d="M17.7,51.4c0.8-0.7,0.9-1.9,0.3-2.7C13,42,10.3,35.2,10.3,28s2.7-13.9,8-21c0.7-0.9,0.5-2.2-0.4-2.9l-5-3.7
		C12-0.3,10.7-0.1,10,0.8C3.2,9.6,0,18.8,0,28s3.2,18.4,10,27.1c0.7,0.9,2.1,1.1,3,0.3L17.7,51.4z"/>
	<path d="M33.4,39.6c0.8-0.7,1-1.9,0.4-2.8c-1.6-2.1-2.9-5.2-2.9-8.8c0-3.7,1.3-6.7,2.9-8.8c0.6-0.9,0.5-2.1-0.4-2.8l-5-4.1
		c-0.9-0.7-2.2-0.6-2.9,0.3c-3.2,4.4-4.9,9.9-4.9,15.4s1.6,11,4.9,15.4c0.7,0.9,2,1,2.9,0.3L33.4,39.6z"/>
</g>
</svg>
