<?xml version="1.0" encoding="utf-8"?>
<!-- Generator: Adobe Illustrator 27.1.1, SVG Export Plug-In . SVG Version: 6.00 Build 0)  -->
<svg version="1.1" id="Camada_1" xmlns="http://www.w3.org/2000/svg" xmlns:xlink="http://www.w3.org/1999/xlink" x="0px" y="0px"
	 viewBox="0 0 126.2 87.3" style="enable-background:new 0 0 126.2 87.3;" xml:space="preserve">
<g>
	<path d="M63.4,16.8H7.1c-3.9,0-7-3.2-7-7s3.2-7,7-7h56.3c3.9,0,7,3.2,7,7S67.3,16.8,63.4,16.8z"/>
	<path d="M42.3,52H7.1c-3.9,0-7-3.2-7-7c0-3.9,3.2-7,7-7h35.2c3.9,0,7,3.2,7,7C49.3,48.9,46.2,52,42.3,52z"/>
	<path d="M21.2,87.2H7.1c-3.9,0-7-3.2-7-7s3.2-7,7-7h14.1c3.9,0,7,3.2,7,7S25.1,87.2,21.2,87.2z"/>
	<path d="M74.2,49.2L95.9,85c1.8,3,6.1,3,7.9,0l21.7-35.8c1.9-3.1-0.3-7-3.9-7h-14.7V7c0-3.9-3.1-7-7-7s-7,3.1-7,7v35.2H78.2
		C74.5,42.2,72.3,46.1,74.2,49.2z"/>
</g>
</svg>
