<?xml version="1.0" encoding="utf-8"?>
<!-- Generator: Adobe Illustrator 27.1.1, SVG Export Plug-In . SVG Version: 6.00 Build 0)  -->
<svg version="1.1" id="Camada_1" xmlns="http://www.w3.org/2000/svg" xmlns:xlink="http://www.w3.org/1999/xlink" x="0px" y="0px"
	 viewBox="0 0 126.5 91.9" style="enable-background:new 0 0 126.5 91.9;" xml:space="preserve">
<g>
	<path d="M66.6,92H7.4C3.3,92,0,88.7,0,84.6s3.3-7.4,7.4-7.4h59.2c4.1,0,7.4,3.3,7.4,7.4S70.7,92,66.6,92z"/>
	<path d="M44.4,55h-37C3.3,55,0,51.7,0,47.6s3.3-7.4,7.4-7.4h37c4.1,0,7.4,3.3,7.4,7.4S48.5,55,44.4,55z"/>
	<path d="M22.2,17.9H7.4c-4.1,0-7.4-3.3-7.4-7.4s3.3-7.4,7.4-7.4h14.8c4.1,0,7.4,3.3,7.4,7.4S26.3,17.9,22.2,17.9z"/>
	<path d="M125.7,40.2L102.9,2.5c-1.9-3.1-6.4-3.1-8.3,0L71.8,40.2c-2,3.2,0.4,7.3,4.1,7.3h15.4v37c0,4.1,3.3,7.4,7.4,7.4
		s7.4-3.3,7.4-7.4v-37h15.4C125.4,47.6,127.7,43.4,125.7,40.2z"/>
</g>
</svg>
