<?xml version="1.0" encoding="utf-8"?>
<!-- Generator: Adobe Illustrator 27.1.1, SVG Export Plug-In . SVG Version: 6.00 Build 0)  -->
<svg version="1.1" id="Camada_1" xmlns="http://www.w3.org/2000/svg" xmlns:xlink="http://www.w3.org/1999/xlink" x="0px" y="0px"
	 viewBox="0 0 32.3 36.1" style="enable-background:new 0 0 32.3 36.1;" xml:space="preserve">
<path id="icone_parada" d="M29.9,11l-4.8-4.8l2.4-2.4l4.8,4.8L29.9,11z M30.8,20.7c0,8.5-6.9,15.4-15.4,15.4S0,29.2,0,20.7
	C0,12.8,5.9,6.2,13.7,5.4V3.6h-3.4V0.1h10.3v3.4h-3.4v1.9C24.9,6.3,30.8,12.9,30.8,20.7L30.8,20.7z M27.4,20.7c0-6.6-5.4-12-12-12
	s-12,5.4-12,12s5.4,12,12,12S27.4,27.3,27.4,20.7L27.4,20.7L27.4,20.7z M17.1,25.9h3.4V15.6h-3.4V25.9z M10.2,25.9h3.4V15.6h-3.4
	C10.2,15.6,10.2,25.9,10.2,25.9z"/>
</svg>
