<?xml version="1.0" encoding="utf-8"?>
<!-- Generator: Adobe Illustrator 27.1.1, SVG Export Plug-In . SVG Version: 6.00 Build 0)  -->
<svg version="1.1" id="Camada_1" xmlns="http://www.w3.org/2000/svg" xmlns:xlink="http://www.w3.org/1999/xlink" x="0px" y="0px"
	 viewBox="0 0 79.3 91" style="enable-background:new 0 0 79.3 91;" xml:space="preserve">
<g>
	<path d="M16.8,91H6.2c-3.3,0-6-2.7-6-6V6.7c0-3.3,2.7-6,6-6h10.7c3.3,0,6,2.7,6,6V85C22.8,88.3,20.1,91,16.8,91z"/>
	<path d="M73.2,91H62.5c-3.3,0-6-2.7-6-6V6.7c0-3.3,2.7-6,6-6h10.7c3.3,0,6,2.7,6,6V85C79.2,88.3,76.5,91,73.2,91z"/>
</g>
</svg>
