<?xml version="1.0" encoding="UTF-8" standalone="no"?>
<svg xmlns="http://www.w3.org/2000/svg" xml:space="preserve" viewBox="0 0 512 512">
  <path fill-rule="evenodd" d="M147.736 6.03C120.154 6.03 97.786 28.418 97.77 56l-.033 66.396c0 9.194 7.462 16.656 16.656 16.656l333.216.488c4.414 0 8.678-1.733 11.81-4.848a16.717 16.717 0 0 0 4.879-11.808V55.999c0-27.6-22.37-49.968-49.968-49.968zm0 33.313H414.33c9.194 0 16.656 7.462 16.656 16.656v50.228l-299.904-.423V55.999c0-9.194 7.461-16.656 16.655-16.656zm-33.311 133.02c-4.414 0-8.678 1.78-11.81 4.912a16.537 16.537 0 0 0-4.879 11.743v53.319a49.772 49.772 0 0 1 16.656-2.863c22.552 0 41.608 14.972 47.82 35.492 20.47 6.246 35.395 25.286 35.395 47.788 0 13.674-5.484 26.073-14.412 35.1 18.955 15.258 31.068 38.636 31.068 64.835 0 34.495-21.013 64.149-50.944 76.774a46.34 46.34 0 0 1-1.724 6.31h252.734a49.902 49.902 0 0 0 35.296-14.638c9.377-9.377 14.672-22.07 14.672-35.329v-266.3c0-9.194-7.446-16.639-16.624-16.656zm66.851 28.79c11.493 0 20.82 9.327 20.82 20.82 0 11.492-9.327 20.82-20.82 20.82s-20.82-9.328-20.82-20.82c0-11.493 9.327-20.82 20.82-20.82zm66.298 0c11.493 0 20.82 9.327 20.82 20.82 0 11.492-9.327 20.82-20.82 20.82-11.492 0-20.82-9.328-20.82-20.82 0-11.493 9.328-20.82 20.82-20.82zm66.331 0c11.493 0 20.82 9.327 20.82 20.82 0 11.492-9.327 20.82-20.82 20.82-11.492 0-20.82-9.328-20.82-20.82 0-11.493 9.328-20.82 20.82-20.82zm66.299 0c11.476 0 20.82 9.327 20.82 20.82 0 11.492-9.344 20.82-20.82 20.82-11.493 0-20.82-9.328-20.82-20.82 0-11.493 9.327-20.82 20.82-20.82zm-132.63 66.623c11.493 0 20.82 9.328 20.82 20.82 0 11.493-9.327 20.82-20.82 20.82-11.492 0-20.82-9.327-20.82-20.82 0-11.492 9.328-20.82 20.82-20.82zm66.331 0c11.493 0 20.82 9.328 20.82 20.82 0 11.493-9.327 20.82-20.82 20.82-11.492 0-20.82-9.327-20.82-20.82 0-11.492 9.328-20.82 20.82-20.82zm66.299 0c11.476 0 20.82 9.328 20.82 20.82 0 11.493-9.344 20.82-20.82 20.82-11.493 0-20.82-9.327-20.82-20.82 0-11.492 9.327-20.82 20.82-20.82zm-265.812 5.01c-9.177 0-16.656 7.462-16.656 16.656v16.656h-.065c-27.582 0-49.968 22.386-49.968 49.968 0 27.582 22.386 49.968 49.968 49.968h33.312c9.194 0 16.656 7.461 16.656 16.655s-7.462 16.656-16.656 16.656H81.015c-9.194 0-16.656 7.462-16.656 16.656 0 9.194 7.462 16.656 16.656 16.656h16.721v16.656c0 9.194 7.479 16.656 16.656 16.656 9.194 0 16.656-7.462 16.656-16.656v-16.656c27.566-.033 49.903-22.402 49.903-49.968 0-27.582-22.386-49.967-49.968-49.967H97.67c-9.194 0-16.656-7.462-16.656-16.656 0-9.194 7.462-16.656 16.656-16.656h49.968c9.194 0 16.656-7.462 16.656-16.656 0-9.194-7.462-16.656-16.656-16.656h-16.591v-16.656c0-9.194-7.462-16.656-16.656-16.656zM247.574 334.4c11.493 0 20.82 9.327 20.82 20.82 0 11.492-9.327 20.82-20.82 20.82-11.492 0-20.82-9.328-20.82-20.82 0-11.493 9.328-20.82 20.82-20.82zm66.331 0c11.493 0 20.82 9.327 20.82 20.82 0 11.492-9.327 20.82-20.82 20.82-11.492 0-20.82-9.328-20.82-20.82 0-11.493 9.328-20.82 20.82-20.82zm-66.33 66.624c11.492 0 20.82 9.327 20.82 20.82 0 11.492-9.328 20.82-20.82 20.82-11.493 0-20.82-9.328-20.82-20.82 0-11.493 9.327-20.82 20.82-20.82zm66.33 0c11.493 0 20.82 9.327 20.82 20.82 0 11.492-9.327 20.82-20.82 20.82-11.492 0-20.82-9.328-20.82-20.82 0-11.493 9.328-20.82 20.82-20.82z" clip-rule="evenodd"/>
</svg>
