<svg width="27" height="27" viewBox="0 0 27 27" fill="none" xmlns="http://www.w3.org/2000/svg">
<path id="Vector" d="M4.125 0C1.86017 0 0 1.86017 0 4.125V22.875C0 25.1398 1.86017 27 4.125 27H22.875C25.1398 27 27 25.1398 27 22.875V4.125C27 1.86017 25.1398 0 22.875 0H4.125ZM4.125 2.25H22.875C23.9237 2.25 24.75 3.07633 24.75 4.125V22.875C24.75 23.9237 23.9237 24.75 22.875 24.75H4.125C3.07633 24.75 2.25 23.9237 2.25 22.875V4.125C2.25 3.07633 3.07633 2.25 4.125 2.25ZM12.9038 5.25146C12.3991 5.25146 11.9079 5.53646 11.6177 6.00146C11.0342 7.02146 11.242 9.01072 12.145 11.0845L12.0762 11.2808C11.6029 12.6188 11.1136 14.0028 9.90381 16.3008C7.95231 17.1138 5.60973 18.3568 5.38623 19.6978C5.28048 20.1763 5.43504 20.6658 5.82129 21.0498C6.17154 21.3513 6.631 21.5171 7.11475 21.5171C8.54725 21.5171 10.0971 20.061 11.8491 17.064C12.8414 16.7347 14.2976 16.2977 15.7676 16.0239C17.5218 17.5284 19.0918 17.8477 20.1035 17.8477C21.4318 17.8477 21.8418 17.2085 21.958 16.853C22.2085 16.355 22.109 15.7566 21.6987 15.2886L21.6929 15.2827C20.4839 14.0272 17.4837 14.4049 16.3564 14.5474L16.2612 14.5591C15.1895 13.5113 14.4372 12.2637 14.1372 11.7627C14.5955 10.3677 14.8291 9.13339 14.8726 7.87939C14.8726 6.66739 14.3573 5.25146 12.9038 5.25146ZM12.9038 6.4585C13.1971 6.4585 13.2414 6.93543 13.2422 7.21143C13.2039 8.01318 13.0738 8.802 12.8525 9.5625C12.386 8.058 12.4854 6.97391 12.6826 6.60791C12.7449 6.51791 12.8303 6.4585 12.9038 6.4585ZM13.563 13.418C13.9192 13.9497 14.3662 14.4944 14.6909 14.8491C14.5994 14.8724 14.4912 14.8969 14.3862 14.9224C13.958 15.0259 13.3517 15.1732 12.7749 15.3457C13.0532 14.7367 13.3657 13.9572 13.563 13.418ZM18.4819 15.4951C18.9119 15.4913 19.3324 15.5159 19.6846 15.583C19.9628 15.6528 20.281 15.8104 20.209 16.1704L20.2075 16.1807C20.194 16.2744 20.1315 16.3659 20.0332 16.4326C19.9207 16.5069 19.6652 16.6154 19.21 16.5029C18.5095 16.3184 17.8431 16.0077 17.2266 15.5757C17.6132 15.5314 18.052 15.499 18.4819 15.4951ZM9.17578 17.9502C8.17528 19.4704 7.26321 20.2632 6.83496 20.2632C6.78321 20.2632 6.70586 20.2242 6.65186 20.1987C6.60011 20.1635 6.5499 20.1159 6.5874 19.9629C6.67665 19.5451 7.41178 18.8127 9.17578 17.9502Z" fill="white"/>
</svg>
