<?xml version="1.0" encoding="utf-8"?>
<!-- Generator: Adobe Illustrator 26.0.3, SVG Export Plug-In . SVG Version: 6.00 Build 0)  -->
<svg version="1.1" id="Camada_1" xmlns="http://www.w3.org/2000/svg" xmlns:xlink="http://www.w3.org/1999/xlink" x="0px" y="0px"
	 viewBox="0 0 43.5 43.5" style="enable-background:new 0 0 43.5 43.5;" xml:space="preserve">
<path id="Icone_Distancia" d="M35.6,15l-8.3-8.3l1.6-1.6c0.4-0.4,0.4-1.1,0-1.5c-0.1-0.1-0.3-0.2-0.5-0.3l-7.9-1.6
	c-0.6-0.1-1.1,0.3-1.2,0.8c0,0.1,0,0.3,0,0.4l1.6,7.9c0.1,0.6,0.7,0.9,1.2,0.8c0.2,0,0.4-0.1,0.5-0.3l1.7-1.7l8.3,8.3
	c1.6,1.6,1.6,4.3-0.1,5.9c-1.6,1.6-4.2,1.6-5.8,0l-6.3-6.4c-3.4-3.4-8.9-3.4-12.3,0C4.6,21,4.6,26.5,8,29.9l6.4,6.4
	c-0.6,2.3,0.7,4.6,3,5.2s4.6-0.7,5.2-3c0.6-2.3-0.7-4.6-3-5.2c-0.7-0.2-1.5-0.2-2.2,0L11,26.9c-1.7-1.7-1.7-4.5,0.1-6.2
	c1.7-1.7,4.4-1.7,6.2,0l6.3,6.4c3.3,3.3,8.6,3.3,11.9,0C38.9,23.7,38.9,18.3,35.6,15L35.6,15L35.6,15z"/>
</svg>
