<?xml version="1.0" encoding="utf-8"?>
<!-- Generator: Adobe Illustrator 27.1.1, SVG Export Plug-In . SVG Version: 6.00 Build 0)  -->
<svg version="1.1" id="Camada_1" xmlns="http://www.w3.org/2000/svg" xmlns:xlink="http://www.w3.org/1999/xlink" x="0px" y="0px"
	 viewBox="0 0 20.4 24" style="enable-background:new 0 0 20.4 24;" xml:space="preserve">
<path d="M10.1,13c3.6,0,6.5-2.9,6.5-6.5S13.7,0,10.1,0S3.6,2.9,3.6,6.5S6.5,13,10.1,13z M10.1,2c2.5,0,4.5,2,4.5,4.5s-2,4.5-4.5,4.5
	S5.6,9,5.6,6.5S7.7,2,10.1,2z M20.4,22.5c-0.9-4.8-5.1-8.5-10.2-8.5S0.9,17.7,0,22.5C-0.1,23.3,0.5,24,1.3,24h17.9
	C19.9,24,20.5,23.3,20.4,22.5z M2.1,22c1-3.5,4.3-6,8-6s7,2.5,8,6H2.1z"/>
</svg>
