<?xml version="1.0" encoding="utf-8"?>
<!-- Generator: Adobe Illustrator 27.1.1, SVG Export Plug-In . SVG Version: 6.00 Build 0)  -->
<svg version="1.1" id="Camada_1" xmlns="http://www.w3.org/2000/svg" xmlns:xlink="http://www.w3.org/1999/xlink" x="0px" y="0px"
	 viewBox="0 0 98.8 91.1" style="enable-background:new 0 0 98.8 91.1;" xml:space="preserve">
<g>
	<path d="M46.3,20.4c0,2.4-0.4,4.6-1.1,6.7s-2,3.9-3.7,5.5s-3.8,2.3-6.2,2.3c-3,0-5.7-1.1-8.2-3.4s-4.3-5-5.5-8
		c-1.2-3.1-1.8-6.1-1.8-9c0-2.4,0.4-4.6,1.1-6.7c0.8-2.1,2-3.9,3.7-5.5C26.3,0.8,28.4,0,30.8,0c3,0,5.8,1.1,8.2,3.4s4.2,4.9,5.4,8
		C45.8,14.5,46.3,17.5,46.3,20.4z M26.1,49c0,3.2-0.8,5.9-2.5,8.2c-1.7,2.3-4,3.5-7.1,3.5c-3,0-5.8-1.1-8.4-3.3
		c-2.6-2.2-4.6-4.8-6-7.9S0,43.4,0,40.5c0-3.2,0.8-5.9,2.5-8.3s4-3.5,7.1-3.5c3,0,5.8,1.1,8.4,3.3c2.6,2.2,4.6,4.8,6,7.9
		C25.4,43.1,26.1,46.1,26.1,49z M49.4,47.4c4.7,0,9.7,1.9,15.1,5.8s9.9,8.5,13.6,14.1c3.7,5.6,5.5,10.5,5.5,15.1
		c0,1.8-0.3,3.3-1,4.5S81,89,79.7,89.6c-1.2,0.6-2.5,1-3.8,1.2s-2.8,0.3-4.5,0.3c-2.7,0-6.4-0.9-11.1-2.7s-8.3-2.7-10.8-2.7
		c-2.6,0-6.4,0.9-11.4,2.6c-5,1.8-9,2.6-11.9,2.6c-7.2,0-10.9-2.9-10.9-8.7c0-3.4,1.1-7.2,3.3-11.4c2.2-4.2,5-8,8.3-11.4
		c3.3-3.4,7-6.3,11.1-8.7C42.1,48.6,45.9,47.4,49.4,47.4z M63.6,34.9c-2.4,0-4.5-0.8-6.2-2.3s-3-3.4-3.7-5.5
		c-0.8-2.1-1.1-4.4-1.1-6.7c0-2.9,0.6-5.9,1.8-9c1.2-3.1,3-5.7,5.4-8S65,0,68,0c2.4,0,4.5,0.8,6.2,2.3s3,3.4,3.7,5.5
		c0.8,2.1,1.1,4.4,1.1,6.7c0,2.9-0.6,5.9-1.8,9c-1.2,3.1-3,5.8-5.5,8C69.3,33.8,66.6,34.9,63.6,34.9z M89.2,28.8
		c3,0,5.4,1.2,7.1,3.5c1.7,2.4,2.5,5.1,2.5,8.3c0,2.9-0.7,5.9-2.1,9c-1.4,3.1-3.4,5.7-6,7.9c-2.6,2.2-5.4,3.3-8.4,3.3
		s-5.4-1.2-7.1-3.5s-2.5-5.1-2.5-8.2c0-2.9,0.7-5.9,2.1-9s3.4-5.8,6-7.9C83.4,29.9,86.2,28.8,89.2,28.8z"/>
</g>
</svg>
