<?xml version="1.0" encoding="utf-8"?>
<!-- Generator: Adobe Illustrator 26.3.1, SVG Export Plug-In . SVG Version: 6.00 Build 0)  -->
<svg version="1.1" id="Camada_1" xmlns="http://www.w3.org/2000/svg" xmlns:xlink="http://www.w3.org/1999/xlink" x="0px" y="0px"
	 viewBox="0 0 170 170" style="enable-background:new 0 0 170 170;" xml:space="preserve">
<path d="M146.3,34.4H23.7c-7.5,0-13.6,6.1-13.6,13.6V123c0,7.5,6.1,13.6,13.6,13.6h122.6c7.5,0,13.6-6.1,13.6-13.6V48
	C159.9,40.5,153.8,34.4,146.3,34.4z M146.3,123h-20.4c0-3.8-3-6.8-6.8-6.8H50.9c-3.8,0-6.8,3-6.8,6.8H23.7V48h20.4
	c0,3.8,3,6.8,6.8,6.8h68.1c3.8,0,6.8-3.1,6.8-6.8h20.4V123z M37.8,67.6L31.3,102h7.2l1.2-7.3h5.1l1.1,7.3h7l-6.4-34.4H37.8z
	 M40.3,90.2l1.8-13.4L44,90.2H40.3z M74.6,84.8c-0.9-0.7-2-1.1-3.4-1.3c1-0.2,1.9-0.6,2.7-1.1c0.8-0.6,1.3-1.3,1.7-2.3
	c0.4-1,0.6-2.1,0.6-3.5c0-1.9-0.3-3.5-0.9-4.7c-0.6-1.2-1.4-2.1-2.4-2.7c-1-0.6-2.2-1.1-3.5-1.3s-2.7-0.3-4.2-0.3h-9V102h10.6
	c1.7,0,3.2-0.2,4.4-0.6c1.3-0.4,2.4-1,3.3-1.8c0.9-0.8,1.6-1.9,2-3.2c0.5-1.3,0.7-2.8,0.7-4.6c0-1.6-0.2-3-0.7-4.2
	C76.2,86.4,75.5,85.5,74.6,84.8z M64,72.7h1.3c1,0,1.8,0.2,2.4,0.5c0.6,0.3,1.1,0.8,1.4,1.4c0.3,0.6,0.5,1.4,0.5,2.3
	c0,1-0.1,1.8-0.3,2.5c-0.2,0.7-0.6,1.2-1.2,1.5c-0.6,0.4-1.5,0.5-2.6,0.5H64V72.7z M69,95.4c-0.6,0.9-1.8,1.3-3.5,1.3H64V86.4h1.6
	c1.1,0,2,0.2,2.6,0.5c0.7,0.4,1.1,0.9,1.4,1.7c0.3,0.8,0.4,1.8,0.4,3.1C70,93.3,69.7,94.6,69,95.4z M86.1,67.6h5.6V102h-7.1V74.6
	c-0.3,0.2-0.7,0.3-1.1,0.5c-0.4,0.2-0.8,0.3-1.3,0.5c-0.4,0.2-0.9,0.4-1.3,0.5c-0.4,0.2-0.8,0.3-1.1,0.5v-5.3
	c0.3-0.2,0.7-0.4,1.3-0.7c0.6-0.3,1.2-0.6,1.8-1c0.7-0.4,1.3-0.7,1.8-1.1C85.4,68.2,85.8,67.9,86.1,67.6z M113.8,69.5
	c1.6,1.6,2.4,3.8,2.4,6.7c0,1.4-0.2,2.7-0.7,3.9c-0.4,1.2-1,2.3-1.7,3.5c-0.7,1.1-1.5,2.3-2.3,3.5l-6.3,9.4h10.1v5.6h-18v-5
	l8.2-12.7c0.6-0.9,1.2-1.8,1.8-2.7c0.6-0.9,1-1.8,1.4-2.7c0.4-0.9,0.5-1.9,0.5-2.8c0-1-0.2-1.7-0.6-2.2c-0.4-0.5-0.9-0.7-1.6-0.7
	c-0.8,0-1.4,0.2-1.8,0.6c-0.4,0.4-0.7,1-0.9,1.7c-0.2,0.7-0.2,1.5-0.2,2.4v1.7h-6.9v-1.8c0-2,0.3-3.9,1-5.5c0.7-1.6,1.7-2.9,3.1-3.8
	c1.4-0.9,3.3-1.4,5.6-1.4C109.9,67.1,112.2,67.9,113.8,69.5z M133.4,68.1c1.4,0.7,2.5,1.7,3.3,3.1c0.8,1.4,1.1,3.1,1.1,5.1
	c0,2-0.4,3.7-1.2,5.1c-0.8,1.4-1.8,2.2-3,2.5c0.8,0.3,1.5,0.7,2.1,1.4c0.6,0.6,1.1,1.5,1.5,2.5c0.4,1.1,0.5,2.4,0.5,4.1
	c0,2.1-0.3,4-0.9,5.6c-0.6,1.6-1.6,2.9-3,3.8c-1.4,0.9-3.2,1.4-5.5,1.4c-2.4,0-4.3-0.4-5.7-1.4c-1.4-0.9-2.4-2.2-2.9-3.8
	c-0.6-1.6-0.9-3.5-0.9-5.6v-1.2h7.1c0,0,0,0.2,0,0.5c0,0.3,0,0.5,0,0.8c0,1.1,0.1,2.1,0.2,2.8c0.1,0.7,0.4,1.2,0.8,1.5
	s0.9,0.5,1.5,0.5c0.7,0,1.1-0.2,1.5-0.5c0.3-0.3,0.5-0.8,0.7-1.5c0.1-0.7,0.2-1.5,0.2-2.6c0-1.7-0.2-3-0.7-3.9
	c-0.5-0.9-1.4-1.4-2.9-1.4c0,0-0.2,0-0.5,0c-0.3,0-0.6,0-0.9,0v-4.9c0.2,0,0.4,0,0.6,0c0.2,0,0.4,0,0.5,0c1.5,0,2.5-0.4,3-1.2
	s0.8-2.1,0.8-3.8c0-1.3-0.2-2.4-0.5-3.1c-0.4-0.7-1-1.1-2-1.1c-0.9,0-1.6,0.4-1.9,1.2c-0.3,0.8-0.4,1.8-0.4,3.1c0,0.3,0,0.6,0,0.9
	s0,0.6,0,0.9h-7.1v-2.1c0-2.1,0.4-3.8,1.1-5.2c0.8-1.4,1.8-2.5,3.2-3.3c1.4-0.7,3.1-1.1,5-1.1C130.3,67.1,132,67.4,133.4,68.1z"/>
</svg>
