<?xml version="1.0" encoding="UTF-8"?>
<!DOCTYPE svg PUBLIC "-//W3C//DTD SVG 1.1//EN" "http://www.w3.org/Graphics/SVG/1.1/DTD/svg11.dtd">
<!-- Creator: CorelDRAW -->
<svg xmlns="http://www.w3.org/2000/svg" xml:space="preserve" width="2048px" height="2048px" style="shape-rendering:geometricPrecision; text-rendering:geometricPrecision; image-rendering:optimizeQuality; fill-rule:evenodd; clip-rule:evenodd"
viewBox="0 0 2048 2048"
 xmlns:xlink="http://www.w3.org/1999/xlink">
 <defs>
  <style type="text/css">
   <![CDATA[
    .fil0 {fill:none}
    .fil1 {fill:#757575;fill-rule:nonzero}
    .fil3 {fill:#7E7E7E;fill-rule:nonzero}
    .fil2 {fill:#E1E1E2;fill-rule:nonzero}
   ]]>
  </style>
 </defs>
 <g id="Layer_x0020_1">
  <metadata id="CorelCorpID_0Corel-Layer"/>
  <g id="_526142808">
   <rect id="_526145928" class="fil0" width="2048" height="2048"/>
   <rect id="_526143528" class="fil0" x="255.999" y="255.999" width="1536" height="1536"/>
  </g>
  <path class="fil1" d="M717.825 284.576c95.9457,-39.7429 199.553,-60.5764 306.182,-60.5764 106.621,0 210.225,20.8335 306.171,60.5764 96.0509,39.7855 184.104,98.3446 259.516,173.746 75.3945,75.4052 133.95,163.455 173.734,259.508 39.7394,95.9469 60.5729,199.553 60.5729,306.181 0,106.619 -20.8335,210.22 -60.5741,306.167 -39.7843,96.0485 -98.3387,184.099 -173.733,259.5 -75.4123,75.4028 -163.461,133.961 -259.512,173.746 -95.9481,39.7429 -199.552,60.5764 -306.175,60.5764 -106.63,0 -210.238,-20.8335 -306.186,-60.5764 -96.0485,-39.7843 -184.096,-98.3434 -259.499,-173.746 -75.4016,-75.4005 -133.96,-163.448 -173.746,-259.495 -39.7441,-95.9457 -60.5776,-199.551 -60.5776,-306.171 0,-106.63 20.8335,-210.238 60.5764,-306.187 39.7866,-96.052 98.3446,-184.1 173.747,-259.503 75.4028,-75.4016 163.451,-133.961 259.503,-173.746z"/>
  <path class="fil2" d="M1024.01 288.001c-98.5099,0 -193.906,19.1126 -281.932,55.5756 -87.9308,36.4217 -168.849,90.3438 -238.503,159.996 -69.6544,69.6544 -123.574,150.572 -159.997,238.503 -36.4618,88.0288 -55.5756,183.424 -55.5756,281.936 0,98.5028 19.1138,193.896 55.5768,281.921 36.4229,87.9272 90.3426,168.843 159.996,238.495 69.6532,69.6532 150.569,123.575 238.499,159.996 88.0288,36.463 183.424,55.5756 281.935,55.5756 98.504,0 193.896,-19.1126 281.925,-55.5756 87.9308,-36.4229 168.851,-90.3426 238.512,-159.996 69.6449,-69.652 123.561,-150.569 159.983,-238.5 36.4607,-88.0253 55.5733,-183.415 55.5733,-281.916 0,-98.5099 -19.1138,-193.904 -55.5721,-281.931 -36.4217,-87.9343 -90.339,-168.854 -159.984,-238.508 -69.6615,-69.652 -150.584,-123.573 -238.516,-159.996 -88.0264,-36.4618 -183.417,-55.5756 -281.921,-55.5756z"/>
  <path class="fil3" d="M764.13 1392c-5.12481,0 -10.2484,-1.33819 -14.8205,-4.00276 -9.17717,-5.33032 -14.8205,-15.1701 -14.8205,-25.8154l0 -676.377c0,-10.6417 5.64331,-20.4862 14.8205,-25.8118 9.163,-5.33032 20.4614,-5.33032 29.6398,0l582.232 338.178c9.17717,5.33032 14.8193,15.1701 14.8193,25.8307 0,10.6417 -5.64213,20.4851 -14.8193,25.8118l-582.232 338.183c-4.58741,2.66457 -9.71103,4.00276 -14.8193,4.00276z"/>
 </g>
</svg>
