<?xml version="1.0" encoding="utf-8"?>
<!-- Generator: Adobe Illustrator 27.1.1, SVG Export Plug-In . SVG Version: 6.00 Build 0)  -->
<svg version="1.1" id="Camada_1" xmlns="http://www.w3.org/2000/svg" xmlns:xlink="http://www.w3.org/1999/xlink" x="0px" y="0px"
	 viewBox="0 0 113.8 91.1" style="enable-background:new 0 0 113.8 91.1;" xml:space="preserve">
<path d="M97,0H16.8C7.5,0,0,7.6,0,17.1V74c0,9.4,7.5,17.1,16.8,17.1H97c9.3,0,16.8-7.6,16.8-17.1V17.1C113.8,7.6,106.2,0,97,0z
	 M36.6,22.2c6.9,0,12.6,5.6,12.6,12.6s-5.6,12.6-12.6,12.6c-6.9,0-12.6-5.6-12.6-12.6S29.6,22.2,36.6,22.2z M53.3,65.1
	c0,1.8-1.4,3.2-3.2,3.2H23c-1.8,0-3.2-1.4-3.2-3.2V58c0-3.6,2.9-6.5,6.5-6.5h20.5c3.6,0,6.5,2.9,6.5,6.5
	C53.3,58,53.3,65.1,53.3,65.1z M79,66.9H66.2c-2.4,0-4.4-2-4.4-4.4s2-4.4,4.4-4.4H79c2.4,0,4.4,2,4.4,4.4
	C83.4,64.9,81.4,66.9,79,66.9z M89.6,52.8H66.2c-2.4,0-4.4-2-4.4-4.4s2-4.4,4.4-4.4h23.4c2.4,0,4.4,2,4.4,4.4S92,52.8,89.6,52.8z
	 M89.6,38.7H66.2c-2.4,0-4.4-2-4.4-4.4s2-4.4,4.4-4.4h23.4c2.4,0,4.4,2,4.4,4.4S92,38.7,89.6,38.7z"/>
</svg>
