<?xml version="1.0" encoding="UTF-8" standalone="no"?>
<svg xmlns="http://www.w3.org/2000/svg" xml:space="preserve" viewBox="0 0 512 512">
  <path d="M347.385 32.386c-5.626 1.758-13.246 9.73-15.004 15.59-.938 3.165-1.407 13.598-1.407 30.595v25.788l-24.85.704c-32.94.82-55.446 4.689-81.234 13.715-81 28.601-125.778 103.388-122.027 203.964 1.29 36.573 4.571 48.295 15.121 54.39 9.964 5.627 20.397 4.806 28.72-2.344 6.095-5.158 7.97-9.495 10.08-23.327 4.103-26.844 14.77-47.71 34.346-67.05 9.495-9.495 12.425-11.605 22.858-16.646 14.067-6.681 29.774-11.84 46.771-15.473 9.847-2.11 16.294-2.579 33.29-2.696 11.606-.117 24.617.352 29.072.82l7.853 1.055v28.72c0 32.821.587 36.104 7.62 43.137 7.854 7.97 18.286 9.612 28.25 4.689 7.737-3.869 134.218-130.233 137.031-136.797.938-2.462 1.758-7.033 1.758-10.315 0-3.283-.82-7.854-1.758-10.316-2.813-6.564-129.294-132.928-137.031-136.797-6.33-3.164-12.543-3.633-19.459-1.406z"/>
  <path d="M19.167 83.846c-2.93 1.64-6.799 5.157-8.791 7.854l-3.517 5.04-.352 159.303c-.351 177.355-.703 166.805 7.737 183.92 6.33 12.894 19.693 26.14 33.056 32.704 18.052 8.792 5.275 8.323 208.653 8.323s190.601.469 208.653-8.323c13.363-6.564 26.726-19.81 33.056-32.705 7.737-15.707 8.089-18.872 7.737-71.387l-.352-46.654-3.165-4.571c-5.157-7.268-10.55-10.316-19.576-10.785-9.612-.469-16.528 2.696-21.803 10.198l-3.516 5.04-.586 45.248-.586 45.365-2.931 5.274c-1.641 2.814-5.275 6.8-7.971 8.792l-5.158 3.517-181.223.351c-126.481.235-182.63 0-185.678-.937-5.744-1.642-11.018-6.213-14.183-12.191l-2.58-4.806-.585-157.78-.587-157.779-3.164-4.571C46.597 85.018 41.205 81.97 32.179 81.5c-6.447-.351-8.675.118-13.012 2.345z"/>
</svg>
