<?xml version="1.0" encoding="iso-8859-1"?>
<!-- Generator: Adobe Illustrator 19.1.0, SVG Export Plug-In . SVG Version: 6.00 Build 0)  -->
<svg version="1.1" id="Capa_1" xmlns="http://www.w3.org/2000/svg" xmlns:xlink="http://www.w3.org/1999/xlink" x="0px" y="0px"
	 viewBox="0 0 399.446 399.446" style="enable-background:new 0 0 399.446 399.446;" xml:space="preserve">
<g>
	<g>
		<path id="path4901-4-4" style="fill:#222222;" d="M358.82,57.274c-9.763-9.763-25.592-9.763-35.355,0
			c-0.413,0.414-0.812,0.842-1.195,1.283C250.132,2.66,149.305,2.685,77.194,58.617c-0.389-0.462-0.794-0.91-1.215-1.342
			c-9.763-9.763-25.592-9.763-35.355,0s-9.763,25.592,0,35.355c0.414,0.413,0.842,0.812,1.283,1.195
			c-55.877,72.112-55.876,172.897,0.003,245.007l-1.286,1.286c-9.763,9.763-9.763,25.592,0,35.355s25.592,9.763,35.355,0
			l17.678-17.678c9.763-9.763,9.763-25.592,0-35.355c-58.579-58.579-58.579-153.553,0-212.132s153.553-58.579,212.132,0
			s58.579,153.553,0,212.132c-9.763,9.763-9.763,25.592,0,35.355l17.678,17.678c9.763,9.763,25.592,9.763,35.355,0
			s9.763-25.592,0-35.355l-1.244-1.244c55.86-72.138,55.82-172.935-0.098-245.028c0.462-0.389,0.91-0.794,1.342-1.215
			C368.584,82.866,368.584,67.037,358.82,57.274L358.82,57.274z M245.389,98.128c-3.223-3.543-7.395-6.085-12.021-7.325
			c-13.337-3.573-27.045,4.341-30.618,17.678l-15.987,59.665c-17.231,4.617-30.696,18.064-35.337,35.288
			c-7.147,26.673,8.682,54.089,35.355,61.237c26.673,7.147,54.089-8.682,61.237-35.355c4.6-17.241-0.337-35.626-12.954-48.243
			l15.983-59.65C253.248,113.2,251.117,104.423,245.389,98.128z"/>
	</g>
</g>
<g>
</g>
<g>
</g>
<g>
</g>
<g>
</g>
<g>
</g>
<g>
</g>
<g>
</g>
<g>
</g>
<g>
</g>
<g>
</g>
<g>
</g>
<g>
</g>
<g>
</g>
<g>
</g>
<g>
</g>
</svg>
