<?xml version="1.0" encoding="utf-8"?>
<!-- Generator: Adobe Illustrator 26.0.3, SVG Export Plug-In . SVG Version: 6.00 Build 0)  -->
<svg version="1.1" id="Camada_1" xmlns="http://www.w3.org/2000/svg" xmlns:xlink="http://www.w3.org/1999/xlink" x="0px" y="0px"
	 viewBox="0 0 170 170" style="enable-background:new 0 0 170 170;" xml:space="preserve">
<path d="M120.8,62.3L97.4,85.8l23.5,23.5c1.4,1.4,1.4,3.5,0,4.9l-7.5,7.5c-1.4,1.4-3.5,1.4-4.9,0L85,98.1l-23.5,23.5
	c-1.4,1.4-3.5,1.4-4.9,0l-7.5-7.5c-1.4-1.4-1.4-3.5,0-4.9l23.5-23.5L49.2,62.3c-1.4-1.4-1.4-3.5,0-4.9l7.5-7.5
	c1.4-1.4,3.5-1.4,4.9,0L85,73.4l23.5-23.5c1.4-1.4,3.5-1.4,4.9,0l7.5,7.5C122.2,58.7,122.2,60.9,120.8,62.3z M149.6,85.8
	c0,35.6-29,64.6-64.6,64.6s-64.6-29-64.6-64.6s29-64.6,64.6-64.6S149.6,50.1,149.6,85.8z M139.2,85.8c0-29.9-24.3-54.1-54.2-54.1
	S30.8,55.9,30.8,85.8s24.3,54.1,54.2,54.1S139.2,115.6,139.2,85.8z"/>
</svg>
