<?xml version="1.0" encoding="utf-8"?>
<!-- Generator: Adobe Illustrator 27.2.0, SVG Export Plug-In . SVG Version: 6.00 Build 0)  -->
<svg version="1.1" id="Layer_1" xmlns="http://www.w3.org/2000/svg" xmlns:xlink="http://www.w3.org/1999/xlink" x="0px" y="0px"
	 viewBox="0 0 32 28" style="enable-background:new 0 0 32 28;" xml:space="preserve">
<path d="M29,16.7C29,16.7,29,16.7,29,16.7c0-0.1-0.1-0.1-0.1-0.2c0-0.1-0.1-0.1-0.1-0.2c0,0-0.1-0.1-0.1-0.1c-0.1,0-0.1-0.1-0.2-0.1
	c0,0,0,0-0.1,0c0,0-0.1,0-0.1,0c-0.1,0-0.1,0-0.2,0c-0.1,0-0.1,0-0.2,0c0,0-0.1,0-0.1,0l-5.6,2.1c-0.5,0.2-0.8,0.8-0.6,1.3
	c0.2,0.5,0.8,0.8,1.3,0.6l3.7-1.4c-1.8,4.3-6,7.2-10.7,7.2c-5.3,0-10-3.7-11.4-9c-0.1-0.5-0.7-0.9-1.2-0.7c-0.5,0.1-0.9,0.7-0.7,1.2
	C4.1,23.7,9.5,28,15.8,28c5.5,0,10.4-3.3,12.5-8.3l1.8,3.5c0.2,0.3,0.5,0.5,0.9,0.5c0.2,0,0.3,0,0.5-0.1c0.5-0.3,0.7-0.9,0.4-1.3
	L29,16.7z"/>
<path d="M15.8,2c5.2,0,9.7,3.4,11.2,8.4c0.2,0.5,0.7,0.8,1.2,0.7c0.5-0.2,0.8-0.7,0.7-1.2C27.1,4,21.8,0,15.8,0
	C10.5,0,5.8,3,3.5,7.7L1.9,4.2C1.7,3.7,1.1,3.5,0.6,3.7C0.1,4-0.1,4.6,0.1,5.1l2.6,5.5c0,0,0,0,0,0c0,0,0,0,0,0.1
	c0,0.1,0.1,0.1,0.2,0.2c0,0,0,0,0.1,0.1c0.1,0.1,0.2,0.1,0.3,0.2c0,0,0,0,0,0c0,0,0,0,0,0c0.1,0,0.2,0,0.3,0l0,0l0,0c0,0,0,0,0,0
	c0.1,0,0.2,0,0.3,0l5.7-1.6c0.5-0.1,0.8-0.7,0.7-1.2c-0.1-0.5-0.7-0.8-1.2-0.7l-3.8,1C7.2,4.6,11.2,2,15.8,2z"/>
</svg>
