<?xml version="1.0" encoding="utf-8"?>
<!-- Generator: Adobe Illustrator 27.2.0, SVG Export Plug-In . SVG Version: 6.00 Build 0)  -->
<svg version="1.1" id="Camada_1" xmlns="http://www.w3.org/2000/svg" xmlns:xlink="http://www.w3.org/1999/xlink" x="0px" y="0px"
	 viewBox="0 0 84.8 106.4" style="enable-background:new 0 0 84.8 106.4;" xml:space="preserve">
<path d="M69,0.1H15.8C7,0.1-0.1,7.1-0.1,15.8v74.9c0,8.6,7.1,15.7,15.9,15.7h53.1c8.8,0,15.9-7,15.9-15.7V15.8
	C84.9,7.1,77.8,0.1,69,0.1z M68.1,75.6c0,1.5-1.3,2.8-2.8,2.8H18.7c-1.5,0-2.8-1.3-2.8-2.8v-4.8c0-1.5,1.3-2.8,2.8-2.8h46.6
	c1.5,0,2.8,1.3,2.8,2.8V75.6z M69.9,32.2L54.7,50.4c-1.3,1.5-3.3,2.2-5.2,1.8l-19.9-4.5l-7.5,10.1c-1.1,1.5-3.3,1.9-4.9,0.7l-2.8-2
	c-1.5-1.1-1.9-3.3-0.7-4.9l9.5-12.9c1.2-1.7,3.3-2.4,5.3-2l20.1,4.5l13.1-15.8c1.2-1.5,3.4-1.7,4.9-0.4l2.7,2.2
	C70.9,28.5,71.1,30.7,69.9,32.2z"/>
</svg>
