<?xml version="1.0" encoding="utf-8"?>
<!-- Generator: Adobe Illustrator 27.1.1, SVG Export Plug-In . SVG Version: 6.00 Build 0)  -->
<svg version="1.1" id="Camada_1" xmlns="http://www.w3.org/2000/svg" xmlns:xlink="http://www.w3.org/1999/xlink" x="0px" y="0px"
	 viewBox="0 0 107.3 122.6" style="enable-background:new 0 0 107.3 122.6;" xml:space="preserve">
<path d="M66.4,86.1c0-2.4,2-4.4,4.4-4.4h36.5l-40.9,40.9C66.4,122.6,66.4,86.1,66.4,86.1z M107.2,6.1v70.5H67.4
	c-3.4,0-6.1,2.7-6.1,6.1v39.9H6.1c-3.4,0-6.1-2.7-6.1-6.1V6.1C0,2.7,2.7,0,6.1,0h95.1C104.5,0,107.2,2.7,107.2,6.1z M56.2,76.6H25.5
	v10.2h30.7C56.2,86.8,56.2,76.6,56.2,76.6z M76.6,51.1H25.5v10.2h51.1V51.1z M76.6,25.5H25.5v10.3h51.1V25.5z"/>
</svg>
