<?xml version="1.0" encoding="utf-8"?>
<!-- Generator: Adobe Illustrator 27.2.0, SVG Export Plug-In . SVG Version: 6.00 Build 0)  -->
<svg version="1.1" id="Camada_1" xmlns="http://www.w3.org/2000/svg" xmlns:xlink="http://www.w3.org/1999/xlink" x="0px" y="0px"
	 viewBox="0 0 97 85.7" style="enable-background:new 0 0 97 85.7;" xml:space="preserve">
<path d="M97,64.9c-0.1-3-0.3-6.1-0.6-9.1c-0.2-2.3-0.4-4.8-0.8-7.4c-0.2-2-0.5-3.9-0.8-5.6c-0.4-2.9-0.9-5.1-1.5-7l-0.6-2.2l0-0.1
	c-0.1-0.2-0.1-0.4-0.2-0.6c-0.5-1.2-0.9-2.1-1.3-2.8L90.9,30c-4.6-7.4-8.4-12.6-9.7-14.1l0,0c-1.9-2.2-4.6-3.5-7.4-3.5H48.7
	c-0.4-4.9-4.5-8.7-9.5-8.7H17V75h22.1h9.6h6.4c2.2,6.2,8,10.6,14.9,10.6c6.9,0,12.8-4.5,14.9-10.6h2.9l0.1,0
	c2.6-0.1,4.9-1.2,6.7-3.1C96.3,70,97.2,67.5,97,64.9z M38.4,64.6h-11V13.9h11V64.6z M70,75.3c-3,0-5.4-2.5-5.4-5.5
	c0-3,2.4-5.5,5.4-5.5c3,0,5.4,2.5,5.4,5.5C75.5,72.8,73,75.3,70,75.3z M70.1,51.5c-4.5,0-8.8,1.7-12.2,4.7c-2.5,2.2-4.4,5.1-5.3,8.4
	h-3.1v-42h24c0.6,0.8,3.9,5,8.6,12.6c0.1,0.2,0.3,0.7,0.6,1.4c0,0.1,0.1,0.3,0.1,0.4l0.5,1.8c0.5,1.4,0.8,3.2,1.2,5.5l0.1,0.3
	c0.3,1.4,0.5,3,0.7,4.8l0,0.2c0.3,2.4,0.6,4.7,0.8,6.9l0,0.1c0.2,1.7,0.3,3.4,0.4,5.2C83.5,55.7,77.3,51.5,70.1,51.5z M71.7,28
	c0.6,0.8,7.9,13.8,8.4,16.8H52.7V28H71.7z M0,0h10.4v78.3H0V0z"/>
</svg>
