<?xml version="1.0" encoding="utf-8"?>
<!-- Generator: Adobe Illustrator 27.1.1, SVG Export Plug-In . SVG Version: 6.00 Build 0)  -->
<svg version="1.1" id="Camada_1" xmlns="http://www.w3.org/2000/svg" xmlns:xlink="http://www.w3.org/1999/xlink" x="0px" y="0px"
	 viewBox="0 0 113 113" style="enable-background:new 0 0 113 113;" xml:space="preserve">
<path d="M83.9,73.5L62.3,33.3c-2.5-4.6-9.1-4.6-11.6,0L29.1,73.5c-2.4,4.4,0.8,9.7,5.8,9.7h43.3C83.1,83.2,86.3,77.9,83.9,73.5z
	 M53.5,45.2c0-1,0.8-1.8,1.8-1.8h2.5c1,0,1.8,0.8,1.8,1.8V60c0,1-0.8,1.8-1.8,1.8h-2.5c-1,0-1.8-0.8-1.8-1.8V45.2z M61,72.7
	c0,1.3-1.1,2.4-2.4,2.4h-4.2c-1.3,0-2.4-1.1-2.4-2.4v-4.2c0-1.3,1.1-2.4,2.4-2.4h4.2c1.3,0,2.4,1.1,2.4,2.4V72.7z"/>
<g>
	<rect x="37.7" width="37.7" height="12.6"/>
	<rect x="37.7" y="100.4" width="37.7" height="12.6"/>
	<rect y="37.7" width="12.6" height="37.7"/>
	<path d="M81.6,12.6h18.8v18.8H113V7c0-3.9-3.1-7-7-7H81.6V12.6z"/>
	<path d="M31.4,100.4H12.6V81.6H0V106c0,3.9,3.1,7,7,7h24.4V100.4z"/>
	<rect x="100.4" y="37.7" width="12.6" height="37.7"/>
	<path d="M100.4,81.6v18.8H81.6V113H106c3.9,0,7-3.1,7-7V81.6H100.4z"/>
	<path d="M12.6,31.4V12.6h18.8V0H7C3.1,0,0,3.1,0,7v24.4H12.6z"/>
</g>
</svg>
