<?xml version="1.0" encoding="utf-8"?>
<!-- Generator: Adobe Illustrator 27.1.1, SVG Export Plug-In . SVG Version: 6.00 Build 0)  -->
<svg version="1.1" id="Camada_1" xmlns="http://www.w3.org/2000/svg" xmlns:xlink="http://www.w3.org/1999/xlink" x="0px" y="0px"
	 viewBox="0 0 102.5 119.5" style="enable-background:new 0 0 102.5 119.5;" xml:space="preserve">
<path d="M85.5,0H17C7.6,0,0,7.7,0,17.1v64.8c0,9.5,7.7,17.1,17,17.1h28v5.9H12.9c-1.5,0-2.8,1.3-2.8,2.8v9c0,1.5,1.3,2.8,2.8,2.8
	h76.8c1.5,0,2.8-1.3,2.8-2.8v-8.9c0-1.5-1.3-2.8-2.8-2.8H58V99h27.5c9.5,0,17-7.7,17-17.1l0,0V17.1C102.5,7.7,94.9,0,85.5,0z
	 M51.3,85.7c-20,0-36.2-16.2-36.2-36.2s16.2-36.2,36.2-36.2s36.2,16.2,36.2,36.2S71.3,85.7,51.3,85.7z"/>
<path d="M51.3,23.8c-14.2,0-25.7,11.5-25.7,25.7S37,75.2,51.3,75.2s25.7-11.5,25.7-25.7S65.5,23.8,51.3,23.8z M55.4,53.6
	c-4.5,0-8.3-3.7-8.3-8.3l0,0c0-4.5,3.7-8.3,8.3-8.3s8.3,3.7,8.3,8.3C63.6,50,59.9,53.6,55.4,53.6z"/>
</svg>
