<?xml version="1.0" encoding="utf-8"?>
<!-- Generator: Adobe Illustrator 25.3.1, SVG Export Plug-In . SVG Version: 6.00 Build 0)  -->
<svg version="1.1" id="Camada_1" xmlns="http://www.w3.org/2000/svg" xmlns:xlink="http://www.w3.org/1999/xlink" x="0px" y="0px"
	 viewBox="0 0 170 170" style="enable-background:new 0 0 170 170;" xml:space="preserve">
<style type="text/css">
	.st0{fill:#383838;}
</style>
<path id="Caminho_32" class="st0" d="M88.2,67.4c0,0,22.5-15.3,22.5-33.2c0-12.4-10.1-22.5-22.5-22.5S65.7,21.7,65.7,34.1l0,0
	C65.8,52,88.2,67.4,88.2,67.4z M88.2,26.5c4.2-0.1,7.7,3.3,7.8,7.5c0.1,4.2-3.3,7.7-7.5,7.8c-4.2,0.1-7.7-3.3-7.8-7.5
	c0-0.1,0-0.1,0-0.2C80.7,30,84,26.6,88.2,26.5z M131.7,107.7c-11.2,10.7-28.9,10.7-40.1,0L70.4,86.3c-5.8-5.8-15.2-5.8-21,0
	c-5.8,5.8-5.8,15.2,0,21l21.5,21.5c7.6-2.1,15.5,2.5,17.6,10.1s-2.5,15.5-10.1,17.6s-15.5-2.5-17.6-10.1c-0.7-2.4-0.7-5,0-7.4
	l-21.5-21.5c-11.4-11.4-11.4-29.9,0-41.3c11.4-11.4,29.9-11.4,41.3,0l21.3,21.3c5.5,5.5,14.3,5.5,19.8,0c5.5-5.5,5.5-14.3,0-19.8
	l-16.1-16.1l10.1-10.1l16.1,16.1C142.8,78.7,142.8,96.6,131.7,107.7z"/>
</svg>
