<?xml version="1.0" encoding="utf-8"?>
<!-- Generator: Adobe Illustrator 27.1.1, SVG Export Plug-In . SVG Version: 6.00 Build 0)  -->
<svg version="1.1" id="Camada_1" xmlns="http://www.w3.org/2000/svg" xmlns:xlink="http://www.w3.org/1999/xlink" x="0px" y="0px"
	 viewBox="0 0 127 126.9" style="enable-background:new 0 0 127 126.9;" xml:space="preserve">
<g>
	<path d="M123,24.4L102.6,4c-2.6-2.6-6-4-9.6-4h-1.6H15.2h-1.7C6,0,0,6.1,0,13.5v99.9c0,7.5,6.1,13.5,13.5,13.5h100
		c7.5,0,13.5-6.1,13.5-13.5V34C127,30.4,125.6,27,123,24.4z M33,10.2V21c0,1,0.8,1.9,1.9,1.9h11.5c1,0,1.9-0.8,1.9-1.9V10.2h33v20.3
		H25.4V10.2H33z M99.1,116.8H27.9V68.6H99L99.1,116.8L99.1,116.8z M116.8,113.5c0,1.9-1.5,3.4-3.4,3.4h-4.2v-49
		c0-5.2-4.2-9.5-9.5-9.5H27.2c-5.2,0-9.5,4.2-9.5,9.5v49h-4.2c-1.9,0-3.4-1.5-3.4-3.4v-100c0-1.9,1.5-3.4,3.4-3.4h1.7v21
		c0,5.2,4.2,9.5,9.5,9.5H82c5.2,0,9.5-4.2,9.5-9.5v-21h1.6c0.9,0,1.8,0.4,2.4,1l20.4,20.4c0.6,0.6,1,1.5,1,2.4L116.8,113.5
		L116.8,113.5z"/>
	<rect x="33" y="78.7" width="61" height="10.2"/>
	<rect x="33" y="94" width="61" height="10.2"/>
</g>
</svg>
