<?xml version="1.0" encoding="utf-8"?>
<!-- Generator: Adobe Illustrator 25.3.1, SVG Export Plug-In . SVG Version: 6.00 Build 0)  -->
<svg version="1.1" id="Camada_1" xmlns="http://www.w3.org/2000/svg" xmlns:xlink="http://www.w3.org/1999/xlink" x="0px" y="0px"
	 viewBox="0 0 38 40.7" style="enable-background:new 0 0 38 40.7;" xml:space="preserve">
<path id="icone_busca" class="st0" d="M36,34.9l-6.4-6.4c5.4-6.8,4.3-16.7-2.5-22.2S10.4,2,5,8.8S0.6,25.5,7.4,30.9
	c5.8,4.6,13.9,4.6,19.7,0l6.4,6.4c0.7,0.7,1.8,0.6,2.5-0.1C36.7,36.6,36.7,35.6,36,34.9L36,34.9z M5.1,18.7
	c0-6.8,5.5-12.2,12.2-12.2s12.2,5.5,12.2,12.2c0,3.2-1.3,6.3-3.6,8.6l0,0c0,0,0,0,0,0c-4.8,4.8-12.5,4.7-17.3-0.1
	C6.4,25,5.1,21.9,5.1,18.7z"/>
</svg>
