<svg xmlns="http://www.w3.org/2000/svg" viewBox="0 0 43.65 39.64"><g id="Camada_2" data-name="Camada 2"><g id="Camada_1-2" data-name="Camada 1"><path d="M18.71,27.6a9.62,9.62,0,0,0,5.71,2.86v8.71L13.9,34.06V.41l10.52,5.1V10.7a10.14,10.14,0,0,0-5.71,2.85,10,10,0,0,0-2.93,7.07A9.37,9.37,0,0,0,18.71,27.6Zm17-7a9.81,9.81,0,0,1-2.1,6.08l6.24,6.24L39.67,1.23a1.21,1.21,0,0,0-.6-1A1.34,1.34,0,0,0,37.87.1L27,5.51V10.7a10.31,10.31,0,0,1,5.86,2.85A9.89,9.89,0,0,1,35.76,20.62ZM11.27.52l.07,0h-.07ZM0,7.54V38.35a1.32,1.32,0,0,0,.6,1.12,1.27,1.27,0,0,0,1.28,0l9.39-5.26V.52L.68,6.42A1.37,1.37,0,0,0,0,7.54ZM27,30.46v8.71l11.12-4.5-6.23-6.24A9.06,9.06,0,0,1,27,30.46Zm6.24-9.84A7.44,7.44,0,1,0,31,25.88,7.36,7.36,0,0,0,33.21,20.62ZM43.28,36.17,40,32.86l-.07.23a1.36,1.36,0,0,1-.76,1.2l-1,.38,3.3,3.3a1.28,1.28,0,0,0,1.81-1.8Z"/></g></g></svg>