<?xml version="1.0" encoding="utf-8"?>
<!-- Generator: Adobe Illustrator 26.2.1, SVG Export Plug-In . SVG Version: 6.00 Build 0)  -->
<svg version="1.1" id="Camada_1" xmlns="http://www.w3.org/2000/svg" xmlns:xlink="http://www.w3.org/1999/xlink" x="0px" y="0px"
	 viewBox="0 0 31.4 25.8" style="enable-background:new 0 0 31.4 25.8;" xml:space="preserve">
<style type="text/css">
	.st0{fill:#DBDBDB;}
	.st1{fill:#7B7B7B;}
</style>
<path class="st0" d="M20.8,25.4h-10c-5.5,0-10-4.5-10-10v-5c0-5.5,4.5-10,10-10h10c5.5,0,10,4.5,10,10v5
	C30.8,20.9,26.3,25.4,20.8,25.4z M10.8,1.4c-5,0-9,4-9,9v5c0,5,4,9,9,9h10c5,0,9-4,9-9v-5c0-5-4-9-9-9H10.8z"/>
<path id="Caminho_10" class="st1" d="M9.8,16.9l6.1-6.1l6.1,6.1l0.9-0.9l-7-7l-7,7L9.8,16.9z"/>
</svg>
