<svg version="1.1" xmlns="http://www.w3.org/2000/svg" xmlns:xlink="http://www.w3.org/1999/xlink" x="0px" y="0px" width="458.123px" height="458.123px" viewBox="0 0 458.123 458.123" xml:space="preserve">
  <path d="M201.777,401.234c-6.124-4.595-12.371-10.064-18.551-16.245c-0.471-0.473-61.162-61.307-93.851-94.034
			c-2.761-2.765-6.653-4.079-10.526-3.554c-3.871,0.525-7.274,2.831-9.197,6.231c-3.799,6.715-5.324,12.845-4.532,18.218
			c1.358,9.223,9.004,18.481,20.035,29.511l65.832,66.311c11.021,11.021,20.251,18.64,29.478,20
			c0.929,0.137,1.893,0.206,2.866,0.206c5.283,0,11.204-2.04,17.6-6.063c3.483-2.191,5.665-5.956,5.833-10.067
			C206.934,407.636,205.069,403.704,201.777,401.234z"/>
  <path d="M356.229,246.735l-3.666-4.333c-0.992-1.187-1.975-2.337-2.955-3.458c-0.039-0.045-0.08-0.089-0.119-0.133
			c-2.854-3.171-6.051-6.531-9.506-9.983l-1.201-1.202c-0.088-0.088-0.178-0.175-0.27-0.26
			c-29.479-27.77-55.748-28.096-83.566-28.44c-17.805-0.22-34.624-0.428-52.621-7.072c-17.623-6.506-33.936-20.103-44.756-37.304
			c-10.137-16.115-13.78-33.249-9.747-45.828c0.144-0.45,0.323-0.949,0.532-1.488l17.321-17.319
			c9.779-9.78,9.779-25.693-0.001-35.475l-19.146-19.146c-2.344-2.344-5.523-3.661-8.839-3.661s-6.495,1.317-8.839,3.661
			L3.661,160.483C1.317,162.828,0,166.008,0,169.322c0,3.315,1.317,6.495,3.661,8.84l19.146,19.145
			c4.738,4.738,11.038,7.348,17.737,7.348c6.699,0,12.999-2.608,17.737-7.347l15.548-15.548
			c8.873,16.078,10.264,31.474,11.499,45.147c1.27,14.042,2.187,24.188,10.401,32.401
			c26.045,26.046,105.997,106.187,106.503,106.695c18.564,18.562,34.997,27.587,50.233,27.587c1.48,0,2.969-0.087,4.42-0.26
			c13.299-1.567,26.965-10.003,44.312-27.352l39.107-39.107c21.307-21.308,30.252-34.844,30.873-46.723
			c0.48-9.198-4.326-20.028-14.697-33.107C356.398,246.938,356.314,246.836,356.229,246.735z"/>
  <path d="M454.461,159.098L329.271,33.906c-4.883-4.882-12.797-4.882-17.678,0l-19.145,19.146c-9.781,9.781-9.781,25.695,0,35.476
			l5.707,5.708c-19.286,12.094-48.024,25.681-79.774,25.683c-9.262,0-18.341-1.195-27.029-3.564
			c-4.653-1.302-9.648,0.195-12.818,3.858c-3.222,3.723-3.958,8.99-1.882,13.453c5.202,11.181,17.484,26.527,34.978,32.986
			c13.652,5.041,28.898,5.23,43.643,5.413c30.422,0.376,68.283,0.846,108.289,42.371c2.396,2.488,5.662,3.828,9.004,3.828
			c1.348,0,2.709-0.219,4.029-0.668c4.59-1.562,7.859-5.641,8.393-10.46c0.908-8.217,2.338-15.192,4.449-21.619l10.406,10.404
			c4.736,4.738,11.037,7.347,17.738,7.347c6.699,0,12.998-2.608,17.736-7.348l19.145-19.146
			C459.344,171.894,459.344,163.979,454.461,159.098z"/>
</svg>
