<?xml version="1.0" encoding="utf-8"?>
<!-- Generator: Adobe Illustrator 26.3.1, SVG Export Plug-In . SVG Version: 6.00 Build 0)  -->
<svg version="1.1" id="Camada_1" xmlns="http://www.w3.org/2000/svg" xmlns:xlink="http://www.w3.org/1999/xlink" x="0px" y="0px"
	 viewBox="0 0 170 170" style="enable-background:new 0 0 170 170;" xml:space="preserve">
<g>
	<path d="M85.1,92.3c3.8,0,6.8-3,6.8-6.8c0-3.8-3-6.8-6.8-6.8c-3.8,0-6.8,3-6.8,6.8C78.3,89.3,81.4,92.3,85.1,92.3z"/>
	<path d="M85.1,13.1C85.1,13.1,85.1,13.1,85.1,13.1c-40,0-72.5,32.4-72.5,72.4c0,40,32.4,72.4,72.4,72.4c40,0,72.4-32.4,72.4-72.4
		C157.6,45.5,125.1,13.1,85.1,13.1z M103.8,44.1L103.8,44.1l4.6-7.8c1.4-2.1,4.2-2.6,6.3-1.2c1.8,1.3,2.5,3.7,1.5,5.7l-4.5,7.8
		c-0.8,1.4-2.3,2.3-3.9,2.3c-2.5,0-4.5-2-4.5-4.5C103.2,45.6,103.4,44.8,103.8,44.1z M80.6,31.2c0-2.5,2-4.5,4.5-4.5
		c2.5,0,4.5,2,4.5,4.5v9.1c0,2.5-2,4.5-4.5,4.5c-2.5,0-4.5-2-4.5-4.5V31.2z M73.6,74.7c6-6.4,16-6.6,22.4-0.6l34-19.6
		c0,0,0.1,0,0.1-0.1c2.2-1.2,4.9-0.4,6.2,1.8c1.2,2.2,0.4,4.9-1.8,6.2l-33.9,19.6c0.3,1.3,0.5,2.6,0.5,4
		c-0.1,8.7-7.2,15.6-15.9,15.5l0,0c-4,0-7.9-1.5-10.9-4.3C67.9,91.1,67.6,81.1,73.6,74.7z M34.2,56.1c1.3-2.2,4-2.9,6.2-1.6l7.8,4.5
		c2.2,1.2,2.9,4,1.7,6.2c0,0,0,0,0,0l0,0c-0.8,1.4-2.3,2.3-3.9,2.3c-0.8,0-1.6-0.2-2.3-0.6l-7.8-4.5C33.6,61,32.9,58.3,34.2,56.1z
		 M26.3,85.5c0-2.5,2-4.5,4.5-4.5h9.1c2.5,0,4.5,2,4.5,4.5c0,2.5-2,4.5-4.5,4.5h-9.1C28.3,90.1,26.3,88.1,26.3,85.5z M48.2,112.1
		C48.2,112.1,48.2,112.1,48.2,112.1l-7.9,4.5c-0.7,0.4-1.5,0.6-2.3,0.6c-2.5,0-4.5-2-4.5-4.5c0-1.6,0.9-3.1,2.3-3.9l7.8-4.5
		c2.2-1.3,4.9-0.5,6.2,1.6c0,0,0,0,0,0l0,0C51.1,108.1,50.4,110.9,48.2,112.1z M64.8,50.3C64.8,50.3,64.7,50.3,64.8,50.3
		c-0.7,0.4-1.5,0.6-2.3,0.6c-1.6,0-3.1-0.9-3.9-2.3L54,40.8c-1.3-2.2-0.5-4.9,1.7-6.2c2.2-1.3,4.9-0.5,6.2,1.7l4.5,7.8
		C67.7,46.2,66.9,49,64.8,50.3z M103.2,126.3c0,2.5-2,4.5-4.5,4.5c0,0,0,0,0,0H71.5c-2.5,0-4.5-2-4.5-4.5c0-2.5,2-4.5,4.5-4.5h27.2
		C101.2,121.8,103.2,123.8,103.2,126.3C103.2,126.3,103.2,126.3,103.2,126.3z M136.1,115C136.1,115,136.1,115,136.1,115
		C136.1,115,136.1,115,136.1,115L136.1,115C136.1,115,136.1,115,136.1,115c-1.2,2.2-4,2.9-6.2,1.7c0,0,0,0,0,0l-7.8-4.5
		c-2.2-1.3-2.9-4-1.7-6.2c1.3-2.2,4-2.9,6.2-1.7l7.8,4.5C136.6,110.1,137.3,112.8,136.1,115z M139.4,90.1
		C139.4,90.1,139.4,90.1,139.4,90.1h-9.1c-2.5,0-4.5-2-4.5-4.5c0-2.5,2-4.5,4.5-4.5h9.1c2.5,0,4.5,2,4.5,4.5c0,0,0,0,0,0
		C143.9,88.1,141.9,90.1,139.4,90.1z"/>
</g>
</svg>
