<?xml version="1.0" encoding="utf-8"?>
<!-- Svg Vector Icons : http://www.onlinewebfonts.com/icon -->
<!DOCTYPE svg PUBLIC "-//W3C//DTD SVG 1.1//EN" "http://www.w3.org/Graphics/SVG/1.1/DTD/svg11.dtd">
<svg version="1.1" xmlns="http://www.w3.org/2000/svg" xmlns:xlink="http://www.w3.org/1999/xlink" x="0px" y="0px" viewBox="0 0 1000 1000" enable-background="new 0 0 1000 1000" xml:space="preserve">
<metadata> Svg Vector Icons : http://www.onlinewebfonts.com/icon </metadata>
<g><g><path d="M483.6,236.7L483.6,236.7L483.6,236.7l0-38.9v-77.9h0h32.9v116.8h0v0l-16.4,0H483.6z M87.4,630.3l82-14.5l33.1-5.8v0h0l-2.9-16.3l-2.8-16h0v0L81.7,597.9L87.4,630.3z M814.5,341l-59.1,34.1v0l0,0l9.1,15.8l7.3,12.6l0,0l101.2-58.4l-16.4-28.5L814.5,341z M303.9,774.7l-13-10.9l0,0l0,0l-75.1,89.5l25.2,21.1l32.7-39l42.4-50.5l0,0L303.9,774.7z M856.1,766.6l16.4-28.5l-35.3-20.4l-65.9-38.1v0l0,0l-9.1,15.7l-7.3,12.7l0,0v0L856.1,766.6z M81.8,483.9l41,7.2l74,13.1v0h0l4.9-27.8l0.8-4.6v0L87.5,451.5L81.8,483.9z M911.8,452.4l-31.3,5.5l-83.8,14.8v0h0l4.2,24l1.5,8.4l0,0v0l115.1-20.3L911.8,452.4z M380.4,260.6L380.4,260.6l26.7-9.7l4.2-1.5h0l-39.9-109.8l-30.9,11.3l5.7,15.7L380.4,260.6L380.4,260.6z M142.6,765.9l101.2-58.4v0l0,0l-12.7-21.9l-3.8-6.5l0,0l0,0l-101.2,58.4L142.6,765.9L142.6,765.9L142.6,765.9z M682.5,785.4l75.1,89.5l25.2-21.1v0l-75.1-89.5v0v0L690.2,779L682.5,785.4L682.5,785.4z M126.6,344.5L126.6,344.5l101.2,58.4l0,0l14.2-24.7l2.2-3.8v0L143.1,316L126.6,344.5z M917.4,598.7L917.4,598.7l-115.1-20.3l-1.2,6.9l-4.5,25.4l115.1,20.3L917.4,598.7z M241.6,207.7l-25.2,21.1l27.6,32.9l47.5,56.6l0,0l0,0l14.9-12.5l10.3-8.6l0,0l0,0L241.6,207.7z M618.8,166.9l-30.1,82.7l0,0l0,0l20.6,7.5l10.3,3.7l0,0h0l40-109.8l-30.9-11.2L618.8,166.9z M701.9,313.5l6.4,5.3l0,0l0,0l75.1-89.5l-25.2-21.1h0l0,0l-75.1,89.5l0,0v0L701.9,313.5z M500,62.9c-270.2,0-490,219.8-490,490c0,155.6,73,294.5,186.5,384.3h49.6c-124.6-82.6-206.9-224-206.9-384.3C39.2,298.8,245.9,92.1,500,92.1c254.1,0,460.8,206.7,460.8,460.8c0,160.3-82.3,301.7-206.9,384.3h49.6C917,847.3,990,708.5,990,552.9C990,282.7,770.2,62.9,500,62.9z M404.4,767.4c10.3,0,15.4-10.2,15.4-30.7c0-21.2-5-31.8-15.1-31.8c-10.6,0-15.9,10.8-15.9,32.3C388.7,757.4,394,767.4,404.4,767.4z M360.4,668.6h87.1V805h-87.1V668.6z M380,737.7c0,12,2.1,21.1,6.2,27.4c4.1,6.3,9.9,9.5,17.3,9.5c7.9,0,14-3.3,18.4-9.9c4.4-6.6,6.6-16.2,6.6-28.8c0-25.4-7.8-38.1-23.3-38.1c-8.1,0-14.3,3.3-18.6,10.1C382.2,714.6,380,724.5,380,737.7z M459,668.6h85.6V805H459V668.6z M481.5,771.5c3.4,2,8.5,3.1,15.4,3.1c8.2,0,14.6-2.2,19.3-6.6c4.7-4.4,7-10.2,7-17.4c0-6.9-2.2-12.4-6.5-16.4c-4.4-4-10.5-6-18.5-6c-1.9,0-4,0.1-6.3,0.2v-21.8h27.9V699h-36v37.3c5.7-0.4,9.6-0.6,11.7-0.6c6.1,0,10.8,1.4,14.1,4.1c3.3,2.7,4.9,6.5,4.9,11.4c0,4.9-1.6,8.9-4.8,11.8c-3.2,3-7.4,4.5-12.7,4.5c-5.3,0-10.4-1.6-15.5-4.9L481.5,771.5L481.5,771.5z M553.5,668.6h86.1V805h-86.1V668.6z M574.9,737.7c0,12,2.1,21.1,6.2,27.4c4.1,6.3,9.9,9.5,17.3,9.5c7.9,0,14-3.3,18.4-9.9c4.4-6.6,6.6-16.2,6.6-28.8c0-25.4-7.8-38.1-23.3-38.1c-8.1,0-14.3,3.3-18.6,10.1C577,714.6,574.9,724.5,574.9,737.7z M599.2,767.4c10.3,0,15.4-10.2,15.4-30.7c0-21.2-5-31.8-15.1-31.8c-10.6,0-15.9,10.8-15.9,32.3C583.6,757.4,588.8,767.4,599.2,767.4z M514.3,598.2c-2.1,0-3.9,0.7-5.8,1.1L284,401.2l199.8,224.9c-0.1,1.1-0.7,2.2-0.7,3.3c0,17.3,14,31.3,31.3,31.3c17.2,0,31.1-14,31.1-31.3C545.5,612.2,531.5,598.2,514.3,598.2z"/></g><g></g><g></g><g></g><g></g><g></g><g></g><g></g><g></g><g></g><g></g><g></g><g></g><g></g><g></g><g></g></g>
</svg>