<?xml version="1.0" encoding="utf-8"?>
<!-- Generator: Adobe Illustrator 26.0.3, SVG Export Plug-In . SVG Version: 6.00 Build 0)  -->
<svg version="1.1" id="Camada_1" xmlns="http://www.w3.org/2000/svg" xmlns:xlink="http://www.w3.org/1999/xlink" x="0px" y="0px"
	 viewBox="0 0 43.5 43.5" style="enable-background:new 0 0 43.5 43.5;" xml:space="preserve">
<path id="Icone_Velocidade" d="M18.9,21.7c0,1.7,1.4,3.1,3.1,3.1c1.2,0,2.3-0.6,2.8-1.7l0,0l5.7-10.3l-10,6.2v0
	C19.5,19.6,18.9,20.6,18.9,21.7z M34.6,6.8c-3.3-2.9-7.6-4.6-12-4.9v4.8c3.2,0.1,6.2,1.3,8.5,3.5L34.6,6.8z M36.8,20.3h4.7
	c-0.3-4.4-2-8.6-5-11.8l-3.3,3.3C35.2,14.2,36.5,17.1,36.8,20.3z M36.8,22.6c-0.5,7.9-7,14.1-14.9,14.2c-8.3,0.1-15.1-6.6-15.2-14.9
	C6.6,14.1,12.5,7.5,20.2,6.7V2C9.3,2.8,1.2,12.3,2,23.3c0.8,10.3,9.4,18.3,19.8,18.3c10.5-0.1,19.2-8.4,19.8-18.9L36.8,22.6z"/>
</svg>
