<?xml version="1.0" encoding="UTF-8" standalone="no"?>
<svg xmlns="http://www.w3.org/2000/svg" xml:space="preserve" viewBox="0 0 512 512">
  <path d="M256 0C161.07 0 84.785 76.284 84.785 171.215 84.785 305.135 256 418.713 256 418.713s171.215-113.578 171.215-247.498C427.215 77.979 350.93 0 256 0Zm0 35.6c76.284 0 139.006 62.722 139.006 139.005 0 91.54-100.017 176.3-139.006 205.118-37.294-28.819-139.006-113.577-139.006-205.118C116.994 98.322 179.716 35.6 256 35.6Zm0 79.673c-32.209 0-57.637 25.429-57.637 57.637 0 32.209 25.428 57.637 57.637 57.637s57.637-25.428 57.637-57.637c0-32.208-25.428-57.637-57.637-57.637zm0 305.54a104.72 45.594 0 0 0-104.72 45.593A104.72 45.594 0 0 0 256 512a104.72 45.594 0 0 0 104.72-45.594A104.72 45.594 0 0 0 256 420.812Z"/>
</svg>
