<?xml version="1.0" encoding="UTF-8"?>
<svg width="800px" height="800px" viewBox="0 0 15 15" version="1.1" xmlns="http://www.w3.org/2000/svg">
  <path fill="#FFFFFF" d="M7.5,0C5.0676,0,2.2297,1.4865,2.2297,5.2703
	C2.2297,7.8378,6.2838,13.5135,7.5,15c1.0811-1.4865,5.2703-7.027,5.2703-9.7297C12.7703,1.4865,9.9324,0,7.5,0z"/>
  <circle cx="7.5" cy="5.2703" r="4.8"/>
  <g fill="#FFFFFF" transform="translate(2.5 0.19) scale(0.45)">
    <path d="M18.383 4.318c-.374-.155-.804-.069-1.09.217-1.264 1.263-3.321 1.264-4.586 0-2.045-2.043-5.37-2.043-7.414 0-.188.187-.293.442-.293.707v13c0 .552.447 1 1 1s1-.448 1-1v-4.553c1.271-.997 3.121-.911 4.293.26 2.045 2.043 5.371 2.043 7.414 0 .188-.188.293-.442.293-.707v-8c0-.405-.244-.769-.617-.924z"/>
  </g>
</svg>
