<?xml version="1.0" encoding="utf-8"?>
<!-- Generator: Adobe Illustrator 26.3.1, SVG Export Plug-In . SVG Version: 6.00 Build 0)  -->
<svg version="1.1" id="Camada_1" xmlns="http://www.w3.org/2000/svg" xmlns:xlink="http://www.w3.org/1999/xlink" x="0px" y="0px"
	 viewBox="0 0 170 170" style="enable-background:new 0 0 170 170;" xml:space="preserve">
<g>
	<g>
		<path d="M118.4,85.2c4.5,0,8.8,0.8,12.7,2.3c1.3-4.8,2-9.6,2-14.6c0-31.5-25.5-57-57-57s-57,25.5-57,57c0,44.3,57,82.3,57,82.3
			s5.3-3.5,12.6-9.6c-4.9-6.3-7.8-14.3-7.8-22.9C80.9,101.9,97.7,85.2,118.4,85.2z M57.1,72.8c0-10.5,8.5-19,19-19s19,8.5,19,19
			c0,10.5-8.5,19-19,19S57.1,83.3,57.1,72.8z"/>
	</g>
	<g>
		<path d="M118.4,90.2c-18,0-32.5,14.6-32.5,32.5c0,18,14.6,32.5,32.5,32.5s32.5-14.6,32.5-32.5C150.9,104.7,136.3,90.2,118.4,90.2z
			 M127.3,138.2l-13.6-13.6v-20.5h9.3v16.7l10.9,10.9L127.3,138.2z"/>
	</g>
</g>
</svg>
