<?xml version="1.0" encoding="utf-8"?>
<!-- Generator: Adobe Illustrator 25.3.1, SVG Export Plug-In . SVG Version: 6.00 Build 0)  -->
<svg version="1.1" id="Camada_1" xmlns="http://www.w3.org/2000/svg" xmlns:xlink="http://www.w3.org/1999/xlink" x="0px" y="0px"
	 viewBox="0 0 170 170" style="enable-background:new 0 0 170 170;" xml:space="preserve">
<style type="text/css">
	.st0{fill:#383838;}
</style>
<path id="icone_parada" class="st0" d="M136.4,58.1l-18-18l9-9l18,18L136.4,58.1z M139.7,94.1c0,31.6-25.6,57.2-57.1,57.2
	c-31.6,0-57.2-25.6-57.2-57.1c0-29.1,21.9-53.6,50.8-56.8v-6.7H63.5V17.9h38.1v12.7H88.9v6.7C117.8,40.5,139.6,65,139.7,94.1
	L139.7,94.1z M127,94.1c0-24.5-19.9-44.4-44.4-44.4S38.1,69.5,38.1,94.1s19.9,44.4,44.4,44.4C107.1,138.5,127,118.6,127,94.1
	C127,94.1,127,94.1,127,94.1L127,94.1z M88.9,113.1h12.7v-38H88.9V113.1z M63.5,113.1h12.7v-38H63.5V113.1z"/>
</svg>
