<?xml version="1.0" encoding="iso-8859-1"?>
<!-- Generator: Adobe Illustrator 19.0.0, SVG Export Plug-In . SVG Version: 6.00 Build 0)  -->
<svg version="1.1" id="Capa_1" xmlns="http://www.w3.org/2000/svg" xmlns:xlink="http://www.w3.org/1999/xlink" x="0px" y="0px"
	 viewBox="0 0 512 512" style="enable-background:new 0 0 512 512;" xml:space="preserve">
<g>
	<g>
		<g>
			<path d="M256,106.667c29.417,0,53.333-23.927,53.333-53.333S285.417,0,256,0s-53.333,23.927-53.333,53.333
				S226.583,106.667,256,106.667z M256,21.333c17.646,0,32,14.354,32,32c0,17.646-14.354,32-32,32s-32-14.354-32-32
				C224,35.688,238.354,21.333,256,21.333z"/>
			<path d="M320,365.405V320h21.333c5.896,0,10.667-4.771,10.667-10.667V182.125c0-10.948-5.25-20.906-14.063-26.635
				C309.875,137.26,289.479,128,256,128s-53.875,9.26-81.938,27.5C165.25,161.219,160,171.177,160,182.125v127.208
				c0,5.896,4.771,10.667,10.667,10.667H192v45.405c-80.908,6.865-170.667,29.309-170.667,71.928
				c0,18.646,17.292,31.615,37.854,40.875l-8.438,2.115c-5.729,1.427-9.188,7.219-7.771,12.927
				c1.208,4.854,5.563,8.083,10.354,8.083c0.854,0,1.729-0.104,2.583-0.323l42.667-10.667c0.551-0.137,0.844-0.652,1.353-0.868
				c0.652-0.266,1.374-0.195,1.98-0.6c0.762-0.509,1.273-1.215,1.858-1.866c0.228-0.253,0.483-0.417,0.686-0.689
				c1.228-1.645,1.857-3.548,2.005-5.556c0.016-0.206,0.197-0.348,0.201-0.556c0.004-0.225-0.184-0.387-0.194-0.609
				c-0.068-1.905-0.461-3.81-1.598-5.516l-21.333-32c-3.292-4.927-9.958-6.219-14.792-2.958c-4.896,3.271-6.229,9.885-2.958,14.792
				l3.647,5.471c-23.548-10.203-26.772-18.413-26.772-22.055c0-15.637,47.648-41.772,149.333-50.494v71.827
				c0,5.896,4.771,10.667,10.667,10.667h106.667c5.896,0,10.667-4.771,10.667-10.667V386.84
				c101.685,8.721,149.333,34.857,149.333,50.494c0,21.75-83.104,53.333-213.333,53.333c-5.896,0-10.667,4.771-10.667,10.667
				c0,5.896,4.771,10.667,10.667,10.667c116.604,0,234.667-25.646,234.667-74.667C490.667,394.714,400.908,372.27,320,365.405z
				 M309.333,298.667c-5.896,0-10.667,4.771-10.667,10.667V448h-85.333V309.333c0-5.896-4.771-10.667-10.667-10.667h-21.333V182.125
				c0-3.646,1.667-7,4.354-8.74c25.083-16.302,42-24.052,70.313-24.052s45.229,7.75,70.313,24.052
				c2.688,1.74,4.354,5.094,4.354,8.74v116.542H309.333z"/>
		</g>
	</g>
</g>
<g>
</g>
<g>
</g>
<g>
</g>
<g>
</g>
<g>
</g>
<g>
</g>
<g>
</g>
<g>
</g>
<g>
</g>
<g>
</g>
<g>
</g>
<g>
</g>
<g>
</g>
<g>
</g>
<g>
</g>
</svg>
