<?xml version="1.0" encoding="utf-8"?>
<!-- Generator: Adobe Illustrator 26.2.1, SVG Export Plug-In . SVG Version: 6.00 Build 0)  -->
<svg version="1.1" id="Camada_1" xmlns="http://www.w3.org/2000/svg" xmlns:xlink="http://www.w3.org/1999/xlink" x="0px" y="0px"
	 viewBox="0 0 170 170" style="enable-background:new 0 0 170 170;" xml:space="preserve">
<path d="M122.6,85.3c0,20.8-16.8,37.6-37.6,37.6S47.4,106,47.4,85.3S64.2,47.7,85,47.7S122.6,64.5,122.6,85.3z M38,85.3
	c0-2.6-2.1-4.7-4.7-4.7H19.2c-2.6,0-4.7,2.1-4.7,4.7s2.1,4.7,4.7,4.7h14.1C35.9,90,38,87.9,38,85.3z M45.1,52
	c0.9,0.9,2.1,1.4,3.3,1.4c1.2,0,2.4-0.5,3.3-1.4c1.8-1.8,1.8-4.8,0-6.7l-10-10c-1.8-1.8-4.8-1.8-6.7,0c-1.8,1.8-1.8,4.8,0,6.7
	L45.1,52z M85,38.3c2.6,0,4.7-2.1,4.7-4.7V19.5c0-2.6-2.1-4.7-4.7-4.7s-4.7,2.1-4.7,4.7v14.1C80.3,36.2,82.4,38.3,85,38.3z
	 M121.6,53.4c1.2,0,2.4-0.5,3.3-1.4l10-10c1.8-1.8,1.8-4.8,0-6.7c-1.8-1.8-4.8-1.8-6.7,0l-10,10c-1.8,1.8-1.8,4.8,0,6.7
	C119.2,53,120.4,53.4,121.6,53.4z M150.8,80.6h-14.1c-2.6,0-4.7,2.1-4.7,4.7s2.1,4.7,4.7,4.7h14.1c2.6,0,4.7-2.1,4.7-4.7
	S153.4,80.6,150.8,80.6z M124.9,118.5c-1.8-1.8-4.8-1.8-6.7,0c-1.8,1.8-1.8,4.8,0,6.7l10,10c0.9,0.9,2.1,1.4,3.3,1.4
	c1.2,0,2.4-0.5,3.3-1.4c1.8-1.8,1.8-4.8,0-6.7L124.9,118.5z M85,132.3c-2.6,0-4.7,2.1-4.7,4.7v14.1c0,2.6,2.1,4.7,4.7,4.7
	s4.7-2.1,4.7-4.7V137C89.7,134.4,87.6,132.3,85,132.3z M45.1,118.5l-10,10c-1.8,1.8-1.8,4.8,0,6.7c0.9,0.9,2.1,1.4,3.3,1.4
	s2.4-0.5,3.3-1.4l10-10c1.8-1.8,1.8-4.8,0-6.7C49.9,116.7,47,116.7,45.1,118.5z"/>
</svg>
