<?xml version="1.0" encoding="utf-8"?>
<!-- Generator: Adobe Illustrator 27.1.1, SVG Export Plug-In . SVG Version: 6.00 Build 0)  -->
<svg version="1.1" id="Camada_1" xmlns="http://www.w3.org/2000/svg" xmlns:xlink="http://www.w3.org/1999/xlink" x="0px" y="0px"
	 viewBox="0 0 128.9 128.8" style="enable-background:new 0 0 128.9 128.8;" xml:space="preserve">
<path d="M124.8,68.3c2.2,0,4-1.7,4-4s-1.7-4-4-4h-14.3V39.8h14.4c2.2,0,4-1.7,4-4s-1.7-4-4-4h-14.4v-9.5c0-2.2-1.7-4-4-4H97V4
	c0-2.2-1.7-4-4-4s-4,1.7-4,4v14.3H68.4V4c0-2.2-1.7-4-4-4s-4,1.7-4,4v14.3H39.9V4c0-2.2-1.7-4-4-4s-4,1.7-4,4v14.3h-9.5
	c-2.2,0-4,1.7-4,4v9.5H4c-2.2,0-4,1.7-4,4s1.7,4,4,4h14.3v20.5H4c-2.2,0-4,1.7-4,4s1.7,4,4,4h14.3v20.6H4c-2.2,0-4,1.7-4,4
	s1.7,4,4,4h14.3v9.5c0,2.2,1.7,4,4,4h9.5v14.4c0,2.2,1.7,4,4,4s4-1.7,4-4v-14.2h20.5v14.4c0,2.2,1.7,4,4,4s4-1.7,4-4v-14.4h20.6
	v14.4c0,2.2,1.7,4,4,4s4-1.7,4-4v-14.4h9.5c2.2,0,4-1.7,4-4V97h14.4c2.2,0,4-1.7,4-4s-1.7-4-4-4h-14.2V68.3H124.8L124.8,68.3z
	 M93.9,91c0,1.6-1.2,2.9-2.9,2.9H37.7c-1.6,0-2.9-1.2-2.9-2.9V37.7c0-1.6,1.2-2.9,2.9-2.9h53.4c1.6,0,2.9,1.2,2.9,2.9V91L93.9,91
	L93.9,91z"/>
<path d="M72.1,48H56.7c-4.7,0-8.6,3.9-8.6,8.6v15.4c0,4.7,3.9,8.6,8.6,8.6h15.4c4.7,0,8.6-3.9,8.6-8.6V56.6
	C80.7,51.9,76.8,48,72.1,48z"/>
</svg>
