<?xml version="1.0" encoding="utf-8"?>
<!-- Generator: Adobe Illustrator 25.3.1, SVG Export Plug-In . SVG Version: 6.00 Build 0)  -->
<svg version="1.1" id="Camada_1" xmlns="http://www.w3.org/2000/svg" xmlns:xlink="http://www.w3.org/1999/xlink" x="0px" y="0px"
	 viewBox="0 0 170 170" style="enable-background:new 0 0 170 170;" xml:space="preserve">
<path id="Caminho_31" class="st0" d="M142.5,113v17.2c0,6.3-5.1,11.5-11.4,11.5l0,0c-0.4,0-0.7,0-1.1,0
	c-17.7-1.9-34.7-7.9-49.6-17.6c-13.9-8.8-25.7-20.6-34.5-34.4c-9.7-15-15.8-32-17.6-49.7c-0.6-6.3,4.1-11.9,10.4-12.5
	c0.3,0,0.7,0,1,0h17.2c5.8-0.1,10.7,4.2,11.5,9.9c0.7,5.5,2.1,10.9,4,16.1c1.6,4.2,0.6,8.9-2.6,12.1l-7.3,7.3
	c8.2,14.4,20.1,26.3,34.5,34.4l7.3-7.3c3.2-3.2,7.9-4.2,12.1-2.6c5.2,1.9,10.6,3.3,16.2,4C138.4,102.2,142.7,107.2,142.5,113z"/>
</svg>
