<?xml version="1.0" encoding="utf-8"?>
<!-- Generator: Adobe Illustrator 26.0.3, SVG Export Plug-In . SVG Version: 6.00 Build 0)  -->
<svg version="1.1" id="Camada_1" xmlns="http://www.w3.org/2000/svg" xmlns:xlink="http://www.w3.org/1999/xlink" x="0px" y="0px"
	 viewBox="0 0 43.5 43.5" style="enable-background:new 0 0 43.5 43.5;" xml:space="preserve">
<path id="Icone_Tempo" d="M36.9,13.9l-5.3-5.3l2.7-2.7l5.3,5.3L36.9,13.9z M37.9,24.6c0,9.4-7.6,17-17,17c-9.4,0-17-7.6-17-17
	c0-8.6,6.5-15.9,15.1-16.9v-2h-3.8V1.9h11.3v3.8h-3.8v2C31.4,8.7,37.9,15.9,37.9,24.6z M34.1,24.6c0-7.3-5.9-13.2-13.2-13.2
	S7.7,17.3,7.7,24.6s5.9,13.2,13.2,13.2S34.1,31.9,34.1,24.6z M20.9,15.1c-5.2,0-9.4,4.2-9.4,9.4c0,5.2,4.2,9.4,9.4,9.4
	c2.5,0,4.9-1,6.7-2.8l-6.7-6.7V15.1z"/>
</svg>
