<?xml version="1.0" encoding="utf-8"?>
<!-- Generator: Adobe Illustrator 27.1.1, SVG Export Plug-In . SVG Version: 6.00 Build 0)  -->
<svg version="1.1" id="Camada_1" xmlns="http://www.w3.org/2000/svg" xmlns:xlink="http://www.w3.org/1999/xlink" x="0px" y="0px"
	 viewBox="0 0 96 97.8" style="enable-background:new 0 0 96 97.8;" xml:space="preserve">
<g>
	<g>
		<g>
			<path d="M91.1,33.9c1.2,0,2.4-0.4,3.3-1.3c0.9-0.9,1.3-2.1,1.3-3.3c0-2.6-2.2-4.7-4.8-4.8l0,0C80.5,24.3,72,15.8,71.8,5.4
				c-0.2-2.3-2.1-4.2-4.4-4.4c-2.6-0.2-4.8,1.7-5,4.2C62.7,20.9,75.5,33.7,91.1,33.9z"/>
			<path d="M94.7,51.4c0.9-0.9,1.3-2,1.3-3.3c0-2.6-2.2-4.7-4.8-4.8l0,0C70.4,43,53.3,25.9,53,5.2c0-0.2,0-0.5,0-0.7
				c-0.2-2.6-2.5-4.6-5.1-4.4c-2.6,0.2-4.5,2.4-4.2,5c0.4,26,21.8,47.3,47.7,47.7C92.6,52.8,93.8,52.3,94.7,51.4z"/>
		</g>
		<circle cx="88.4" cy="7.8" r="7.6"/>
	</g>
	<path d="M70,97.8H16c-8.8,0-16-7.2-16-16v-54c0-8.8,7.2-16,16-16h19.4v10.1H16c-3.3,0-5.9,2.6-5.9,5.9v54c0,3.3,2.6,5.9,5.9,5.9h54
		c3.3,0,5.9-2.6,5.9-5.9V61H86v20.7C86,90.6,78.8,97.8,70,97.8z"/>
</g>
</svg>
