<?xml version="1.0" encoding="utf-8"?>
<!-- Generator: Adobe Illustrator 25.3.1, SVG Export Plug-In . SVG Version: 6.00 Build 0)  -->
<svg version="1.1" id="Camada_1" xmlns="http://www.w3.org/2000/svg" xmlns:xlink="http://www.w3.org/1999/xlink" x="0px" y="0px"
	 viewBox="0 0 40.2 43.1" style="enable-background:new 0 0 40.2 43.1;" xml:space="preserve">
<style type="text/css">
</style>
<path id="Caminho_19" class="st0" d="M33.8,10h-5.1V9.2c0-2.8-2.3-5.1-5.1-5.1h-6.8c-2.8,0-5.1,2.3-5.1,5.1V10H6.5v3.4h1.7v22.2
	c0,1.9,1.5,3.4,3.4,3.4c0,0,0,0,0,0h17.1c1.9,0,3.4-1.5,3.4-3.4v0V13.4h1.7L33.8,10z M15,9.2c0-0.9,0.8-1.7,1.7-1.7h6.8
	c0.9,0,1.7,0.8,1.7,1.7V10H15L15,9.2z M18.4,30.5c0,0.9-0.8,1.7-1.7,1.7c-0.9,0-1.7-0.8-1.7-1.7V20.3c0-0.9,0.8-1.7,1.7-1.7
	c0.9,0,1.7,0.8,1.7,1.7V30.5z M25.2,30.5c0,0.9-0.8,1.7-1.7,1.7c-0.9,0-1.7-0.8-1.7-1.7V20.3c0-0.9,0.8-1.7,1.7-1.7
	c0.9,0,1.7,0.8,1.7,1.7V30.5z"/>
</svg>
