<?xml version="1.0" encoding="utf-8"?>
<!-- Generator: Adobe Illustrator 27.0.0, SVG Export Plug-In . SVG Version: 6.00 Build 0)  -->
<svg version="1.1" id="Camada_1" xmlns="http://www.w3.org/2000/svg" xmlns:xlink="http://www.w3.org/1999/xlink" x="0px" y="0px"
	 viewBox="0 0 170 170" style="enable-background:new 0 0 170 170;" xml:space="preserve">
<g>
	<path d="M101.4,114.5H68.6c-1.7,0-2.9,1.3-2.9,2.9s1.3,2.9,2.9,2.9h33c1.7,0,2.9-1.3,2.9-2.9S103.1,114.5,101.4,114.5z"/>
	<path d="M101.4,124.2H68.6c-1.7,0-2.9,1.3-2.9,2.9c0,1.7,1.3,2.9,2.9,2.9h33c1.7,0,2.9-1.3,2.9-2.9
		C104.5,125.4,103.1,124.2,101.4,124.2z"/>
	<path d="M101.4,104.8H68.6c-1.7,0-2.9,1.3-2.9,2.9s1.3,2.9,2.9,2.9h33c1.7,0,2.9-1.3,2.9-2.9S103.1,104.8,101.4,104.8z"/>
	<path d="M101.4,95.1H68.6c-1.7,0-2.9,1.3-2.9,2.9c0,1.7,1.3,2.9,2.9,2.9h33c1.7,0,2.9-1.3,2.9-2.9
		C104.5,96.4,103.1,95.1,101.4,95.1z"/>
	<path d="M153,139.2h-3.1v-28.5c0-4.3-3.6-7.9-7.9-7.9h-4.2V73.4h3.4v6.4c0,1.3,1,2.4,2.4,2.4h6.9c1.3,0,2.4-1,2.4-2.4V57.3
		c0-1.3-1-2.4-2.4-2.4h-7c-1.3,0-2.4,1-2.4,2.4v7.3h-3.4V9.9c0-0.6-0.3-1.3-0.9-1.7l-7.5-5.6c-1.4-1-3.3,0-3.3,1.7v26h-0.1
		c-0.5-7.1-6.4-12.6-13.6-12.6H57.5c-7.5,0-13.6,6.1-13.6,13.6v-27c0-1.7-1.9-2.7-3.3-1.7L33,8.3c-0.5,0.4-0.9,1-0.9,1.7v54.6h-3.3
		v-7.3c0-1.3-1-2.4-2.4-2.4h-6.9c-1.3,0-2.4,1-2.4,2.4v22.4c0,1.3,1,2.4,2.4,2.4h6.9c1.3,0,2.4-1,2.4-2.4v-6.4h3.3v29.5H28
		c-4.3,0-7.9,3.6-7.9,7.9v28.5h-3.2c-2,0-3.7,1.7-3.7,3.7v12.1c0,2,1.7,3.7,3.7,3.7h9.5v6c0,2.8,2.3,5.2,5.2,5.2h12.9
		c2.8,0,5.2-2.3,5.2-5.2v-6.2h70.7v6c0,2.8,2.3,5.2,5.2,5.2h12.9c2.8,0,5.2-2.3,5.2-5.2v-6h9.4c2,0,3.7-1.7,3.7-3.7v-12.1
		C156.7,140.8,155,139.2,153,139.2z M44.1,127.9c0,1.9-1.5,3.6-3.6,3.6h-6.5c-1.9,0-3.6-1.5-3.6-3.6v-6.5c0-1.9,1.5-3.6,3.6-3.6h6.5
		c1.9,0,3.6,1.5,3.6,3.6C44.1,121.4,44.1,127.9,44.1,127.9z M109.2,127.5c0,3.6-2.8,6.4-6.4,6.4H67.2c-3.6,0-6.4-2.8-6.4-6.4V95
		c0-2.3,1.3-4.5,3.3-5.6l17.8-10.1c1.9-1,4.3-1,6.2,0L106,89.4c2,1.1,3.3,3.3,3.3,5.6v32.5H109.2z M121.8,73.7c0,2-1.8,3.7-3.8,3.4
		l-8.3-1.1c-16.4-2.2-33-2.2-49.4,0L52,77.2c-2,0.3-3.8-1.3-3.8-3.4V53c0-1.9,1.5-3.4,3.4-3.4h66.8c1.9,0,3.4,1.5,3.4,3.4v20.8
		H121.8z M139.5,129.4c0,1.9-1.5,3.6-3.6,3.6h-6.5c-1.9,0-3.6-1.5-3.6-3.6v-6.5c0-1.9,1.5-3.6,3.6-3.6h6.5c1.9,0,3.6,1.5,3.6,3.6
		V129.4z"/>
</g>
</svg>
