<?xml version="1.0" encoding="utf-8"?>
<!-- Generator: Adobe Illustrator 25.3.1, SVG Export Plug-In . SVG Version: 6.00 Build 0)  -->
<svg version="1.1" id="Camada_1" xmlns="http://www.w3.org/2000/svg" xmlns:xlink="http://www.w3.org/1999/xlink" x="0px" y="0px"
	 viewBox="0 0 170 170" style="enable-background:new 0 0 170 170;" xml:space="preserve">
<style type="text/css">
	.st0{fill:#383838;}
</style>
<g>
	<path id="Caminho_28" class="st0" d="M159.6,99.7c-0.2-2.7-0.5-5.6-0.9-8.7c-0.2-2.1-0.5-4.3-0.9-6.4c-0.3-2.6-0.9-5.2-1.7-7.7
		c-0.2-0.7-0.4-1.5-0.6-2.2c-0.1-0.2-0.1-0.4-0.2-0.6c-0.4-0.9-0.8-1.8-1.3-2.7c-3.4-5.6-7.1-11.1-11.1-16.3c-1-1.2-2.5-2-4.1-2
		h-31.2V116h10.9c0.1-8.6,7-15.6,15.7-15.7c8.7,0,15.7,7,15.7,15.7c0,0,0,0,0,0h5.6c2.8-0.1,5-2.5,4.9-5.3c0-0.1,0-0.1,0-0.2
		C160.2,108.2,160,104.3,159.6,99.7z M118.1,84.6v-21h18.1c0.7,1,1.8,2.4,2.9,4.2c0.6,0.8,1.3,1.9,2,2.9c0.7,1,1.4,2.2,2.2,3.4
		c0.5,0.8,1,1.8,1.7,2.7c1.2,2.4,1.9,5.1,2.2,7.8L118.1,84.6z M102.4,47.9V116H62.7c0.1-8.7-6.8-15.8-15.5-15.9
		c-8.7-0.1-15.8,6.8-15.9,15.5c0,0.2,0,0.3,0,0.5H15.6c-2.9,0-5.2-2.4-5.2-5.2c0,0,0,0,0,0V47.9c0-2.9,2.3-5.2,5.2-5.2c0,0,0,0,0,0
		h81.6C100.1,42.7,102.4,45,102.4,47.9z M57.5,116c0,5.8-4.7,10.4-10.5,10.4c-5.8,0-10.4-4.7-10.4-10.5c0-5.8,4.7-10.4,10.5-10.4
		C52.8,105.6,57.5,110.2,57.5,116C57.5,116,57.5,116,57.5,116z M144.6,116c0,5.8-4.7,10.4-10.5,10.4c-5.8,0-10.4-4.7-10.4-10.5
		c0-5.8,4.7-10.4,10.5-10.4C139.9,105.5,144.6,110.2,144.6,116C144.6,116,144.6,116,144.6,116L144.6,116z"/>
</g>
</svg>
