<svg xmlns="http://www.w3.org/2000/svg" viewBox="0 0 38 28.25"><g id="Camada_2" data-name="Camada 2"><g id="Camada_1-2" data-name="Camada 1"><path d="M35.5,0H2.5A2.5,2.5,0,0,0,0,2.5v20A2.5,2.5,0,0,0,2.5,25h33A2.5,2.5,0,0,0,38,22.5V2.5A2.5,2.5,0,0,0,35.5,0ZM36,22.5a.5.5,0,0,1-.5.5H2.5a.5.5,0,0,1-.5-.5V2.5A.5.5,0,0,1,2.5,2h33a.5.5,0,0,1,.5.5Zm-7,4.75a1,1,0,0,1-1,1H10a1,1,0,0,1,0-2H28A1,1,0,0,1,29,27.25Zm-5-16.06L17.43,7a1.52,1.52,0,0,0-.83-.25A1.55,1.55,0,0,0,15,8.26v8.48a1.55,1.55,0,0,0,1.56,1.55,1.52,1.52,0,0,0,.83-.25l6.63-4.23A1.55,1.55,0,0,0,24.06,11.19ZM17.55,15V10l3.92,2.5Z"/></g></g></svg>