<?xml version="1.0" encoding="utf-8"?>
<!-- Generator: Adobe Illustrator 27.1.1, SVG Export Plug-In . SVG Version: 6.00 Build 0)  -->
<svg version="1.1" id="Camada_1" xmlns="http://www.w3.org/2000/svg" xmlns:xlink="http://www.w3.org/1999/xlink" x="0px" y="0px"
	 viewBox="0 0 28 21.1" style="enable-background:new 0 0 28 21.1;" xml:space="preserve">
<g id="passengers_2_">
	<path d="M14.1,5.2c0-2.9-2.4-5.2-5.2-5.2S3.6,2.4,3.6,5.2s2.4,5.2,5.3,5.2S14.1,8.1,14.1,5.2z M8.9,8.7C7,8.7,5.4,7.1,5.4,5.2
		S7,1.7,8.9,1.7s3.5,1.6,3.5,3.5S10.8,8.7,8.9,8.7z"/>
	<path d="M20.2,12.2c-1.7,0-3.4,0.5-4.7,1.4c-1.6-2-4.1-3.1-6.7-3.1C4,10.5,0,14.4,0,19.3c0,1,0.8,1.8,1.7,1.8h12.2h1.8h10.5
		c1,0,1.8-0.8,1.8-1.8C28.1,15.4,24.6,12.2,20.2,12.2z M14.1,19.2h-1.8H1.9c0-3.9,3.1-7,7-7c2.2,0,4.1,1,5.3,2.5c0,0,0,0.1,0.1,0.1
		c0.4,0.4,0.7,0.9,0.9,1.4c0.4,0.9,0.7,1.9,0.7,3H14.1z M17.6,19.2c0-1.3-0.3-2.5-0.8-3.7c-0.1-0.2-0.1-0.3-0.2-0.5
		c1.1-0.7,2.4-1.1,3.7-1.1c3.4,0,6.1,2.4,6.1,5.2h-8.8V19.2z"/>
	<path d="M24.6,7.9c0-2.4-2-4.4-4.4-4.4s-4.4,2-4.4,4.4s2,4.4,4.4,4.4S24.6,10.3,24.6,7.9z M20.2,10.5c-1.4,0-2.6-1.2-2.6-2.6
		s1.2-2.6,2.6-2.6s2.6,1.2,2.6,2.6S21.7,10.5,20.2,10.5z"/>
</g>
</svg>
