<?xml version="1.0" encoding="utf-8"?>
<!-- Generator: Adobe Illustrator 27.3.1, SVG Export Plug-In . SVG Version: 6.00 Build 0)  -->
<svg version="1.1" id="Camada_1" xmlns="http://www.w3.org/2000/svg" xmlns:xlink="http://www.w3.org/1999/xlink" x="0px" y="0px"
	 viewBox="0 0 86.2 111" style="enable-background:new 0 0 86.2 111;" xml:space="preserve">
<path d="M83.7,22.7L63.5,2.6C61.9,0.9,59.7,0,57.4,0H28.9c-2.3,0-4.5,0.9-6.2,2.6L2.6,22.7C0.9,24.3,0,26.6,0,28.9v28.5
	c0,2.3,0.9,4.5,2.6,6.2l20.1,20.1c1.6,1.6,3.9,2.6,6.2,2.6H38v19.7c0,2.8,2.3,5.1,5.1,5.1c2.8,0,5.1-2.3,5.1-5.1V86.2h9.1
	c2.3,0,4.5-0.9,6.2-2.6l20.1-20.1c1.6-1.6,2.6-3.9,2.6-6.2V28.9C86.2,26.6,85.3,24.3,83.7,22.7z M72.9,55.4L55.4,72.9H30.8
	L13.3,55.4V30.8l17.4-17.4h24.7l17.4,17.4V55.4z"/>
</svg>
