<?xml version="1.0" encoding="utf-8"?>
<!-- Generator: Adobe Illustrator 26.3.1, SVG Export Plug-In . SVG Version: 6.00 Build 0)  -->
<svg version="1.1" id="Camada_1" xmlns="http://www.w3.org/2000/svg" xmlns:xlink="http://www.w3.org/1999/xlink" x="0px" y="0px"
	 viewBox="0 0 210 210" style="enable-background:new 0 0 210 210;" xml:space="preserve">
<g>
	<g id="sale-car_00000148658475239187819070000006275831267376377985_">
		<path d="M180.4,5.5h-75c-3.3,0-6.5,1.3-8.8,3.7l-25,25c-1.1,1.1-1.9,2.4-2.5,3.7C40,43.2,17.9,68.6,17.9,99.2v12.5
			c0,3.5,2.8,6.2,6.2,6.2s6.2-2.8,6.2-6.2V99.2c0-24.2,17.3-44.4,40.1-49c0.4,0.5,0.6,1.1,1.1,1.6l25,25c2.3,2.3,5.5,3.7,8.8,3.7h75
			c6.9,0,12.5-5.6,12.5-12.5V18C192.9,11.1,187.3,5.5,180.4,5.5z M180.4,68h-75l-25-25l25-25h75V68z"/>
		<path d="M204.9,166.1l-6.6-15c-0.8-1.8-2.5-3.2-4.4-3.6l-52.3-10.8l-28.6-15c-4.7-3-13-3.7-15.5-3.7H61.2
			c-6.1,0-14.7,4.5-17.9,6.7c-3.7,2.5-12.6,9.6-15.8,12.2l-14.3,3.4c-2.8,0.7-4.8,3.2-4.8,6.1l0.2,17.3L5.5,182
			c-0.6,3.3,1.6,6.5,5,7.2l19.9,3.8h1.2c2.6,7.3,9.5,12.5,17.6,12.5s15-5.2,17.6-12.5h64.8c2.6,7.3,9.5,12.5,17.6,12.5
			c8.1,0,15-5.2,17.6-12.5h32.4c3.5,0,6.2-2.8,6.2-6.2v-18.1C205.4,167.7,205.2,166.9,204.9,166.1z M42.9,186.7
			c0-3.3,2.5-5.9,5.7-6.1c0.2,0,0.3-0.1,0.5-0.1c0.2,0,0.3,0.1,0.5,0.1c3.2,0.3,5.7,2.9,5.7,6.1c0,3.4-2.8,6.2-6.2,6.2
			C45.7,193,42.9,190.1,42.9,186.7z M142.9,186.7c0-3.4,2.7-6.1,6.1-6.2c0.1,0,0.1,0,0.2,0c0.1,0,0.1,0,0.2,0
			c3.4,0.1,6.1,2.8,6.1,6.2c0,3.4-2.8,6.2-6.2,6.2C145.7,193,142.9,190.1,142.9,186.7z M192.9,180.5l-26.1,0
			c-2.6-7.3-9.5-12.5-17.6-12.5c-8.2,0-15,5.3-17.6,12.5l-64.8,0c-2.6-7.3-9.5-12.6-17.6-12.6c-8.2,0-15.1,5.3-17.6,12.6l-12.7-2.5
			l1.7-10.1h3.6c3.5,0,6.2-2.8,6.2-6.2s-2.8-6.2-6.2-6.2H21l0-4.2l10.8-2.6c0.9-0.2,1.7-0.6,2.5-1.2c3.3-2.7,12.7-10.2,16.1-12.4
			c3.3-2.2,9.1-4.5,10.8-4.5h36.2c3,0,7.6,1,9.2,2l29.9,15.7c0.5,0.3,1.1,0.5,1.6,0.6l50,10.3l4.8,10.8V180.5z"/>
	</g>
	<path d="M163.7,53.2l-10.6-10.6l10.6-10.6c2.3-2.3,2.3-6.1,0-8.5c-2.3-2.3-6.1-2.3-8.5,0l-10.6,10.6l-10.6-10.6
		c-2.3-2.3-6.1-2.3-8.5,0c-2.3,2.3-2.3,6.1,0,8.5l10.6,10.6l-10.6,10.6c-2.3,2.3-2.3,6.1,0,8.5c2.3,2.3,6.1,2.3,8.5,0l10.6-10.6
		l10.6,10.6c2.3,2.3,6.1,2.3,8.5,0C166,59.4,166,55.6,163.7,53.2z"/>
</g>
</svg>
