<?xml version="1.0" encoding="utf-8"?>
<!-- Generator: Adobe Illustrator 27.3.1, SVG Export Plug-In . SVG Version: 6.00 Build 0)  -->
<svg version="1.1" id="Camada_1" xmlns="http://www.w3.org/2000/svg" xmlns:xlink="http://www.w3.org/1999/xlink" x="0px" y="0px"
	 viewBox="0 0 104.3 98.7" style="enable-background:new 0 0 104.3 98.7;" xml:space="preserve">
<path d="M94.1,4.7c-7.7,3.6-17.2,7.2-26.3,7.2c-12,0-21.9-7.8-37.1-7.8c-0.5,0-1,0-1.5,0c-3.7,0.1-7.4,0.8-10.6,1.7
	c-1.1,0.3-2.1,0.6-3.1,1c0,0,0-0.1,0-0.1c-1.8,0.6-3.4,1.2-4.6,1.7V5.5c0-3-2.4-5.5-5.5-5.5C2.4,0,0,2.4,0,5.5v87.7
	c0,3,2.4,5.5,5.5,5.5c3,0,5.5-2.4,5.5-5.5V78.1c6.4-2.7,14.3-5,25.7-5c12,0,21.9,7.8,37.1,7.8c10.8,0,19.5-3.7,27.5-9.2
	c2-1.3,3.1-3.5,3.1-5.9V11.3C104.3,6,98.8,2.5,94.1,4.7z"/>
</svg>
