<?xml version="1.0" encoding="utf-8"?>
<!-- Generator: Adobe Illustrator 27.1.1, SVG Export Plug-In . SVG Version: 6.00 Build 0)  -->
<svg version="1.1" id="Camada_1" xmlns="http://www.w3.org/2000/svg" xmlns:xlink="http://www.w3.org/1999/xlink" x="0px" y="0px"
	 viewBox="0 0 120.5 118" style="enable-background:new 0 0 120.5 118;" xml:space="preserve">
<g>
	<path d="M110,96.2l-3.6-8.3c-0.4-1-1.4-1.8-2.5-2l-28.9-6l-15.8-8.3c-2.5-1.6-7.1-2-8.5-2h-20c-3.4,0-8.1,2.5-9.9,3.7
		c-2,1.4-7,5.3-8.7,6.7l-7.9,1.9c-1.6,0.4-2.6,1.8-2.6,3.4l0.1,9.6L0,105c-0.3,1.8,0.9,3.6,2.7,4l11,2.1h0.7c1.4,4,5.2,6.9,9.7,6.9
		s8.3-2.9,9.7-6.9h35.8c1.4,4,5.2,6.9,9.7,6.9s8.3-2.9,9.7-6.9h17.9c1.9,0,3.5-1.5,3.5-3.5v-10C110.3,97.1,110.2,96.6,110,96.2z
		 M20.6,107.6c0-1.8,1.4-3.2,3.2-3.4c0.1,0,0.2-0.1,0.3-0.1s0.2,0.1,0.3,0.1c1.8,0.2,3.2,1.6,3.2,3.4c0,1.9-1.6,3.5-3.5,3.5
		S20.6,109.5,20.6,107.6z M75.8,107.6c0-1.9,1.5-3.4,3.4-3.4h0.1h0.1c1.9,0.1,3.4,1.6,3.4,3.4c0,1.9-1.6,3.5-3.5,3.5
		S75.8,109.5,75.8,107.6z"/>
</g>
<path d="M86.8,0C68.2,0,53.1,15.1,53.1,33.7s15.1,33.7,33.7,33.7s33.7-15.1,33.7-33.7S105.4,0,86.8,0z M103.6,49.1
	c0,2-1.6,3.6-3.6,3.6c-0.1,0-0.2,0-0.3,0c-5.5-0.6-10.8-2.5-15.5-5.5c-4.3-2.8-8-6.4-10.8-10.8c-3-4.7-4.9-10-5.5-15.6
	c-0.2-2,1.3-3.7,3.3-3.9c0.1,0,0.2,0,0.3,0h5.4c1.8,0,3.3,1.3,3.6,3.1c0.2,1.7,0.6,3.4,1.3,5c0.5,1.3,0.2,2.8-0.8,3.8l-2.3,2.3
	c2.6,4.5,6.3,8.2,10.8,10.8l2.3-2.3c1-1,2.5-1.3,3.8-0.8c1.6,0.6,3.3,1,5,1.3c1.8,0.3,3.1,1.8,3.1,3.6v5.4H103.6z"/>
</svg>
