<?xml version="1.0" encoding="utf-8"?>
<!-- Generator: Adobe Illustrator 27.3.1, SVG Export Plug-In . SVG Version: 6.00 Build 0)  -->
<svg version="1.1" id="Camada_1" xmlns="http://www.w3.org/2000/svg" xmlns:xlink="http://www.w3.org/1999/xlink" x="0px" y="0px"
	 viewBox="0 0 104.3 98.7" style="enable-background:new 0 0 104.3 98.7;" xml:space="preserve">
<path d="M94.1,4.7L94.1,4.7c-7.7,3.6-17.2,7.2-26.3,7.2c-12,0-21.9-7.8-37.1-7.8c-0.5,0-1,0-1.5,0c-3.7,0.1-7.4,0.8-10.6,1.7
	c-1.1,0.3-2.1,0.6-3.1,1c0,0,0-0.1,0-0.1c-1.8,0.6-3.4,1.2-4.6,1.7V5.5c0-3-2.4-5.5-5.5-5.5C2.4,0,0,2.4,0,5.5v87.7
	c0,3,2.4,5.5,5.5,5.5c3,0,5.5-2.4,5.5-5.5V78.1c6.4-2.7,14.3-5,25.7-5c12,0,21.9,7.8,37.1,7.8c10.8,0,19.5-3.7,27.5-9.2
	c2-1.3,3.1-3.5,3.1-5.9V11.3C104.3,6,98.8,2.5,94.1,4.7z M27.4,62.8c-5.8,0.6-11.2,1.8-16.5,3.7V50.7c5.9-2.1,10.7-3.4,16.5-3.9
	V62.8z M93.5,32.6C88.2,34.8,83.1,37,77,38v16c5.6-0.8,11.5-2.6,16.5-5.8v15.8C87.9,67.5,82.6,69.4,77,70V53.9
	c-6.1,0.8-10.7,0.3-16.5-1.3v15.1C55.1,66.1,49.9,64,44,63V47.6c-4.4-1-9.2-1.5-16.5-0.9V31.1c-5,0.7-10,2.3-16.5,4.7V19.9
	c7.5-2.7,11.2-4.4,16.5-4.9v16.1c6.1-0.8,10.9-0.3,16.5,1.3V17.2c5.3,1.7,10.6,3.7,16.5,4.8v15.3c-5.8-1.3-11.1-3.5-16.5-5v15.3
	c5.9,1.3,11.1,3.5,16.5,5V37.4c5.3,1.2,10.7,1.5,16.5,0.6V21.8c6.1-1.1,11.7-3.1,16.5-5V32.6z"/>
</svg>
