<?xml version="1.0" encoding="utf-8"?>
<!-- Generator: Adobe Illustrator 27.2.0, SVG Export Plug-In . SVG Version: 6.00 Build 0)  -->
<svg version="1.1" id="Camada_1" xmlns="http://www.w3.org/2000/svg" xmlns:xlink="http://www.w3.org/1999/xlink" x="0px" y="0px"
	 viewBox="0 0 118.4 119.1" style="enable-background:new 0 0 118.4 119.1;" xml:space="preserve">
<g>
	<path d="M110.5,97.3l-3.6-8.3c-0.4-1-1.4-1.8-2.5-2l-28.9-6l-15.8-8.3c-2.5-1.6-7.1-2-8.5-2h-20c-3.4,0-8.1,2.5-9.9,3.7
		c-2,1.4-7,5.3-8.7,6.7L4.7,83c-1.6,0.4-2.6,1.8-2.6,3.4L2.2,96l-1.7,10.1c-0.3,1.8,0.9,3.6,2.7,4l11,2.1h0.7c1.4,4,5.2,6.9,9.7,6.9
		s8.3-2.9,9.7-6.9h35.8c1.4,4,5.2,6.9,9.7,6.9s8.3-2.9,9.7-6.9h17.9c1.9,0,3.5-1.5,3.5-3.5v-10C110.8,98.2,110.7,97.7,110.5,97.3z
		 M21.1,108.7c0-1.8,1.4-3.2,3.2-3.4c0.1,0,0.2-0.1,0.3-0.1s0.2,0.1,0.3,0.1c1.8,0.2,3.2,1.6,3.2,3.4c0,1.9-1.6,3.5-3.5,3.5
		S21.1,110.6,21.1,108.7z M76.3,108.7c0-1.9,1.5-3.4,3.4-3.4h0.1h0.1c1.9,0.1,3.4,1.6,3.4,3.4c0,1.9-1.6,3.5-3.5,3.5
		S76.3,110.6,76.3,108.7z"/>
</g>
<g>
	<circle cx="83.6" cy="31" r="8.8"/>
	<path d="M83.6,1.1C65,1.1,49.9,16.2,49.9,34.8S65,68.5,83.6,68.5s33.7-15.1,33.7-33.7S102.2,1.1,83.6,1.1z M83.6,55.3
		c0,0-16.8-11.2-16.8-24.3c0-9.3,7.5-16.8,16.8-16.8s16.8,7.5,16.8,16.8C100.4,44.1,83.6,55.3,83.6,55.3z"/>
</g>
</svg>
