<?xml version="1.0" encoding="utf-8"?>
<!-- Generator: Adobe Illustrator 27.2.0, SVG Export Plug-In . SVG Version: 6.00 Build 0)  -->
<svg version="1.1" id="Camada_1" xmlns="http://www.w3.org/2000/svg" xmlns:xlink="http://www.w3.org/1999/xlink" x="0px" y="0px"
	 viewBox="0 0 104.6 104.8" style="enable-background:new 0 0 104.6 104.8;" xml:space="preserve">
<g>
	<path d="M104.4,84.1l-3.5-7.8c-0.4-1-1.3-1.7-2.3-1.9l-27.4-5.7l-15-7.9c-2.5-1.6-6.8-1.9-8.1-1.9h-19c-3.2,0-7.7,2.4-9.4,3.5
		c-1.9,1.3-6.6,5-8.3,6.4l-7.5,1.8c-1.5,0.4-2.5,1.7-2.5,3.2l0.1,9.1l-1.6,9.6c-0.3,1.8,0.9,3.4,2.6,3.8l10.4,2h0.6
		c1.4,3.8,5,6.5,9.2,6.5s7.9-2.7,9.2-6.5h33.9c1.4,3.8,5,6.5,9.2,6.5c4.3,0,7.9-2.7,9.2-6.5h17c1.8,0,3.3-1.5,3.3-3.3v-9.5
		C104.7,85,104.6,84.6,104.4,84.1z M19.6,95c0-1.7,1.3-3.1,3-3.2c0.1,0,0.2-0.1,0.3-0.1s0.2,0,0.3,0.1c1.7,0.1,3,1.5,3,3.2
		c0,1.8-1.5,3.3-3.3,3.3S19.6,96.8,19.6,95z M71.9,95c0-1.8,1.4-3.2,3.2-3.3h0.1h0.1c1.8,0,3.2,1.5,3.2,3.3c0,1.8-1.5,3.3-3.3,3.3
		C73.4,98.2,71.9,96.8,71.9,95z"/>
	<path d="M91.6,0H52.3c-1.7,0-3.4,0.7-4.6,1.9L34.6,15c-0.6,0.6-1,1.3-1.3,2C18.1,19.8,6.5,33.1,6.5,49.1v6.5c0,1.8,1.5,3.3,3.3,3.3
		s3.3-1.5,3.3-3.3v-6.5c0-12.7,9-23.3,21-25.7c0.2,0.3,0.3,0.6,0.6,0.8l13,13.2c1.2,1.2,2.9,1.9,4.6,1.9h39.3c3.6,0,6.5-2.9,6.5-6.5
		V6.6C98.1,3,95.2,0,91.6,0z M86.2,25.2c0,1.8-1.5,3.3-3.3,3.3s-3.3-1.5-3.3-3.3V14.3c0-1.8,1.5-3.3,3.3-3.3s3.3,1.5,3.3,3.3V25.2z"
		/>
</g>
</svg>
