<?xml version="1.0" encoding="utf-8"?>
<!-- Generator: Adobe Illustrator 27.2.0, SVG Export Plug-In . SVG Version: 6.00 Build 0)  -->
<svg version="1.1" id="Camada_1" xmlns="http://www.w3.org/2000/svg" xmlns:xlink="http://www.w3.org/1999/xlink" x="0px" y="0px"
	 viewBox="0 0 24.7 23.9" style="enable-background:new 0 0 24.7 23.9;" xml:space="preserve">
<g id="sale-car_4_">
	<path d="M19.4,6c0.4,0,0.7-0.3,0.7-0.7V3.7c0-0.4-0.3-0.7-0.7-0.7c-0.4,0-0.7,0.3-0.7,0.7v1.5C18.7,5.7,19,6,19.4,6z"/>
	<path d="M21.7,0h-9c-0.4,0-0.8,0.2-1.1,0.4l-3,3C8.5,3.5,8.4,3.7,8.3,3.8c-3.5,0.6-6.1,3.7-6.1,7.4v1.5c0,0.4,0.3,0.7,0.7,0.7
		c0.4,0,0.7-0.3,0.7-0.7v-1.5c0-2.9,2.1-5.3,4.8-5.9c0,0.1,0.1,0.1,0.1,0.2l3,3c0.3,0.3,0.7,0.4,1.1,0.4h9c0.8,0,1.5-0.7,1.5-1.5v-6
		C23.2,0.7,22.5,0,21.7,0z M21.7,7.5h-9l-3-3l3-3h9V7.5z"/>
	<path d="M24.6,19.3l-0.8-1.8c-0.1-0.2-0.3-0.4-0.5-0.4L17,15.8l-3.4-1.9c-0.6-0.4-1.6-0.4-1.9-0.4H7.4c-0.7,0-1.8,0.5-2.1,0.8
		c-0.4,0.3-1.5,1.2-1.9,1.5l-1.7,0.4c-0.3,0.1-0.6,0.4-0.6,0.7V19l-0.4,2.2c-0.1,0.4,0.2,0.8,0.6,0.9l2.4,0.5h0.1
		c0.3,0.9,1.1,1.5,2.1,1.5s1.8-0.6,2.1-1.5h7.8c0.3,0.9,1.1,1.5,2.1,1.5s1.8-0.6,2.1-1.5h3.9c0.4,0,0.7-0.3,0.7-0.7v-2.2
		C24.7,19.5,24.6,19.4,24.6,19.3z M5.2,21.7c0-0.4,0.3-0.7,0.7-0.7c0,0,0,0,0.1,0c0,0,0,0,0.1,0c0.4,0,0.7,0.3,0.7,0.7
		c0,0.4-0.3,0.7-0.7,0.7S5.2,22.2,5.2,21.7z M17.2,21.7c0-0.4,0.3-0.7,0.7-0.7l0,0l0,0c0.4,0,0.7,0.3,0.7,0.7c0,0.4-0.3,0.7-0.7,0.7
		C17.5,22.5,17.2,22.2,17.2,21.7z M23.2,21h-3.1c-0.3-0.9-1.1-1.5-2.1-1.5s-1.8,0.6-2.1,1.5H8.1C7.8,20.1,7,19.5,6,19.5
		S4.2,20.1,3.9,21l-1.5-0.3l0.2-1.2H3c0.4,0,0.7-0.3,0.7-0.7c0-0.4-0.3-0.7-0.7-0.7H2.5v-0.5l1.3-0.4c0.1,0,0.2-0.1,0.3-0.1
		c0.4-0.3,1.5-1.2,1.9-1.5s1.1-0.5,1.3-0.5h4.3c0.4,0,0.9,0.1,1.1,0.2l3.6,1.9c0.1,0,0.1,0.1,0.2,0.1l6,1.2l0.6,1.3L23.2,21L23.2,21
		z"/>
</g>
</svg>
