<?xml version="1.0" encoding="utf-8"?>
<!-- Generator: Adobe Illustrator 27.2.0, SVG Export Plug-In . SVG Version: 6.00 Build 0)  -->
<svg version="1.1" id="Camada_1" xmlns="http://www.w3.org/2000/svg" xmlns:xlink="http://www.w3.org/1999/xlink" x="0px" y="0px"
	 viewBox="0 0 127.4 127.7" style="enable-background:new 0 0 127.4 127.7;" xml:space="preserve">
<path d="M63.7,0.3C28.5,0.3,0,28.8,0,64s28.5,63.7,63.7,63.7s63.7-28.5,63.7-63.7S98.9,0.3,63.7,0.3z M100.8,66.4
	c0,1.6-1.3,2.9-2.9,2.9H76.5l15.1,15.1c1.2,1.2,1.2,3,0,4.2l-3.3,3.3c-1.2,1.2-3,1.2-4.2,0L69,76.8v21.4c0,1.6-1.3,2.9-2.9,2.9h-4.7
	c-1.6,0-2.9-1.3-2.9-2.9V76.8L43.3,91.9c-1.2,1.2-3,1.2-4.2,0l-3.3-3.3c-1.2-1.2-1.2-3,0-4.2l15.1-15.1H29.5c-1.6,0-2.9-1.3-2.9-2.9
	v-4.7c0-1.6,1.3-2.9,2.9-2.9h21.4L35.8,43.6c-1.2-1.2-1.2-3,0-4.2l3.3-3.3c1.2-1.2,3-1.2,4.2,0l15.1,15.1V29.8
	c0-1.6,1.3-2.9,2.9-2.9H66c1.6,0,2.9,1.3,2.9,2.9v21.4L84,36.1c1.2-1.2,3-1.2,4.2,0l3.3,3.3c1.2,1.2,1.2,3,0,4.2l-15,15.1h21.4
	c1.6,0,2.9,1.3,2.9,2.9V66.4z"/>
</svg>
