<?xml version="1.0" encoding="UTF-8" standalone="no"?>
<svg xmlns="http://www.w3.org/2000/svg" xml:space="preserve" viewBox="0 0 512 512">
  <path d="M171.473 9.864c-3.22.034-5.932.12-7.86.302a3.68 3.68 0 0 0-.007 0c-10.632 1.033-25.544 4.328-37.123 8.086a3.68 3.68 0 0 0-.016.004c-43.263 14.253-77.898 43.862-98.28 84.07a3.68 3.68 0 0 0 0 .003C11.963 134.368 6.382 169.075 11.74 204.504c5.356 35.374 20.796 66.456 45.763 92.03a3.68 3.68 0 0 0 0 .002c27.615 28.27 61.543 45.336 100.725 50.537a3.68 3.68 0 0 0 .008.002c9.862 1.286 31.3 1.296 41.074-.053 20.418-2.766 37.01-7.766 54.608-16.488l.004-.002c11.834-5.853 21.866-12.398 31.377-20.162-1.389 1.551-2.727 3.054-3.657 4.279-2.383 3.14-3.576 5.922-3.576 8.625 0 4.07 1.615 8.052 4.565 10.94 2.878 2.868 6.369 4.318 10.504 4.374a3.68 3.68 0 0 0 .048 0c3.141 0 5.498-.723 8.27-2.623a3.68 3.68 0 0 0 .006-.004c1.626-1.118 3.454-2.902 6.48-5.76 1.5-1.416 3.465-3.364 5.239-5.085-3.84 6.155-5.644 13.243-5.252 21.117a3.68 3.68 0 0 0 0 .011c.367 6.93 1.889 12.212 5.226 16.702l.002.004c4.415 6.01 14.929 16.767 61.094 63.18a3.68 3.68 0 0 0 .002.001c58.977 59.225 69.628 69.583 78.14 73.868a3.68 3.68 0 0 0 .009.006c1.577.788 2.995 1.425 4.77 1.722 1.774.297 3.645.322 7.044.397 8.165.2 11.841-.543 18.225-3.76a3.68 3.68 0 0 0 .008-.004c7.683-3.895 12.933-9.273 16.71-17.252v-.002c2.52-5.306 3.283-9.933 3.028-17.69-.255-7.747-1.669-11.425-6.78-17.902a3.68 3.68 0 0 0-.005-.008c-7.519-9.478-31.378-33.688-89.266-91.031a3.68 3.68 0 0 0-.002-.002c-34.815-34.418-41.11-40.672-46.311-43.338a3.68 3.68 0 0 0-.047-.023c-4.451-2.202-10.764-3.208-16.498-3.248-1.912-.014-3.74.097-5.436.4a3.68 3.68 0 0 0-.015.002c-4.876.893-9.182 2.688-13.13 5.244 2.686-2.77 6.087-6.175 7.806-8.111 3.079-3.47 4.803-5.625 5.744-7.998a3.68 3.68 0 0 0 .006-.016c2.127-5.436-.295-11.43-4.848-15.377-2.715-2.446-6.094-3.854-9.584-3.945a15.78 15.78 0 0 0-4.768.629 3.68 3.68 0 0 0-.015.004c-1.984.58-2.591 1.332-4.02 2.47-1.139.908-2.635 2.246-4.183 3.641 7.363-9.094 13.515-18.598 19.064-29.697a3.68 3.68 0 0 0 .004-.01c7.438-14.977 12.083-28.191 15.455-44.2a3.68 3.68 0 0 0 .006-.027c1.259-6.19 1.555-9.17 2.051-21.627a3.68 3.68 0 0 0 .002-.002 3.68 3.68 0 0 0 0-.002 3.68 3.68 0 0 0 0-.002 3.68 3.68 0 0 0 0-.002 3.68 3.68 0 0 0-.002-.002c.65-17.434.087-31.077-1.85-40.81a3.68 3.68 0 0 0 0-.002 3.68 3.68 0 0 0 0-.002 3.68 3.68 0 0 0 0-.002c-5.655-28.172-17.452-53.744-35.088-75.978a3.68 3.68 0 0 0-.006-.01c-5.74-7.189-20.148-21.409-27.416-27.008-24.62-18.97-51.323-30.107-82.718-34.494-5.643-.818-19.198-1.17-28.862-1.066Zm-3.367 31.574c5.04.006 12.113.112 18.35.266 6.237.153 11.936.397 13.185.539a3.68 3.68 0 0 0 .002.002c14.155 1.593 34.205 8.696 49.84 17.884a3.68 3.68 0 0 0 .008.004c33.378 19.507 57.224 53.179 65.04 91.87a3.68 3.68 0 0 0 0 .005c2.188 10.75 2.796 17.91 2.503 30.073-.295 11.774-.879 16.828-3.273 27.236a3.68 3.68 0 0 0-.004.014c-4.578 20.286-13.947 39.752-27.07 56.302-4.847 6.104-15.353 16.658-21.384 21.436-21.094 16.702-45.837 26.719-73.046 29.572-5.43.533-21.556.533-26.985 0-54.382-5.698-99.816-42.118-117.44-94.203l-.003-.01c-2.555-7.617-4.849-16.701-5.53-21.674v-.006c-.713-5.503-1.123-29.57-.525-37.603.68-8.697 1.633-13.83 4.36-22.836a3.68 3.68 0 0 0 .002-.01c7.057-23.543 19.095-43.165 37.208-60.697 17.677-17.095 36.783-28.006 59.735-34.143a3.68 3.68 0 0 0 .01-.004c5.835-1.578 14.559-3.362 18.818-3.912-.067.01 2.843-.109 6.2-.105zm2.414 5.441c-1.27 0-2.372.465-3.3 1.395-.93.93-1.393 2.027-1.393 3.299v26.402c-15.353 2.932-27.822 9.485-37.405 19.654-9.582 10.17-14.375 22-14.375 35.496 0 4.01.42 7.824 1.25 11.44.83 3.62 1.858 6.87 3.08 9.754 1.222 2.886 2.959 5.722 5.208 8.51 2.248 2.786 4.374 5.181 6.378 7.185 2.006 2.003 4.622 4.082 7.848 6.232 3.228 2.153 5.99 3.89 8.29 5.21 2.298 1.315 5.353 2.835 9.165 4.542 3.814 1.713 6.821 3.007 9.022 3.89 2.2.878 5.208 2.102 9.023 3.663 5.28 2.054 9.192 3.643 11.734 4.768 2.545 1.125 5.77 2.69 9.684 4.695 3.91 2.003 6.768 3.837 8.578 5.5 1.81 1.663 3.446 3.716 4.914 6.16 1.468 2.444 2.203 5.034 2.203 7.774 0 7.725-3.006 13.689-9.021 17.89-6.013 4.206-12.983 6.309-20.902 6.309-3.615 0-7.235-.39-10.852-1.172-12.712-2.546-24.593-8.656-35.643-18.336l-.295-.293c-.88-1.073-2.054-1.515-3.52-1.318-1.564.195-2.688.784-3.372 1.763l-15.108 19.8c-1.467 1.955-1.369 3.96.293 6.013.49.587 1.345 1.47 2.567 2.64 1.225 1.177 3.5 3.006 6.822 5.504 3.324 2.495 6.941 4.838 10.854 7.041 3.911 2.2 8.873 4.376 14.888 6.528a92.601 92.601 0 0 0 18.701 4.543v25.668c0 1.273.467 2.373 1.395 3.302.93.93 2.028 1.393 3.299 1.393h19.803c1.37 0 2.496-.44 3.375-1.318.879-.88 1.318-2.006 1.318-3.377V279.36c15.55-2.542 28.19-9.216 37.918-20.022 9.73-10.805 14.594-23.688 14.594-38.648-.006-4.888-.639-9.484-1.922-13.79-1.27-4.298-2.81-8.039-4.62-11.216-1.807-3.18-4.397-6.282-7.773-9.316-3.372-3.033-6.404-5.476-9.094-7.332-2.687-1.859-6.38-3.937-11.074-6.237-4.69-2.299-8.407-4.01-11.142-5.135-2.74-1.123-6.702-2.663-11.885-4.619-4.596-1.759-8.018-3.105-10.27-4.033-2.248-.93-5.206-2.249-8.873-3.96-3.665-1.71-6.403-3.226-8.213-4.546-1.808-1.32-3.739-2.933-5.793-4.84-2.054-1.906-3.496-3.934-4.328-6.086-.83-2.151-1.246-4.498-1.246-7.04 0-6.648 2.932-12.078 8.8-16.282 5.867-4.203 13.447-6.306 22.737-6.306 4.105 0 8.289.561 12.54 1.687 4.25 1.126 7.894 2.394 10.925 3.813a75.909 75.909 0 0 1 8.584 4.695c2.69 1.712 4.595 3.007 5.72 3.887 1.125.88 1.838 1.465 2.128 1.76 1.273.977 2.59 1.319 3.959 1.027 1.466-.098 2.593-.88 3.377-2.346l11.883-21.416c1.172-1.955.929-3.813-.735-5.574a50.098 50.098 0 0 0-2.203-2.053c-.877-.783-2.785-2.201-5.72-4.256a70.81 70.81 0 0 0-9.313-5.5c-3.277-1.612-7.532-3.25-12.764-4.912a81.373 81.373 0 0 0-16.209-3.375V51.573c0-1.368-.439-2.493-1.316-3.373-.88-.879-2.004-1.32-3.375-1.32z"/>
</svg>
