<svg width="30" height="22" viewBox="0 0 30 22" xmlns="http://www.w3.org/2000/svg">
<path id="Vector" d="M26.468 11.825L23.3066 6.19731C23.1129 5.85359 22.7502 5.64101 22.3566 5.64101H17.0604C16.4574 5.64101 15.9712 6.12894 15.9712 6.73124V11.8032H12.2274V5.50054C12.2274 5.13692 12.0461 4.7963 11.7424 4.59429L5.21113 0.237738L5.2074 0.235252L5.2043 0.232766C4.8075 -0.00840189 4.42561 -0.0854763 4.05303 0.113425C3.68231 0.310461 3.46995 0.712615 3.51155 1.13031V1.13217V1.13652L3.51093 1.14025V6.4565C3.51093 6.82385 3.21349 7.12345 2.84463 7.12345C2.4764 7.12345 2.17834 6.82385 2.17834 6.4565C2.17834 5.85359 1.69088 5.36628 1.08917 5.36628C0.488077 5.36628 0 5.85421 0 6.45713C0 8.0272 1.2767 9.30452 2.84526 9.30452C4.41381 9.30452 5.69051 8.0272 5.69051 6.45713V4.06223L8.23212 6.99789V11.802H2.31744C1.71572 11.802 1.22827 12.2905 1.22827 12.8922V18.0922C1.22827 18.6951 1.71572 19.1824 2.31744 19.1824H3.12345C3.4923 20.7935 4.92797 22 6.6468 22C8.36687 22 9.80315 20.7935 10.172 19.1824H20.1497C20.5197 20.7935 21.9548 22 23.673 22C25.3937 22 26.83 20.7935 27.1988 19.1824H28.9102C29.5132 19.1824 30 18.6951 30 18.0922V15.5463C30 13.5548 28.4321 11.9362 26.468 11.825ZM6.63997 19.8152C5.84575 19.8152 5.20305 19.1706 5.20305 18.3769C5.20305 17.5825 5.84762 16.938 6.63997 16.938C7.43418 16.938 8.07812 17.5825 8.07812 18.3769C8.07812 19.1706 7.4348 19.8152 6.63997 19.8152ZM18.1495 11.8026V7.82084H21.7201L23.958 11.8026H18.1495ZM23.6823 19.8152C22.8881 19.8152 22.2454 19.1706 22.2454 18.3769C22.2454 17.5825 22.8893 16.938 23.6823 16.938C24.4747 16.938 25.1186 17.5825 25.1186 18.3769C25.1186 19.1706 24.4759 19.8152 23.6823 19.8152Z" />
</svg>
