<?xml version="1.0" encoding="UTF-8" standalone="no"?>
<svg xmlns="http://www.w3.org/2000/svg" xml:space="preserve" viewBox="0 0 512 512">
  <g transform="translate(-214.365 -482.587)">
    <path fill="#fff" d="M470.367 487.923c-108.827 0-197.05 88.222-197.05 197.05 0 48.584 17.664 92.985 46.813 127.343L470.367 989.25 620.6 812.311c29.15-34.353 46.813-78.76 46.813-127.344.005-108.822-88.217-197.044-197.045-197.044Zm0 271.302c-44.757 0-81.037-36.28-81.037-81.037 0-44.757 36.28-81.037 81.037-81.037 44.758 0 81.037 36.28 81.037 81.037 0 44.758-36.28 81.037-81.037 81.037z"/>
    <circle cx="256" cy="204" r="171.961" transform="translate(214.365 482.587)"/>
    <path fill="#fff" d="M356.8 575.631c-.703-.042-1.397.043-2.002.256-1.405.498-2.046 1.032-5.444 4.466-3.754 3.79-4.127 4.394-4.11 6.69 0 1.173.09 1.582.463 2.311.25.499 18.165 22.4 39.799 48.66l39.336 47.769v15.033h56.949l-.053-9.216c-.053-9.109-.054-9.216-.445-10.07-.231-.463-.658-1.138-.96-1.494-.321-.356-27.559-23.769-60.544-52.039-44.655-38.286-60.222-51.523-60.934-51.86a5.817 5.817 0 0 0-2.056-.506zm-5.762 38.54c-.192.206-.205 4-.172 23.931l.054 24.196.462.997c.943 1.993 2.58 3.078 5.142 3.363 1.726.195 3.06.764 4.003 1.69 2.153 2.17 2.153 5.835 0 8.005-2.17 2.153-5.836 2.153-8.006 0-.765-.782-1.458-2.153-1.619-3.238l-.107-.765h-11.35v.73c0 1.263.712 4.288 1.37 5.854.907 2.117 2.028 3.77 3.682 5.443 2.473 2.455 5.337 3.985 8.771 4.679 2.277.48 4.235.48 6.512 0 3.434-.694 6.298-2.224 8.77-4.68 2.474-2.49 3.986-5.319 4.697-8.824.659-3.184.268-6.92-1.031-9.874-1.762-4.003-5.142-7.4-8.967-9.001l-1.032-.428v-14.322l-.018-14.321-5.426-6.583c-2.989-3.63-5.55-6.708-5.693-6.85-.015-.014-.029-.016-.042-.002zm182.596 12.705c-24.48-.053-25.12-.035-26.775.303-3.345.712-6.21 2.259-8.647 4.678-2.455 2.473-3.985 5.338-4.679 8.772-.374 1.797-.373 1.903-.373 65.15v63.355h23.271l.302 1.387a34.48 34.48 0 0 0 11.849 19.376c9.02 7.365 21.207 9.59 32.273 5.906 11.44-3.807 20.015-13.415 22.594-25.299l.303-1.37h6.672c6.03 0 6.849-.035 8.468-.373 3.434-.694 6.298-2.224 8.77-4.68 2.456-2.473 3.987-5.337 4.699-8.789.355-1.815.355-2.028.302-31.49-.035-27.683-.071-29.764-.356-31.258-1.21-6.014-3.878-12.348-7.686-18.166-.711-1.067-6.707-9.197-13.343-18.057l-12.063-16.084-3.042-3.042c-5.604-5.587-10.3-8.504-15.923-9.91-1.512-.373-1.708-.373-26.616-.409zm46.88 34.088 6.974 9.287c3.843 5.124 7.525 10.176 8.201 11.262 2.616 4.216 4.556 8.913 5.374 13.023l.124.587h-57.304l-1.033-.391c-1.441-.534-3.22-2.313-3.772-3.772-.373-1.032-.39-1.068-.337-13.255l.053-12.204.463-.978c.498-1.05 1.69-2.35 2.561-2.812 1.406-.73 1.246-.73 20.318-.73zm-252.473 51.239.053 21.296.053 21.313.41 1.424c1.832 6.298 6.12 10.585 12.4 12.382 1.423.41 1.477.409 14.446.48l13.005.053.303 1.37c1.672 7.65 6.013 14.731 12.01 19.517 9.108 7.259 21.117 9.43 32.112 5.765 11.44-3.807 20.015-13.415 22.595-25.3l.302-1.37h46.043v-56.93h-76.857zm72.72 28.544c1.884-.048 4.386.1 5.666.366 4.448.907 8.167 2.882 11.405 5.996 3.433 3.309 5.587 7.24 6.6 12.061.428 2.082.428 6.459 0 8.54-1.28 6.085-4.803 11.369-9.731 14.625-4.056 2.668-7.757 3.771-12.632 3.771-3.024 0-4.626-.248-7.33-1.138-6.476-2.17-12.026-7.704-14.179-14.144-.907-2.758-1.157-4.341-1.157-7.383 0-3.025.249-4.626 1.139-7.33 2.686-8.06 10.017-14.055 18.61-15.247.422-.063.981-.1 1.61-.117zm148.022 0c1.884-.048 4.386.1 5.667.366 4.448.907 8.166 2.882 11.404 5.996 3.434 3.309 5.586 7.24 6.6 12.061.427 2.082.427 6.459 0 8.54-1.28 6.085-4.803 11.369-9.731 14.625-4.057 2.668-7.757 3.771-12.632 3.771-3.025 0-4.625-.248-7.33-1.138-6.475-2.17-12.027-7.704-14.18-14.144-.907-2.758-1.156-4.341-1.156-7.383 0-3.025.25-4.626 1.14-7.33 2.686-8.06 10.015-14.055 18.608-15.247.423-.063.982-.1 1.61-.117z"/>
  </g>
</svg>
